<?xml version="1.0" standalone="no"?>
<!DOCTYPE svg PUBLIC "-//W3C//DTD SVG 1.1//EN" "http://www.w3.org/Graphics/SVG/1.1/DTD/svg11.dtd" >
<svg>
<metadata>
Created by FontForge 20090914 at Wed Jul 15 08:59:07 2020
 By www-data
Copyright 2019 The Ruda Project Authors (https://github.com/marmonsalve/Ruda-new)
</metadata>
<defs>
<font id="Ruda-SemiBold" horiz-adv-x="0" >
  <font-face 
    font-family="Ruda SemiBold"
    font-weight="600"
    font-stretch="normal"
    units-per-em="1000"
    panose-1="2 0 0 0 0 0 0 0 0 0"
    ascent="800"
    descent="-200"
    x-height="584"
    cap-height="697"
    bbox="-42 -239 920 1041"
    underline-thickness="50"
    underline-position="-75"
    unicode-range="U+000D-U+2260"
  />
<missing-glyph horiz-adv-x="276" 
 />
    <glyph glyph-name=".notdef" horiz-adv-x="276" 
 />
    <glyph glyph-name="CR" unicode="&#xd;" horiz-adv-x="250" 
 />
    <glyph glyph-name="space" unicode=" " horiz-adv-x="245" 
 />
    <glyph glyph-name="exclam" unicode="!" horiz-adv-x="276" 
d="M95 194l-15 503h116l-16 -503h-85zM74 0v103h128v-103h-128z" />
    <glyph glyph-name="quotedbl" unicode="&#x22;" horiz-adv-x="360" 
d="M229 469l-15 221v28h97v-28l-18 -221h-64zM64 469l-15 221v28h96v-28l-17 -221h-64z" />
    <glyph glyph-name="numbersign" unicode="#" horiz-adv-x="560" 
d="M70 0l29 188h-81v90h95l22 137h-82v90h95l31 190h89l-30 -190h120l30 190h90l-30 -190h81v-90h-95l-22 -137h82v-90h-96l-29 -188h-89l29 188h-120l-29 -188h-90zM203 278h120l21 137h-120z" />
    <glyph glyph-name="dollar" unicode="$" horiz-adv-x="522" 
d="M213 -117l-0.00195312 107.002c-33.333 3.33301 -63.833 9.83301 -91.5 19.5s-50 18.834 -67 27.501l-25.5 13l5 13.5l11.5 30l11.5 29.5l5 13l17.5 -8.5c11.667 -5.66699 27.5 -11.834 47.5 -18.501s42.333 -12.834 67 -18.501s50 -8.5 76 -8.5
c15.333 0 27.5 1.5 36.5 4.5s15.5 5.83301 19.5 8.5c11.333 8 20.333 19.167 27 33.5s10 33.166 10 56.499c0 22 -5.33301 40.667 -16 56s-25 28.333 -43 39s-38 20.667 -60 30c-26 11.333 -50.667 22.666 -74 33.999s-44.166 24.833 -62.499 40.5
s-32.666 34.5 -42.999 56.5s-15.5 49.333 -15.5 82c0 45.333 13.833 85 41.5 119s69.167 55.333 124.5 64v96h89v-93c25.333 -1.33301 48.5 -4 69.5 -8s38 -7.66699 51 -11l19.5 -5l-17 -89l-15.5 3c-10.333 2 -24.166 4.33301 -41.499 7s-36.5 5 -57.5 7s-41.833 3 -62.5 3
c-15.333 0 -27.333 -1 -36 -3s-16.667 -5.33301 -24 -10c-7.33301 -4 -14.333 -12 -21 -24s-10 -28.667 -10 -50c0 -23.333 6.5 -42.666 19.5 -57.999s30 -28.166 51 -38.499s43.833 -20.5 68.5 -30.5c21.333 -8.66699 42.333 -18.5 63 -29.5s39.167 -24 55.5 -39
s29.666 -33.833 39.999 -56.5s15.5 -50.334 15.5 -83.001c0 -53.333 -15.667 -98 -47 -134s-72.333 -58.667 -123 -68v-109h-89z" />
    <glyph glyph-name="percent" unicode="%" horiz-adv-x="806" 
d="M174 -9l198 398l157 344h93l-186 -384l-168 -358h-94zM202 402c-25.333 0 -50 5.16699 -74 15.5s-43.667 27 -59 50s-23 53.5 -23 91.5s7.66699 68.333 23 91s35 39 59 49s48.667 15 74 15c26 0 51 -5 75 -15s43.5 -26.333 58.5 -49s22.5 -53 22.5 -91
s-7.5 -68.5 -22.5 -91.5s-34.5 -39.667 -58.5 -50s-49 -15.5 -75 -15.5zM202 484c21.333 0 38.666 5.33301 51.999 16s20 30.334 20 59.001c0 28 -6.66699 47.167 -20 57.5s-30.666 15.5 -51.999 15.5c-20.667 0 -37.667 -5.16699 -51 -15.5s-20 -29.5 -20 -57.5
c0 -28.667 6.66699 -48.334 20 -59.001s30.333 -16 51 -16zM604 -9c-26.667 0 -51.834 5.16699 -75.501 15.5s-43.167 27 -58.5 50s-23 53.5 -23 91.5s7.66699 68.333 23 91s34.833 39 58.5 49s48.834 15 75.501 15c25.333 0 50 -5 74 -15s43.667 -26.333 59 -49
s23 -53 23 -91s-7.66699 -68.5 -23 -91.5s-35 -39.667 -59 -50s-48.667 -15.5 -74 -15.5zM604 73c20.667 0 37.667 5.33301 51 16s20 30.334 20 59.001c0 28 -6.66699 47.167 -20 57.5s-30.333 15.5 -51 15.5c-21.333 0 -38.666 -5.16699 -51.999 -15.5s-20 -29.5 -20 -57.5
c0 -28.667 6.66699 -48.334 20 -59.001s30.666 -16 51.999 -16z" />
    <glyph glyph-name="ampersand" unicode="&#x26;" horiz-adv-x="663" 
d="M257 -13c-47.333 0 -87.8359 10.1699 -121.503 30.5029s-59.334 46.166 -77.001 77.499s-26.5 63.333 -26.5 96c0 25.333 4.66699 48.333 14 69s21.333 38.834 36 54.501s30 29 46 40s31.333 19.833 46 26.5c-13.333 9.33301 -27 21.166 -41 35.499
s-25.833 31.666 -35.5 51.999s-14.5 43.5 -14.5 69.5c0 32 7.33301 61 22 87s36.5 46.667 65.5 62s64.167 23 105.5 23c44.667 0 80.834 -8.16699 108.501 -24.5s48 -37.333 61 -63s19.5 -52.5 19.5 -80.5c0 -30 -6.16699 -55.833 -18.5 -77.5
s-26.833 -39.334 -43.5 -53.001s-32 -24.5 -46 -32.5c30 -21.333 55.333 -41.5 76 -60.5s40 -39.167 58 -60.5c13.333 22 24.333 42.667 33 62s15.334 35 20.001 47l7 18l90 -27l-11 -26c-7.33301 -17.333 -17.666 -39.333 -30.999 -66s-29.666 -54.667 -48.999 -84
c26 -38.667 46 -74.667 60 -108s24.667 -61 32 -83l-102 -4c-2.66699 8 -8.66699 22.5 -18 43.5s-21.333 44.167 -36 69.5c-32 -34 -66.833 -61.333 -104.5 -82s-79.167 -31 -124.5 -31zM259.997 73.0029c34.667 0 66.834 10.332 96.501 30.999s56.167 45.334 79.5 74.001
c-26 34 -53.5 64 -82.5 90s-58.167 47.333 -87.5 64c-22.667 -7.33301 -43.334 -18.333 -62.001 -33s-33.667 -31.667 -45 -51s-17 -40 -17 -62c0 -32 10.833 -58.833 32.5 -80.5s50.167 -32.5 85.5 -32.5zM270.997 425.002c22.667 10 42.833 24.668 60.5 44.001
s26.5 44.333 26.5 75c0 22.667 -6.33301 42.334 -19 59.001s-35 25 -67 25c-30 0 -51.333 -8 -64 -24s-19 -36.333 -19 -61c0 -28.667 7.16699 -52.334 21.5 -71.001s34.5 -34.334 60.5 -47.001z" />
    <glyph glyph-name="quotesingle" unicode="'" horiz-adv-x="200" 
d="M67 470l-15 222v28h96v-29l-17 -221h-64z" />
    <glyph glyph-name="parenleft" unicode="(" horiz-adv-x="326" 
d="M255 -124c-32.667 19.333 -63.834 47.666 -93.501 84.999s-53.667 86.333 -72 147s-27.5 136 -27.5 226c0 90.667 9.16699 166.334 27.5 227.001s42.333 109.5 72 146.5s60.834 65.167 93.501 84.5l47 -64c-46.667 -30 -80.5 -79 -101.5 -147s-31.5 -150.333 -31.5 -247
c0 -96 10.5 -178.167 31.5 -246.5s54.833 -117.833 101.5 -148.5z" />
    <glyph glyph-name="parenright" unicode=")" horiz-adv-x="326" 
d="M70 -124l-46 63c46.667 30.667 80.5 80.167 101.5 148.5s31.5 150.5 31.5 246.5c0 96.667 -10.5 179 -31.5 247s-54.833 117 -101.5 147l46 64c33.333 -19.333 64.833 -47.5 94.5 -84.5s53.667 -85.833 72 -146.5s27.5 -136.334 27.5 -227.001
c0 -90 -9.16699 -165.333 -27.5 -226s-42.333 -109.667 -72 -147s-61.167 -65.666 -94.5 -84.999z" />
    <glyph glyph-name="asterisk" unicode="*" horiz-adv-x="415" 
d="M130 366l-72 62l13 15l88 82l-111 17l-19 6l29 94l20 -7l97 -49l-16 107v19h97v-19l-18 -107l98 49l19 7l30 -94l-19 -6l-113 -17l88 -82l14 -14l-74 -63l-11 15l-64 104l-64 -104z" />
    <glyph glyph-name="plus" unicode="+" horiz-adv-x="624" 
d="M265 24v225h-220v88h220v224h92v-224h221v-88h-221v-225h-92z" />
    <glyph glyph-name="comma" unicode="," horiz-adv-x="279" 
d="M112 -169l-55 34c10.667 14 18.667 29.667 24 47s8 38.333 8 63v123h102v-76c-0.666992 -50.667 -9 -91 -25 -121s-34 -53.333 -54 -70z" />
    <glyph glyph-name="hyphen" unicode="-" horiz-adv-x="316" 
d="M39 283v89h238v-89h-238z" />
    <glyph glyph-name="period" unicode="." horiz-adv-x="263" 
d="M69 0v103h124v-103h-124z" />
    <glyph glyph-name="slash" unicode="/" horiz-adv-x="448" 
d="M-3 -98l180 421l150 374h106l-175 -411l-155 -384h-106z" />
    <glyph glyph-name="zero" unicode="0" horiz-adv-x="585" 
d="M292 -13c-33.333 0 -64.5 5.33301 -93.5 16s-54.333 29.167 -76 55.5s-38.667 63.166 -51 110.499s-18.5 107.666 -18.5 180.999s6.16699 133.333 18.5 180s29.333 83.167 51 109.5s47 44.666 76 54.999s60.167 15.5 93.5 15.5c34 0 65.5 -5.16699 94.5 -15.5
s54.333 -28.666 76 -54.999s38.5 -63 50.5 -110s18 -106.833 18 -179.5c0 -73.333 -6 -133.666 -18 -180.999s-28.833 -84.166 -50.5 -110.499s-47 -44.833 -76 -55.5s-60.5 -16 -94.5 -16zM293 80c28.667 0 52.667 7.33301 72 22s33.833 41.5 43.5 80.5
s14.5 94.833 14.5 167.5c0 56 -3 101.667 -9 137s-14.5 62.5 -25.5 81.5s-24.667 32.167 -41 39.5s-34.833 11 -55.5 11s-39 -3.66699 -55 -11s-29.667 -20.333 -41 -39s-19.833 -45.5 -25.5 -80.5s-8.5 -80.5 -8.5 -136.5c0 -72.667 5 -128.667 15 -168
s24.667 -66.5 44 -81.5s43.333 -22.5 72 -22.5z" />
    <glyph glyph-name="one" unicode="1" horiz-adv-x="521" 
d="M73 0v91l169 -2l6 505h-5l-138 -144l-69 69l205 186l107 -8v-608l149 2v-91h-424z" />
    <glyph glyph-name="two" unicode="2" horiz-adv-x="554" 
d="M51 0v78.999l48 54c32 36 77.333 90 136 162c42 50.667 76.167 96 102.5 136s39.5 77.667 39.5 113c0 21.333 -6.16699 38.666 -18.5 51.999s-33.5 20 -63.5 20c-20.667 0 -43.167 -3.16699 -67.5 -9.5s-48.5 -14.833 -72.5 -25.5s-46.333 -22.667 -67 -36l-44 79
c12 10 29.667 21.833 53 35.5s50.5 25.5 81.5 35.5s63.5 15 97.5 15c39.333 0 74.5 -7 105.5 -21s55.333 -34.167 73 -60.5s26.5 -57.166 26.5 -92.499c0 -28.667 -6 -57.5 -18 -86.5s-27.167 -57.167 -45.5 -84.5s-37.5 -53.666 -57.5 -78.999
c-10 -13.333 -21.833 -28.333 -35.5 -45l-41.5 -51l-39 -48l-29 -35.5l-11 -13.5v-6l292 6v-93h-445z" />
    <glyph glyph-name="three" unicode="3" horiz-adv-x="566" 
d="M266 -13c-30 0 -57.8359 2.66797 -83.5029 8.00098s-48.5 11.833 -68.5 19.5s-36.5 14.834 -49.5 21.501l-27.5 14l37 78l29 -11c14 -5.33301 30.667 -10.833 50 -16.5s40 -10.5 62 -14.5s43.667 -6 65 -6c37.333 0 62.833 9 76.5 27s20.5 46 20.5 84
c0 50.667 -10.167 85.834 -30.5 105.501s-52.5 29.5 -96.5 29.5h-104v85c40.667 3.33301 74.834 6.5 102.501 9.5s49.667 7.83301 66 14.5s27.833 16.667 34.5 30s10 31.666 10 54.999c0 19.333 -1.66699 35.5 -5 48.5s-7.66602 22.167 -12.999 27.5
c-8 8.66699 -21.167 14.667 -39.5 18s-40.833 5 -67.5 5c-12 0 -24.167 -0.333008 -36.5 -1s-27 -1.83398 -44 -3.50098s-39.167 -4.16699 -66.5 -7.5l-13 85c14 4 30.833 7.33301 50.5 10s39.834 4.66699 60.501 6s39.334 2 56.001 2c43.333 0 82 -5.33301 116 -16
s60.833 -29 80.5 -55s29.5 -62 29.5 -108c0 -28.667 -3.83301 -52.5 -11.5 -71.5s-17.167 -34 -28.5 -45s-22.5 -19.333 -33.5 -25s-20.167 -9.83398 -27.5 -12.501v-4c13.333 -3.33301 27 -8.5 41 -15.5s27.167 -17 39.5 -30s22.333 -30 30 -51s11.5 -47.167 11.5 -78.5
c0 -38 -7 -73 -21 -105s-37.333 -57.667 -70 -77s-76.334 -29 -131.001 -29z" />
    <glyph glyph-name="four" unicode="4" horiz-adv-x="549" 
d="M337 0l2 155h-317v75l163 479l102 -13l-153 -449v-6l206 5l23 263h79v-262l65 2v-94h-65l1 -155h-106z" />
    <glyph glyph-name="five" unicode="5" horiz-adv-x="522" 
d="M250 -13c-32 0 -62 3.83203 -90 11.499s-52.5 16.334 -73.5 26.001s-37.333 18.334 -49 26.001l-17.5 11.5l37 78l19 -9c12.667 -6 29.334 -13 50.001 -21s43 -15 67 -21s47.333 -9 70 -9c29.333 0 51 5 65 15c11.333 7.33301 19.833 21.666 25.5 42.999
s8.5 42.666 8.5 63.999c0 20.667 -2.5 40.834 -7.5 60.501s-11.5 33.167 -19.5 40.5c-10 10 -30 17.167 -60 21.5s-68.333 6.5 -115 6.5c-14 0 -28 -0.166992 -42 -0.5s-25.667 -0.666016 -35 -0.999023l-14 -0.5l54 368h318v-90l-230 4l-26 -189
c41.333 -2 79.333 -6.33301 114 -13s65 -17.5 91 -32.5s46.167 -35.833 60.5 -62.5s21.5 -61.334 21.5 -104.001c0 -70.667 -19.833 -125.5 -59.5 -164.5s-93.834 -58.5 -162.501 -58.5z" />
    <glyph glyph-name="six" unicode="6" horiz-adv-x="564" 
d="M287 -13c-48.667 0 -90.5 11.001 -125.5 33.001s-61.833 58.167 -80.5 108.5s-28 118.166 -28 203.499c0 76 7.16699 138.5 21.5 187.5s34 87.5 59 115.5s54 47.5 87 58.5s67.833 16.5 104.5 16.5c28.667 0 54.5 -2.33301 77.5 -7s41.167 -9.33398 54.5 -14.001l20 -7
l-23 -87l-13.5 3.5c-9 2.33301 -20.667 5 -35 8s-30.166 5.5 -47.499 7.5s-34 3 -50 3c-22.667 0 -41.334 -2.33301 -56.001 -7s-27 -12 -37 -22c-13.333 -12.667 -24.166 -32.167 -32.499 -58.5s-13.833 -62.833 -16.5 -109.5l14.5 1.5c9.66699 1 22 1.83301 37 2.5
s29.833 1 44.5 1c50.667 0 94.667 -6.66699 132 -20s66.166 -35.333 86.499 -66s30.5 -72 30.5 -124c0 -73.333 -20 -129.666 -60 -168.999s-94.667 -59 -164 -59zM293 76.001c43.333 0 73 10.167 89 30.5s24 55.5 24 105.5c0 30.667 -3.33301 55 -10 73
s-18.834 31 -36.501 39s-43.5 12 -77.5 12c-19.333 0 -38.166 -1 -56.499 -3s-33.333 -4 -45 -6l-17.5 -3v-71c0 -35.333 2.33301 -63.5 7 -84.5s10.167 -36.5 16.5 -46.5s11.5 -17 15.5 -21c6 -5.33301 15.833 -10.833 29.5 -16.5s34.167 -8.5 61.5 -8.5z" />
    <glyph glyph-name="seven" unicode="7" horiz-adv-x="483" 
d="M177 -8l-111 10l290 603v6l-339 -7v93h450v-65z" />
    <glyph glyph-name="eight" unicode="8" horiz-adv-x="552" 
d="M272 -13c-50.667 0 -93.332 9.99902 -127.999 29.999s-60.667 46 -78 78s-26 65 -26 99c0 28 5.66699 53.5 17 76.5s25.5 42.833 42.5 59.5s34.5 29.334 52.5 38.001c-24 18 -44.667 40.333 -62 67s-26 59 -26 97c0 52 17.833 94.667 53.5 128s88.167 50 157.5 50
c48 0 87.667 -8 119 -24s54.833 -37.5 70.5 -64.5s23.5 -57.167 23.5 -90.5c0 -42.667 -9.66699 -77.5 -29 -104.5s-43.333 -48.833 -72 -65.5c18 -10 36.333 -22.333 55 -37s34.834 -33.167 48.501 -55.5s20.5 -49.833 20.5 -82.5c0 -34.667 -9.33301 -67.167 -28 -97.5
s-45.834 -54.833 -81.501 -73.5s-78.834 -28 -129.501 -28zM275.002 76.999c43.333 0 75.001 9.00098 95.001 27.001s30 42.667 30 74c0 23.333 -4.83301 43.166 -14.5 59.499s-25.667 31 -48 44s-52.5 25.833 -90.5 38.5c-30 -12 -53.333 -27 -70 -45s-25 -46.667 -25 -86
c0 -20.667 3.66699 -39.5 11 -56.5s20.166 -30.5 38.499 -40.5s42.833 -15 73.5 -15zM292.003 402c28 10.667 49.999 25.667 65.999 45s24 46 24 80c0 29.333 -7.83301 53 -23.5 71s-43.167 27 -82.5 27c-41.333 0 -69.5 -8 -84.5 -24s-22.5 -37 -22.5 -63
c0 -31.333 9.33301 -57.5 28 -78.5s50.334 -40.167 95.001 -57.5z" />
    <glyph glyph-name="nine" unicode="9" horiz-adv-x="562" 
d="M273 -13c-26.667 0 -52 3.16602 -76 9.49902s-45.5 13.666 -64.5 21.999s-34 15.5 -45 21.5l-16.5 9l35 79l15.5 -7.5c10.333 -5 24 -10.833 41 -17.5s35.833 -12.667 56.5 -18s41 -8 61 -8c17.333 0 31.5 1.83301 42.5 5.5s19.833 9.16699 26.5 16.5
c13.333 13.333 24.5 36.333 33.5 69s13.833 72 14.5 118l-19.5 -3.5c-13 -2.33301 -29 -4.5 -48 -6.5s-37.833 -3 -56.5 -3c-44 0 -82.5 7.33301 -115.5 22s-58.667 37.5 -77 68.5s-27.5 71.167 -27.5 120.5c0 71.333 19.5 126.833 58.5 166.5s93.5 59.5 163.5 59.5
c46.667 0 87.5 -10.667 122.5 -32s62.333 -57.666 82 -108.999s29.5 -122.666 29.5 -213.999c0 -78 -8 -144.333 -24 -199s-41.333 -96.5 -76 -125.5s-80 -43.5 -136 -43.5zM269 365.999c22 0 42.667 1.83105 62 5.49805s35.333 7.16699 48 10.5l19 5
c0 56.667 -2.5 99.834 -7.5 129.501s-11 50.834 -18 63.501s-14.167 21.334 -21.5 26.001c-9.33301 5.33301 -20.833 9.16602 -34.5 11.499s-28.5 3.5 -44.5 3.5c-32 0 -56.167 -5.16699 -72.5 -15.5s-27.333 -25.666 -33 -45.999s-8.5 -46.5 -8.5 -78.5
c0 -22 2.16699 -41.833 6.5 -59.5s14.333 -31.334 30 -41.001s40.5 -14.5 74.5 -14.5z" />
    <glyph glyph-name="colon" unicode=":" horiz-adv-x="321" 
d="M96 446v104h129v-104h-129zM96 0v103h129v-103h-129z" />
    <glyph glyph-name="semicolon" unicode=";" horiz-adv-x="321" 
d="M134 -169l-55 34c10.667 14 18.667 29.167 24 45.5s8 37.833 8 64.5v123h102v-76c-0.666992 -50.667 -9 -91 -25 -121s-34 -53.333 -54 -70zM99 449v103h128v-103h-128z" />
    <glyph glyph-name="less" unicode="&#x3c;" horiz-adv-x="643" 
d="M597 12l-529 241v81l529 240v-103l-404 -174v-6l404 -177v-102z" />
    <glyph glyph-name="equal" unicode="=" horiz-adv-x="627" 
d="M45 346v90h537v-90h-537zM45 149v90h537v-90h-537z" />
    <glyph glyph-name="greater" unicode="&#x3e;" horiz-adv-x="646" 
d="M55 12v102l403 177v6l-403 174v103l528 -240v-81z" />
    <glyph glyph-name="question" unicode="?" horiz-adv-x="471" 
d="M141 195l-0.00195312 11.998c0.666992 35.333 6.16699 64.333 16.5 87s23.833 41.667 40.5 57s33.667 29.666 51 42.999c15.333 11.333 29.833 22.833 43.5 34.5s24.834 25.667 33.501 42s13 35.833 13 58.5c0 20 -3.33301 35.833 -10 47.5s-15 20.5 -25 26.5
c-2.66699 2 -8.66699 4.5 -18 7.5s-22.333 4.5 -39 4.5c-34.667 0 -68 -5.33301 -100 -16s-61 -22 -87 -34l-36 83c12 6.66699 27.667 14.834 47 24.501s42.833 18.334 70.5 26.001s59.167 11.5 94.5 11.5c42 0 79 -8 111 -24s56.833 -38.167 74.5 -66.5
s26.5 -60.5 26.5 -96.5c0 -34 -6 -62.667 -18 -86s-27.167 -43.166 -45.5 -59.499s-37.5 -31.833 -57.5 -46.5c-15.333 -11.333 -30.166 -23 -44.499 -35s-26 -26 -35 -42s-13.833 -35.667 -14.5 -59h-92zM123.998 -0.00195312v103h128v-103h-128z" />
    <glyph glyph-name="at" unicode="@" horiz-adv-x="829" 
d="M411 -45c-43.333 0 -85.832 7.67188 -127.499 23.0049s-79.334 38.5 -113.001 69.5s-60.667 69.667 -81 116s-30.5 100.5 -30.5 162.5c0 64 10.833 119.5 32.5 166.5s50.167 86 85.5 117s74.833 54.167 118.5 69.5s87.834 23 132.501 23c43.333 0 85.166 -7 125.499 -21
s76.5 -34.333 108.5 -61s57.333 -59.334 76 -98.001s28 -83.334 28 -134.001c0 -38.667 -5.83301 -74.5 -17.5 -107.5s-27 -61.5 -46 -85.5s-39.833 -42.667 -62.5 -56s-45.667 -20 -69 -20c-28 0 -47.667 10 -59 30s-18 46.667 -20 80h-4
c-7.33301 -13.333 -17 -28.666 -29 -45.999s-26 -32.333 -42 -45s-34 -19 -54 -19c-12 0 -24.667 3.16699 -38 9.5s-26 17.5 -38 33.5s-21.833 38.167 -29.5 66.5s-11.5 64.5 -11.5 108.5c0 54 6.33301 96.5 19 127.5s31 53 55 66s53.667 19.5 89 19.5
c17.333 0 35.333 -1.33301 54 -4s36 -5.66699 52 -9s29 -6.33301 39 -9l15 -4l-0.5 -22c-0.333008 -14.667 -0.5 -33.5 -0.5 -56.5s-0.166992 -46.833 -0.5 -71.5s-0.5 -47.334 -0.5 -68.001c0 -34 0.333008 -59 1 -75s2 -26.167 4 -30.5s5.33301 -6.5 10 -6.5
c12 0 26.167 7.66699 42.5 23s30.833 37.166 43.5 65.499s19 62.5 19 102.5c0 72.667 -22.833 130.5 -68.5 173.5s-108.834 64.5 -189.501 64.5c-55.333 0 -104.833 -10.833 -148.5 -32.5s-78 -53.834 -103 -96.501s-37.5 -96.334 -37.5 -161.001
s12.667 -119.334 38 -164.001s58.833 -78.667 100.5 -102s86.834 -35 135.501 -35c13.333 0 26.833 0.833008 40.5 2.5s25.167 3.33398 34.5 5.00098l14 2.5l9 -72l-28.5 -7.5c-19 -5 -43.167 -7.5 -72.5 -7.5zM374.001 206.005c12 0 24.166 8.16699 36.499 24.5
s23.833 37.333 34.5 63s19.334 53.167 26.001 82.5s10 57 10 83c-3.33301 1.33301 -12.333 3 -27 5s-30.667 3 -48 3c-24.667 0 -40.667 -3.33301 -48 -10c-6 -6 -10.667 -19.333 -14 -40s-5 -47.667 -5 -81c0 -46 3 -79.167 9 -99.5s14.667 -30.5 26 -30.5z" />
    <glyph glyph-name="A" unicode="A" horiz-adv-x="526" 
d="M0 0l190 697h144l190 -697h-108l-54 213l56 -37h-310l54 37l-53 -213h-109zM163 219l-36 48h271l-36 -48l-108 429l59 -46h-101l58 46z" />
    <glyph glyph-name="B" unicode="B" horiz-adv-x="626" 
d="M329 -14c-24.667 0 -50.3311 0.998047 -76.998 2.99805s-51.167 4.16699 -73.5 6.5s-40.666 4.33301 -54.999 6s-22.166 2.83398 -23.499 3.50098l3 320l-5 374c2 0 10.167 0.666992 24.5 2s32.666 2.83301 54.999 4.5s46.166 3 71.499 4s49.666 1.5 72.999 1.5
c39.333 0 74.666 -5.66699 105.999 -17s56.333 -30.833 75 -58.5s28 -65.834 28 -114.501c0 -33.333 -5 -60.166 -15 -80.499s-22 -36 -36 -47s-27.167 -18.667 -39.5 -23s-20.833 -6.83301 -25.5 -7.5l13 51v-99l-20 52c10.667 -1.33301 24 -4.5 40 -9.5
s31.667 -13.167 47 -24.5s28.166 -27.166 38.499 -47.499s15.5 -46.5 15.5 -78.5c0 -44 -6.16699 -80.333 -18.5 -109s-29.166 -51.167 -50.499 -67.5s-44.833 -27.833 -70.5 -34.5s-52.5 -10 -80.5 -10zM337.003 69.998c41.333 0 68.499 10.833 81.499 32.5
s19.5 55.167 19.5 100.5s-10.667 76.333 -32 93s-50.666 25 -87.999 25h-161l48 36l1 -325l-5 47c2 0 9.33301 -0.833008 22 -2.5s29 -3.16699 49 -4.5s41.667 -2 65 -2zM326.002 403.998c38 0 63.499 8.83203 76.499 26.499s19.5 46.5 19.5 86.5
c0 42.667 -7.83301 72.334 -23.5 89.001s-42.167 25 -79.5 25c-22.667 0 -42.667 -0.666992 -60 -2l-44.5 -3.5c-12.333 -1 -22.166 -2.16699 -29.499 -3.5l19 50v-306l-47 38h169z" />
    <glyph glyph-name="C" unicode="C" horiz-adv-x="594" 
d="M320 -14c-50 0 -94.002 11.6689 -132.002 35.002s-68 61 -90 113s-33 121.333 -33 208c0 76 6.83301 138.167 20.5 186.5s32.667 85.833 57 112.5s53 45 86 55s68.833 15 107.5 15c16 0 35.5 -0.833008 58.5 -2.5s45.667 -4 68 -7s39.5 -6.16699 51.5 -9.5l-12 -88
l-31.5 3c-14.333 1.33301 -30 2.66602 -47 3.99902s-33 2.5 -48 3.5s-26.5 1.5 -34.5 1.5c-31.333 0 -56.166 -1.5 -74.499 -4.5s-31.833 -9.5 -40.5 -19.5c-8.66699 -9.33301 -16.834 -23.666 -24.501 -42.999s-13.667 -45.833 -18 -79.5s-6.5 -77.167 -6.5 -130.5
c0 -67.333 6.33301 -120.833 19 -160.5s25.334 -65.5 38.001 -77.5c8.66699 -8 19.334 -13.833 32.001 -17.5s27.667 -5.5 45 -5.5c24 0 47.833 2.66699 71.5 8s45 11.666 64 18.999s34.167 13.666 45.5 18.999l17 8l34 -82l-16 -9.5
c-10.667 -6.33301 -25.834 -13.833 -45.501 -22.5s-43.167 -16.167 -70.5 -22.5s-57.666 -9.5 -90.999 -9.5z" />
    <glyph glyph-name="D" unicode="D" horiz-adv-x="644" 
d="M308 -14c-16.667 0 -35.666 0.498047 -56.999 1.49805s-42.5 2.33301 -63.5 4s-39.667 3.33398 -56 5.00098s-27.5 2.83398 -33.5 3.50098v698c5.33301 0 15.833 0.666992 31.5 2s34.5 2.83301 56.5 4.5s44.833 3.16699 68.5 4.5s45.167 2 64.5 2c54 0 98 -9.5 132 -28.5
s60.167 -44.833 78.5 -77.5s31 -70.334 38 -113.001s10.5 -87.667 10.5 -135c0 -92 -11.5 -165.167 -34.5 -219.5s-54.833 -93.166 -95.5 -116.499s-87.334 -35 -140.001 -35zM303.001 77.998c32 0 56 2.33203 72 6.99902s28 10.667 36 18
c9.33301 8.66699 17.833 22.334 25.5 41.001s14 45.667 19 81s7.5 81.333 7.5 138c0 58 -3.83301 108.5 -11.5 151.5s-20.167 71.5 -37.5 85.5c-6.66699 5.33301 -16.667 9.83301 -30 13.5s-34.333 5.5 -63 5.5s-54 -1 -76 -3s-41 -4 -57 -6l16 50v-621l-19 50
c18 -2 35.833 -4.33301 53.5 -7s39.167 -4 64.5 -4z" />
    <glyph glyph-name="E" unicode="E" horiz-adv-x="525" 
d="M98 0v697h366v-92l-307 4l49 47l-8 -296l-46 39h287v-89h-287l46 41l8 -309l-49 48l307 2v-92h-366z" />
    <glyph glyph-name="F" unicode="F" horiz-adv-x="511" 
d="M98 0v697h366v-92l-309 4l49 47l-5 -276l-47 17l280 1v-89h-280l47 18l5 -327h-106z" />
    <glyph glyph-name="G" unicode="G" horiz-adv-x="625" 
d="M336 -13c-36 0 -70.335 4.83496 -103.002 14.502s-61.667 27.5 -87 53.5s-45.166 63 -59.499 111s-21.5 109.667 -21.5 185c0 74.667 6.83301 135.5 20.5 182.5s33.167 83.333 58.5 109s55.5 43.334 90.5 53.001s73.833 14.5 116.5 14.5c22 0 44.667 -0.833008 68 -2.5
s45.5 -4.16699 66.5 -7.5s37.5 -6.33301 49.5 -9l-12 -89l-71.5 8.5c-30.333 3.66699 -65.833 5.5 -106.5 5.5c-32.667 0 -58.5 -1.83301 -77.5 -5.5s-33.167 -10.167 -42.5 -19.5c-12 -11.333 -23 -35.833 -33 -73.5s-15 -92.834 -15 -165.501
c0 -55.333 3 -99.833 9 -133.5s13 -58.834 21 -75.501s14.667 -28.334 20 -35.001c7.33301 -7.33301 19.666 -14 36.999 -20s43.333 -9 78 -9c20.667 0 39 1 55 3s29 5 39 9v246l48 -51l-153 9v77h207v-344l-26 -10c-17.333 -6.66699 -41.166 -13.5 -71.499 -20.5
s-65.166 -10.5 -104.499 -10.5z" />
    <glyph glyph-name="H" unicode="H" horiz-adv-x="677" 
d="M98 0v697h106l-3 -331l-47 35h369l-47 -35l-3 331h106v-697h-106l3 343l47 -34h-369l47 34l3 -343h-106z" />
    <glyph glyph-name="I" unicode="I" horiz-adv-x="304" 
d="M98 -1l4 321l-4 377h107l-3 -308l3 -389z" />
    <glyph glyph-name="J" unicode="J" horiz-adv-x="330" 
d="M62 -13c-11.333 0 -22 0.668945 -32 2.00195s-18.833 2.66602 -26.5 3.99902s-12.834 2.33301 -15.501 3l12 90c6.66699 -0.666992 17.167 -2.16699 31.5 -4.5s28.5 -3.5 42.5 -3.5c12.667 0 23.334 3 32.001 9s15.167 19.833 19.5 41.5s6.5 55.5 6.5 101.5v467h106v-458
c0 -62.667 -7.66699 -112.334 -23 -149.001s-36.333 -63 -63 -79s-56.667 -24 -90 -24z" />
    <glyph glyph-name="K" unicode="K" horiz-adv-x="603" 
d="M484 0l-277 361l257 336h128l-265 -330v-6l291 -361h-134zM98 0l3 355l-3 342h107v-697h-107z" />
    <glyph glyph-name="L" unicode="L" horiz-adv-x="463" 
d="M98 0v697h106l-5 -655l-47 51l304 2v-95h-358z" />
    <glyph glyph-name="M" unicode="M" horiz-adv-x="823" 
d="M92 0l25 697h146l145 -437h6l147 437h145l24 -697h-105l-5 586h-6l-142 -428h-122l-141 428h-7l-4 -586h-106z" />
    <glyph glyph-name="N" unicode="N" horiz-adv-x="691" 
d="M98 0v697h140l263 -570h4l-14 570h102v-697h-139l-263 570h-4l13 -570h-102z" />
    <glyph glyph-name="O" unicode="O" horiz-adv-x="669" 
d="M335 -14c-36.667 0 -71.334 5.33301 -104.001 16s-61.5 29.334 -86.5 56.001s-44.5 63.667 -58.5 111s-21 107.666 -21 180.999c0 74 7 134.333 21 181s33.5 83.167 58.5 109.5s53.833 44.666 86.5 54.999s67.334 15.5 104.001 15.5s71.167 -5.16699 103.5 -15.5
s61 -28.666 86 -54.999s44.5 -62.833 58.5 -109.5s21 -107 21 -181c0 -73.333 -7 -133.666 -21 -180.999s-33.5 -84.333 -58.5 -111s-53.667 -45.334 -86 -56.001s-66.833 -16 -103.5 -16zM335 81c27.333 0 50.834 3 70.501 9s36 18.167 49 36.5s22.667 45.166 29 80.499
s9.5 82.333 9.5 141c0 58 -3 104.833 -9 140.5s-15.333 62.667 -28 81s-29.167 30.666 -49.5 36.999s-44.166 9.5 -71.499 9.5c-28.667 0 -52.834 -3.16699 -72.501 -9.5s-35.834 -18.666 -48.501 -36.999s-22 -45.333 -28 -81s-9 -82.5 -9 -140.5
c0 -58.667 3 -105.667 9 -141s15.5 -62.166 28.5 -80.499s29.5 -30.5 49.5 -36.5s43.667 -9 71 -9z" />
    <glyph glyph-name="P" unicode="P" horiz-adv-x="593" 
d="M98 0l3.99805 323.999l-4 373l22.5 2l59 5c24.333 2 50.666 3.66699 78.999 5s55.833 2 82.5 2c63.333 0 112.5 -19.833 147.5 -59.5s52.5 -99.167 52.5 -178.5c0 -49.333 -6.16699 -90.166 -18.5 -122.499s-29.166 -57.5 -50.499 -75.5s-45.166 -30.833 -71.499 -38.5
s-53.166 -11.5 -80.499 -11.5c-22 0 -44.667 0.833008 -68 2.5s-39.333 2.5 -48 2.5v-230h-106zM324.998 312.999c20 0 36.1689 1.16504 48.502 3.49805s22.166 6.83301 29.499 13.5c10 10.667 16.833 28.5 20.5 53.5s5.5 58.167 5.5 99.5c0 33.333 -1.5 58.833 -4.5 76.5
s-6.83301 30.334 -11.5 38.001s-9.33398 12.834 -14.001 15.501c-6 4.66699 -15.833 8.5 -29.5 11.5s-30.5 4.5 -50.5 4.5c-22.667 0 -44.334 -1 -65.001 -3s-37.334 -4 -50.001 -6v-297c6.66699 -0.666992 21.834 -2.5 45.501 -5.5s48.834 -4.5 75.501 -4.5z" />
    <glyph glyph-name="Q" unicode="Q" horiz-adv-x="681" 
d="M606 -93l-230.002 109.999l71 -11c-17.333 -6.66699 -35.666 -11.5 -54.999 -14.5s-39 -4.5 -59 -4.5c-36.667 0 -71.167 5.33301 -103.5 16s-60.833 29.334 -85.5 56.001s-44 63.5 -58 110.5s-21 107.167 -21 180.5s7 133.333 21 180s33.5 83.167 58.5 109.5
s53.833 44.666 86.5 54.999s67.334 15.5 104.001 15.5s71.167 -5.16699 103.5 -15.5s61 -28.666 86 -54.999s44.5 -62.833 58.5 -109.5s21 -106.667 21 -180c0 -59.333 -4.83301 -109.5 -14.5 -150.5s-23.167 -75 -40.5 -102s-37.333 -48.833 -60 -65.5l18 62l-1 -68l-2 16
l138 -42zM334.998 81.999c27.333 0 50.834 3 70.501 9s36 18 49 36s22.667 44.667 29 80s9.5 82.333 9.5 141c0 57.333 -3.16699 103.833 -9.5 139.5s-15.666 62.834 -27.999 81.501s-28.5 31.167 -48.5 37.5s-44 9.5 -72 9.5c-28.667 0 -52.834 -3.16699 -72.501 -9.5
s-35.834 -18.833 -48.501 -37.5s-22 -45.834 -28 -81.501s-9 -82.167 -9 -139.5c0 -58.667 3 -105.667 9 -141s15.5 -62 28.5 -80s29.5 -30 49.5 -36s43.667 -9 71 -9z" />
    <glyph glyph-name="R" unicode="R" horiz-adv-x="653" 
d="M98 0l5 328.001l-3 369c6 1.33301 17.833 2.66602 35.5 3.99902s38 2.66602 61 3.99902s46.667 2.5 71 3.5s46.5 1.5 66.5 1.5c48 0 89.667 -7.16699 125 -21.5s62.5 -37.666 81.5 -69.999s28.5 -75.5 28.5 -129.5c0 -57.333 -12.5 -103 -37.5 -137
s-61.167 -57.333 -108.5 -70v-4l156 -278h-122l-135 268l-117 4v-272h-107zM342 355.001c46.667 0 77.666 10.833 92.999 32.5s23 55.5 23 101.5c0 38.667 -3.16699 67.834 -9.5 87.501s-14.833 32.5 -25.5 38.5c-6.66699 4 -17.167 7.16699 -31.5 9.5
s-30.166 3.5 -47.499 3.5c-27.333 0 -53.333 -1 -78 -3s-44.667 -4 -60 -6l-2 -255c22.667 -2.66699 46 -4.83398 70 -6.50098s46.667 -2.5 68 -2.5z" />
    <glyph glyph-name="S" unicode="S" horiz-adv-x="529" 
d="M256 -14c-28.667 0 -56.3311 3.16699 -82.998 9.5s-50.334 13.833 -71.001 22.5s-37 16.167 -49 22.5l-18 9.5l5 13l11.5 29.5l11.5 29l5 12.5l17.5 -8c11.667 -5.33301 27.5 -11.5 47.5 -18.5s42.333 -13.167 67 -18.5s50 -8 76 -8c15.333 0 27.5 1.33301 36.5 4
s15.5 5.33398 19.5 8.00098c11.333 8 20.166 19.167 26.499 33.5s9.5 33.5 9.5 57.5c0 22.667 -5.66699 41.667 -17 57s-26.333 28.333 -45 39s-39 21 -61 31c-25.333 10.667 -49.333 21.667 -72 33s-42.834 24.333 -60.501 39s-31.667 33.334 -42 56.001
s-15.5 50.667 -15.5 84c0 35.333 8.16699 67.166 24.5 95.499s40.666 50.833 72.999 67.5s72.833 25 121.5 25c22.667 0 44.334 -1.33301 65.001 -4s39.5 -5.5 56.5 -8.5s30.333 -5.83301 40 -8.5l14.5 -4l-17 -88l-15.5 2.5l-42 7c-17.667 3 -37 5.33301 -58 7
s-41.833 2.5 -62.5 2.5c-15.333 0 -27.5 -1 -36.5 -3s-16.833 -5 -23.5 -9c-7.33301 -4 -14.333 -12.167 -21 -24.5s-10 -29.5 -10 -51.5c0 -23.333 6.33301 -42.5 19 -57.5s29.334 -27.667 50.001 -38s42.667 -20.5 66 -30.5c20.667 -8.66699 41.5 -18.334 62.5 -29.001
s40.167 -23.667 57.5 -39s31.333 -34.333 42 -57s16 -50.667 16 -84c0 -42 -9.33301 -78.5 -28 -109.5s-44.5 -55.167 -77.5 -72.5s-71.5 -26 -115.5 -26z" />
    <glyph glyph-name="T" unicode="T" horiz-adv-x="487" 
d="M190 0l2 608l-195 -3v92h493v-92l-197 3l3 -608h-106z" />
    <glyph glyph-name="U" unicode="U" horiz-adv-x="673" 
d="M336 -14c-50.667 0 -93.668 9.33203 -129.001 27.999s-62.333 51 -81 97s-28 110.333 -28 193v393h106v-366c0 -56 2 -100.5 6 -133.5s10.833 -58 20.5 -75s23 -28.167 40 -33.5s38.833 -8 65.5 -8c27.333 0 49.666 2.83301 66.999 8.5s30.833 16.667 40.5 33
s16.334 41.333 20.001 75s5.5 78.167 5.5 133.5v366h106v-384c0 -85.333 -9.33301 -151.666 -28 -198.999s-45.667 -80.5 -81 -99.5s-78.666 -28.5 -129.999 -28.5z" />
    <glyph glyph-name="V" unicode="V" horiz-adv-x="534" 
d="M195 0l-190 697h111l148 -602h6l148 602h111l-190 -697h-144z" />
    <glyph glyph-name="W" unicode="W" horiz-adv-x="775" 
d="M139 0l-120 697h108l83 -597h7l101 433h139l101 -433h7l83 597h108l-119 -697h-144l-102 437h-6l-103 -437h-143z" />
    <glyph glyph-name="X" unicode="X" horiz-adv-x="562" 
d="M10 0l225 397l6 -71l-219 371h117l168 -313l-80 41h101l-75 -40l169 312h116l-220 -371l4 64l230 -390h-122l-175 329l64 -42h-89l68 42l-166 -329h-122z" />
    <glyph glyph-name="Y" unicode="Y" horiz-adv-x="528" 
d="M210 0l3 257l-203 440h114l137 -340h6l136 340h114l-203 -440l3 -257h-107z" />
    <glyph glyph-name="Z" unicode="Z" horiz-adv-x="544" 
d="M26 0v88l347 515v7l-327 -5v92h451v-86l-343 -515v-8l354 4v-92h-482z" />
    <glyph glyph-name="bracketleft" unicode="[" horiz-adv-x="320" 
d="M99 -124v909h186v-82l-91 3v-751l91 3v-82h-186z" />
    <glyph glyph-name="backslash" unicode="\" horiz-adv-x="450" 
d="M346 -98l-156 384l-175 411h107l149 -374l180 -421h-105z" />
    <glyph glyph-name="bracketright" unicode="]" horiz-adv-x="320" 
d="M34 -124v82l92 -3v751l-92 -3v82h187v-909h-187z" />
    <glyph glyph-name="asciicircum" unicode="^" horiz-adv-x="512" 
d="M147 315l-96 10l148 373h114l148 -373l-96 -10l-105 299h-7z" />
    <glyph glyph-name="underscore" unicode="_" horiz-adv-x="546" 
d="M12 -163v79h522v-79h-522z" />
    <glyph glyph-name="grave" unicode="`" horiz-adv-x="247" 
d="M227 652l-227 64l29 80l218 -84z" />
    <glyph glyph-name="a" unicode="a" horiz-adv-x="585" 
d="M214 -13c-30.667 0 -58.1699 7.33301 -82.5029 22s-43.5 36 -57.5 64s-21 61.667 -21 101c0 48 10 85.5 30 112.5s48.167 46.333 84.5 58s78.833 17.5 127.5 17.5h96c0 32 -1 58.5 -3 79.5s-6.66699 36.5 -14 46.5c-5.33301 8 -13.333 13.5 -24 16.5s-23.667 4.5 -39 4.5
c-25.333 0 -50.666 -2.33301 -75.999 -7s-48.5 -10.167 -69.5 -16.5s-37.667 -11.833 -50 -16.5l-18.5 -7l-30 79l19.5 8.5c13 5.66699 30.5 12.167 52.5 19.5s46.667 13.833 74 19.5s56 8.5 86 8.5c48.667 0 87.334 -8.83301 116.001 -26.5s49.334 -42.5 62.001 -74.5
s19 -70 19 -114v-382h-67l-15 62h-6c-4.66699 -3.33301 -13 -9 -25 -17s-26.667 -16.5 -44 -25.5s-36.5 -16.667 -57.5 -23s-43.5 -9.5 -67.5 -9.5zM237.997 76c22 0 43.499 3.5 64.499 10.5s39.5 14.5 55.5 22.5s27 13.667 33 17v147c-6 1.33301 -17.5 2.83301 -34.5 4.5
s-38.833 2.5 -65.5 2.5c-56.667 0 -92 -6 -106 -18c-7.33301 -6 -13.166 -16.333 -17.499 -31s-6.5 -33 -6.5 -55c0 -34.667 6 -60 18 -76s31.667 -24 59 -24z" />
    <glyph glyph-name="b" unicode="b" horiz-adv-x="590" 
d="M315 -13c-19.333 0 -43.001 1.83301 -71.001 5.5s-56.167 8.66699 -84.5 15s-53.166 12.833 -74.499 19.5v728h105v-178c8 2 19.667 4.5 35 7.5s32.666 5.83301 51.999 8.5s38.333 4 57 4c61.333 0 108.833 -23.333 142.5 -70s50.5 -122 50.5 -226
c0 -64 -6 -116.5 -18 -157.5s-28.167 -72.833 -48.5 -95.5s-43.166 -38.5 -68.499 -47.5s-51 -13.5 -77 -13.5zM311.999 77c16.667 0 30.002 0.999023 40.002 2.99902s18 5.66699 24 11c6 6 12.333 16 19 30s12.334 36.5 17.001 67.5s7 74.167 7 129.5
c0 54 -2.5 94.5 -7.5 121.5s-12.5 44.167 -22.5 51.5c-12 10.667 -34.333 16 -67 16c-32 0 -59.833 -3 -83.5 -9s-39.834 -10.667 -48.501 -14v-393c5.33301 -1.33301 13.666 -3.16602 24.999 -5.49902s25.166 -4.33301 41.499 -6s34.833 -2.5 55.5 -2.5z" />
    <glyph glyph-name="c" unicode="c" horiz-adv-x="526" 
d="M304 -13c-47.333 0 -89.1689 10.335 -125.502 31.002s-64.666 53.667 -84.999 99s-30.5 104.333 -30.5 177c0 60 6.83301 109.667 20.5 149s32.5 70.166 56.5 92.499s52.167 38.166 84.5 47.499s66.5 14 102.5 14c28.667 0 56.834 -2 84.501 -6s49.5 -8 65.5 -12l-12 -84
l-65 8.5c-28.667 3.66699 -58 5.5 -88 5.5c-25.333 0 -45.666 -2.16699 -60.999 -6.5s-27.333 -10.5 -36 -18.5c-12.667 -13.333 -23 -37 -31 -71s-12 -75 -12 -123c0 -44.667 3.33301 -80.667 10 -108s14.667 -48 24 -62s17.666 -24 24.999 -30
c4.66699 -3.33301 11.5 -6.83301 20.5 -10.5s21.5 -5.5 37.5 -5.5c18 0 37 2.5 57 7.5s38.667 10.5 56 16.5s31.333 11.333 42 16l16 7l31 -79l-23 -13.5c-15.333 -9 -37 -18.167 -65 -27.5s-61 -14 -99 -14z" />
    <glyph glyph-name="d" unicode="d" horiz-adv-x="595" 
d="M253 -13c-36.667 0 -69.166 10.5 -97.499 31.5s-50.833 53.333 -67.5 97s-25 99.5 -25 167.5c0 64 6.33301 116.5 19 157.5s29.5 72.833 50.5 95.5s44.167 38.5 69.5 47.5s51 13.5 77 13.5c21.333 0 40.5 -1.33301 57.5 -4s31.5 -5.5 43.5 -8.5s20.333 -5.83301 25 -8.5
v179h105v-755h-69l-12 59h-5l-40 -28c-16.667 -11.333 -35.834 -21.5 -57.501 -30.5s-46.167 -13.5 -73.5 -13.5zM265.001 77c12.667 0 25.9971 1.83496 39.9971 5.50195s27.667 8.16699 41 13.5s25.333 10.666 36 15.999s18.334 9.33301 23.001 12v358
c-5.33301 2.66699 -14.666 6 -27.999 10s-28.833 7.5 -46.5 10.5s-36.167 4.5 -55.5 4.5c-34 0 -57 -7.33301 -69 -22c-5.33301 -6.66699 -10.666 -17.5 -15.999 -32.5s-9.66602 -36.333 -12.999 -64s-5 -64.167 -5 -109.5c0 -50.667 2.33301 -89.167 7 -115.5
s10.334 -44.5 17.001 -54.5s12 -16.667 16 -20c5.33301 -4.66699 12.666 -7.83398 21.999 -9.50098s19.666 -2.5 30.999 -2.5z" />
    <glyph glyph-name="e" unicode="e" horiz-adv-x="583" 
d="M309 -14c-48 0 -90.499 9.83496 -127.499 29.502s-65.667 52.167 -86 97.5s-30.5 105.333 -30.5 180c0 78 10.833 139.167 32.5 183.5s50.667 75.666 87 93.999s77.166 27.5 122.499 27.5c46 0 85 -8.83301 117 -26.5s56.5 -46.667 73.5 -87s25.5 -94.5 25.5 -162.5v-69
h-396l48 17c-2 -38 -1 -68.833 3 -92.5s9.5 -41.834 16.5 -54.501s13.5 -21.667 19.5 -27c8 -7.33301 18.333 -13 31 -17s28 -6 46 -6c19.333 0 38.833 1.66699 58.5 5s38.167 7.33301 55.5 12s32.833 9.16699 46.5 13.5s24.167 7.5 31.5 9.5l26 -81
c-6 -2.66699 -18.5 -7.66699 -37.5 -15s-42.333 -14.333 -70 -21s-58.5 -10 -92.5 -10zM175.001 301.002l-48.001 31.001l337 7l-48 -33c0.666992 42.667 -0.166016 79 -2.49902 109s-8.5 52.667 -18.5 68c-4.66699 6.66699 -12.5 13 -23.5 19s-30.833 9 -59.5 9
c-31.333 0 -55 -3.33301 -71 -10s-28 -15.334 -36 -26.001c-22.667 -28.667 -32.667 -86.667 -30 -174z" />
    <glyph glyph-name="f" unicode="f" horiz-adv-x="351" 
d="M109 0l0.000976562 472h-66v65l67 13c1.33301 54 9.83301 96.833 25.5 128.5s37.167 54.5 64.5 68.5s59 21 95 21c8 0 17.167 -0.166992 27.5 -0.5s19.333 -0.666016 27 -0.999023l11.5 -0.5l-7 -86l-13.5 0.5c-9 0.333008 -19.333 0.666016 -31 0.999023
s-21.5 0.5 -29.5 0.5c-16.667 0 -29.834 -3 -39.501 -9s-16.5 -18.167 -20.5 -36.5s-6.33301 -46.833 -7 -85.5h129v-82h-128v-469h-105z" />
    <glyph glyph-name="g" unicode="g" horiz-adv-x="534" 
d="M260 -179c-28 0 -54.332 1.5 -78.999 4.5s-46.5 6.5 -65.5 10.5s-34 7.33301 -45 10l-16.5 4l12 88c40.667 -6.66699 81.834 -12.667 123.501 -18s81.834 -8 120.501 -8c32.667 0 54.667 2.5 66 7.5s17 12.833 17 23.5c0 5.33301 -1.66699 10.5 -5 15.5
s-9.5 10.333 -18.5 16s-22.833 12.667 -41.5 21s-43.667 18.5 -75 30.5c-35.333 14 -60.833 24.333 -76.5 31s-25.5 11.167 -29.5 13.5s-6 4.83301 -6 7.5c0 2 1.83301 7.83301 5.5 17.5l13 33l15 36.5l11.5 28c-44 10.667 -79.333 32.667 -106 66s-40 74.666 -40 123.999
c0 54.667 11.333 97.5 34 128.5s52.5 53 89.5 66s77.167 19.5 120.5 19.5c13.333 0 29.666 -0.333008 48.999 -1s39.166 -1.66699 59.499 -3s39.166 -2.66602 56.499 -3.99902s31.5 -2.33301 42.5 -3l16.5 -1v-64l-65 -10l8 -19.5c5.33301 -13 10.5 -29.5 15.5 -49.5
s7.5 -39.667 7.5 -59c0 -38 -8.83301 -72 -26.5 -102s-43.167 -53.667 -76.5 -71s-73.333 -26 -120 -26c-2 -7.33301 -4 -17 -6 -29s-3 -19 -3 -21s2.83301 -4.16699 8.5 -6.5l29 -11.5c13.667 -5.33301 32.5 -13.333 56.5 -24c40 -16 71 -31.667 93 -47
s37.5 -30.5 46.5 -45.5s13.5 -30.5 13.5 -46.5c0 -28 -9.83301 -51.833 -29.5 -71.5s-46.5 -34.667 -80.5 -45s-73.667 -15.5 -119 -15.5zM257.001 268c29.333 0 52.667 3.50098 70 10.501s29.833 19.333 37.5 37s11.5 42.5 11.5 74.5c0 33.333 -2 60.333 -6 81
s-8 32.334 -12 35.001c-1.33301 1.33301 -6.5 2.5 -15.5 3.5s-18.833 1.66699 -29.5 2s-20.334 0.666016 -29.001 0.999023s-14 0.5 -16 0.5c-30.667 0 -55.5 -3.16699 -74.5 -9.5s-32.667 -18.333 -41 -36s-12.5 -44.167 -12.5 -79.5
c0 -46.667 8.83301 -78.334 26.5 -95.001s47.834 -25 90.501 -25z" />
    <glyph glyph-name="h" unicode="h" horiz-adv-x="597" 
d="M82 0l0.000976562 755h104v-248l-21 31l57 24c22.667 9.33301 46.5 17.5 71.5 24.5s48.5 10.5 70.5 10.5c39.333 0 70 -8.5 92 -25.5s37.5 -41 46.5 -72s13.5 -68.833 13.5 -113.5v-386h-105v358c0 34 -1.33301 60.667 -4 80s-7.66699 34 -15 44
c-5.33301 8 -12.5 13.333 -21.5 16s-19.833 4 -32.5 4c-14 0 -29.5 -2 -46.5 -6s-33.833 -8.66699 -50.5 -14s-31.334 -10.5 -44.001 -15.5s-21 -8.83301 -25 -11.5l15 22l-1 -477h-104z" />
    <glyph glyph-name="i" unicode="i" horiz-adv-x="300" 
d="M98 0v584h104v-584h-104zM90 677v92h120v-92h-120z" />
    <glyph glyph-name="j" unicode="j" horiz-adv-x="319" 
d="M51 -180c-10 0 -20.833 0.667969 -32.5 2.00098s-21.5 2.5 -29.5 3.5l-12 1.5l11 89l10 -1l26 -2.5c10.667 -1 21 -1.5 31 -1.5c16.667 0 29.167 3 37.5 9s14.166 19.167 17.499 39.5s5 52.5 5 96.5v528h104v-526c0 -60 -7.66699 -107.333 -23 -142
s-35.666 -59.334 -60.999 -74.001s-53.333 -22 -84 -22zM108 677.001v92h121v-92h-121z" />
    <glyph glyph-name="k" unicode="k" horiz-adv-x="545" 
d="M428 0l-239 314l221 270h131l-237 -264v-5l257 -315h-133zM85 0l5 321l-5 434h105v-755h-105z" />
    <glyph glyph-name="l" unicode="l" horiz-adv-x="297" 
d="M96 0v755h105v-755h-105z" />
    <glyph glyph-name="m" unicode="m" horiz-adv-x="929" 
d="M94 0l0.00488281 583.997h69l12 -58h5c7.33301 4.66699 18.166 11 32.499 19s30.666 16 48.999 24s37.666 14.667 57.999 20s40.5 8 60.5 8c30 0 55.5 -6.66699 76.5 -20s36.167 -31.666 45.5 -54.999c27.333 17.333 58 34.166 92 50.499s70.667 24.5 110 24.5
c37.333 0 66.333 -8.83301 87 -26.5s35.167 -42.5 43.5 -74.5s12.5 -69.333 12.5 -112v-384h-105v356c0 30 -0.666992 55.667 -2 77s-5.66602 37.333 -12.999 48c-5.33301 8.66699 -13.166 14.334 -23.499 17.001s-19.5 4 -27.5 4c-15.333 0 -31.333 -2.16699 -48 -6.5
s-32.334 -9.66602 -47.001 -15.999s-27.334 -12.333 -38.001 -18s-18.334 -9.83398 -23.001 -12.501c1.33301 -10 2.16602 -20.5 2.49902 -31.5s0.5 -22.5 0.5 -34.5v-383h-104v358c0 34.667 -0.833008 61.334 -2.5 80.001s-6.16699 33.334 -13.5 44.001
c-6 8 -13.667 13.333 -23 16s-18.333 4 -27 4c-19.333 0 -39 -3.16699 -59 -9.5s-38.333 -13.333 -55 -21l-40 -18.5v-453h-105z" />
    <glyph glyph-name="n" unicode="n" horiz-adv-x="610" 
d="M94 0l-0.000976562 584.002h69l12 -58h5l34.5 19c14.333 8 31 16 50 24s39.167 14.667 60.5 20s43 8 65 8c38 0 67 -9.16699 87 -27.5s33.667 -43.5 41 -75.5s11 -68 11 -108v-386h-105v357c0 36 -0.666992 63.333 -2 82s-5.33301 33 -12 43
c-5.33301 7.33301 -12.5 12.333 -21.5 15s-18.833 4 -29.5 4c-20.667 0 -42 -3.33301 -64 -10s-41.667 -13.834 -59 -21.501s-29.666 -13.834 -36.999 -18.501v-451h-105z" />
    <glyph glyph-name="o" unicode="o" horiz-adv-x="587" 
d="M294 -13c-58 0 -103.833 12.333 -137.5 37s-57.667 59.834 -72 105.501s-21.5 99.834 -21.5 162.501s7.16699 116.834 21.5 162.501s38.333 80.834 72 105.501s79.5 37 137.5 37s103.667 -12.333 137 -37s57 -59.834 71 -105.501s21 -99.834 21 -162.501
s-7 -116.834 -21 -162.501s-37.667 -80.834 -71 -105.501s-79 -37 -137 -37zM294 73c23.333 0 42.8311 2.83301 58.498 8.5s28.334 16.167 38.001 31.5s16.334 37.5 20.001 66.5s5.5 66.5 5.5 112.5s-2 83.5 -6 112.5s-10.667 51.167 -20 66.5s-21.833 25.833 -37.5 31.5
s-35.167 8.5 -58.5 8.5c-24 0 -43.833 -2.83301 -59.5 -8.5s-28.334 -16.167 -38.001 -31.5s-16.5 -37.5 -20.5 -66.5s-6 -66.5 -6 -112.5s2 -83.5 6 -112.5s10.833 -51.167 20.5 -66.5s22.334 -25.833 38.001 -31.5s35.5 -8.5 59.5 -8.5z" />
    <glyph glyph-name="p" unicode="p" horiz-adv-x="593" 
d="M82 -166l-0.000976562 749.999h69l13 -59h5c13.333 9.33301 28.666 19.5 45.999 30.5s37 20.667 59 29s46 12.5 72 12.5c36.667 0 68.834 -10.167 96.501 -30.5s49.167 -52.166 64.5 -95.499s23 -99.333 23 -168c0 -64.667 -6.5 -117.667 -19.5 -159
s-30.167 -73.5 -51.5 -96.5s-45.166 -39 -71.499 -48s-52.833 -13.5 -79.5 -13.5c-16 0 -32.333 0.833008 -49 2.5s-31.5 3.5 -44.5 5.5s-22.5 3.33301 -28.5 4v-164h-104zM318.999 75.999c10 0 20.167 0.836914 30.5 2.50391s19.5 5.83398 27.5 12.501
c8.66699 7.33301 16.167 18.666 22.5 33.999s11.5 38.166 15.5 68.499s6 70.833 6 121.5c0 39.333 -1.16699 70.666 -3.5 93.999s-5.33301 41.166 -9 53.499s-8.16699 21.166 -13.5 26.499c-4 4 -10 8 -18 12s-20 6 -36 6c-20 0 -40.833 -3.5 -62.5 -10.5
s-41 -14.5 -58 -22.5s-28.5 -14 -34.5 -18v-361c10 -2.66699 27.833 -6.5 53.5 -11.5s52.167 -7.5 79.5 -7.5z" />
    <glyph glyph-name="q" unicode="q" horiz-adv-x="591" 
d="M401 -166l-0.000976562 183.001l-31.5 -12.5c-13 -5 -28.167 -9.16699 -45.5 -12.5s-37 -5 -59 -5c-25.333 0 -49.833 4.66699 -73.5 14s-45.167 25.5 -64.5 48.5s-34.833 55.167 -46.5 96.5s-17.5 93.666 -17.5 156.999c0 74 8.5 132.333 25.5 175
s42.167 73.167 75.5 91.5s74 27.5 122 27.5c25.333 0 50.833 -1.66699 76.5 -5s49.334 -7.5 71.001 -12.5l52.5 -12.5l20 -5v-728h-105zM262.999 77.001c36 0 65.668 3.5 89.001 10.5s39.666 12.5 48.999 16.5v387c-4.66699 1.33301 -12.334 3.33301 -23.001 6
s-24.667 5 -42 7s-37.666 3 -60.999 3c-22 0 -38 -1.5 -48 -4.5s-18.333 -8.16699 -25 -15.5c-9.33301 -10 -16.666 -28.667 -21.999 -56s-8 -70.333 -8 -129c0 -62.667 3.16699 -110.167 9.5 -142.5s15.166 -54.5 26.499 -66.5c6 -6 13 -10.167 21 -12.5
s19.333 -3.5 34 -3.5z" />
    <glyph glyph-name="r" unicode="r" horiz-adv-x="406" 
d="M94 0v584h66l14 -60h6l15 11c10 7.33301 23.333 15.833 40 25.5s34.5 18.167 53.5 25.5s36.833 11 53.5 11c14 0 25.5 -1.16699 34.5 -3.5l13.5 -3.5l-8 -96l-14.5 1c-9.66699 0.666992 -19.167 1 -28.5 1c-18 0 -36 -2.33301 -54 -7s-34.5 -10.667 -49.5 -18
s-27.167 -14.333 -36.5 -21v-450h-105z" />
    <glyph glyph-name="s" unicode="s" horiz-adv-x="506" 
d="M256 -13c-26.667 0 -52.168 2.66699 -76.501 8s-46.166 11.333 -65.499 18s-34.666 12.5 -45.999 17.5l-17 7.5l26 86l17 -7c11.333 -4.66699 26.333 -10.334 45 -17.001s39.5 -12.5 62.5 -17.5s45.5 -7.5 67.5 -7.5c12.667 0 24.167 1.16699 34.5 3.5
s18.166 5.83301 23.499 10.5c6.66699 6 12.667 14.833 18 26.5s8 25.167 8 40.5c0 24.667 -6.33301 43.5 -19 56.5s-29.167 23.167 -49.5 30.5s-42.166 14.333 -65.499 21c-20 6 -39.833 12.333 -59.5 19s-37.5 16 -53.5 28s-28.833 27.667 -38.5 47
s-14.5 44.666 -14.5 75.999c0 48.667 15.5 88 46.5 118s82.167 45 153.5 45c25.333 0 49.5 -1.66699 72.5 -5s43.5 -7.16602 61.5 -11.499s31.667 -7.83301 41 -10.5l-16 -85l-15.5 3.5c-10.333 2.33301 -23.833 5.16602 -40.5 8.49902s-35.167 6.16602 -55.5 8.49902
s-40.833 3.5 -61.5 3.5c-19.333 0 -34.166 -1.16699 -44.499 -3.5s-18.166 -5.5 -23.499 -9.5c-4.66699 -3.33301 -8.83398 -9.33301 -12.501 -18s-5.5 -19 -5.5 -31c0 -24 7.16699 -42.167 21.5 -54.5s32.666 -22 54.999 -29l69.5 -21.5
c19.333 -6 38.166 -12.5 56.499 -19.5s35 -16.667 50 -29s27 -28.166 36 -47.499s13.5 -43.666 13.5 -72.999c0 -55.333 -17 -100.166 -51 -134.499s-83.333 -51.5 -148 -51.5z" />
    <glyph glyph-name="t" unicode="t" horiz-adv-x="375" 
d="M255 -14c-31.333 0 -58.168 5 -80.501 15s-39.5 29.333 -51.5 58s-18 70.667 -18 126v286h-67v66l71 14l22 136h79v-136h117v-82h-117v-289c0 -32.667 1.16699 -56.5 3.5 -71.5s7.33301 -24.333 15 -28s19.834 -5.5 36.501 -5.5c10.667 0 20.667 0.333008 30 1
s16.833 1.16699 22.5 1.5l8.5 0.5v-85l-20 -3.5c-13.333 -2.33301 -30.333 -3.5 -51 -3.5z" />
    <glyph glyph-name="u" unicode="u" horiz-adv-x="610" 
d="M233 -13c-32 0 -59.501 7.33398 -82.501 22.001s-40.333 37.5 -52 68.5s-17.5 71.167 -17.5 120.5v386h105v-360c0 -34 1 -61 3 -81s5.66699 -34 11 -42c4.66699 -6.66699 11.667 -11.334 21 -14.001s20 -4 32 -4c26.667 0 53.834 5.33301 81.501 16s53.167 22 76.5 34
v451h104v-584h-69l-12 58h-6l-49.5 -27.5c-20.333 -11 -42.833 -21 -67.5 -30s-50.667 -13.5 -78 -13.5z" />
    <glyph glyph-name="v" unicode="v" horiz-adv-x="495" 
d="M182 0l-170 584h111l122 -495h6l121 495h110l-169 -584h-131z" />
    <glyph glyph-name="w" unicode="w" horiz-adv-x="750" 
d="M138 0l-115 584h106l80 -504h5l91 426h142l92 -426h5l79 504h107l-116 -584h-144l-91 426h-6l-90 -426h-145z" />
    <glyph glyph-name="x" unicode="x" horiz-adv-x="518" 
d="M13 0l179 305l-174 279h114l121 -221h6l119 221h114l-175 -281l180 -303h-117l-124 241h-5l-121 -241h-117z" />
    <glyph glyph-name="y" unicode="y" horiz-adv-x="496" 
d="M117 -166l80 223l-189 527h110l126 -415h4l125 415h111l-199 -550l-58 -200h-110z" />
    <glyph glyph-name="z" unicode="z" horiz-adv-x="482" 
d="M27 0v78l293 420v5l-280 -6v87h404v-78l-292 -419v-7l298 6v-86h-423z" />
    <glyph glyph-name="braceleft" unicode="{" horiz-adv-x="431" 
d="M342 -124c-53.333 0 -95.167 16.1689 -125.5 48.502s-45.5 84.833 -45.5 157.5v107c0 28 -3.33301 49 -10 63s-18.667 24.167 -36 30.5s-42.666 11.833 -75.999 16.5v82c32 4.66699 56.833 10.167 74.5 16.5s30 16.833 37 31.5s10.5 35.667 10.5 63v97
c0 48 7 86.333 21 115s33.667 49.5 59 62.5s54.666 19.5 87.999 19.5c16.667 0 31.667 -0.666992 45 -2l20 -2l-5 -78l-13 0.5c-8.66699 0.333008 -18.334 0.833008 -29.001 1.5s-19 1 -25 1c-13.333 0 -24.166 -2.66699 -32.499 -8s-14.333 -16.5 -18 -33.5
s-5.5 -43.167 -5.5 -78.5v-96c0 -28.667 -3.5 -52.334 -10.5 -71.001s-15.5 -33.334 -25.5 -44.001s-20.167 -18.5 -30.5 -23.5s-18.833 -8.5 -25.5 -10.5v-6c6.66699 -2 15 -5.5 25 -10.5s20.167 -12.667 30.5 -23s19 -25 26 -44s10.5 -43.5 10.5 -73.5v-103
c0 -37.333 2 -65 6 -83s10.167 -29.833 18.5 -35.5s18.833 -8.5 31.5 -8.5l67 3l5 -79z" />
    <glyph glyph-name="bar" unicode="|" horiz-adv-x="280" 
d="M96 -85v844h88v-844h-88z" />
    <glyph glyph-name="braceright" unicode="}" horiz-adv-x="431" 
d="M89 -122l-61.9961 0.998047l6 79l66 -2c13.333 0 24 2.66699 32 8s14.167 17 18.5 35s6.5 45.667 6.5 83v103c0 30 3.33301 54.5 10 73.5s15.167 33.667 25.5 44s20.666 18 30.999 23s18.5 8.5 24.5 10.5v6c-6 2 -14.167 5.5 -24.5 10.5s-20.666 12.833 -30.999 23.5
s-18.833 25.334 -25.5 44.001s-10 42.334 -10 71.001v96c0 35.333 -2 61.5 -6 78.5s-10.167 28.167 -18.5 33.5s-18.833 8 -31.5 8c-6.66699 0 -15.334 -0.333008 -26.001 -1s-20.167 -1.16699 -28.5 -1.5l-12.5 -0.5l-6 78l20.5 2c13.667 1.33301 28.5 2 44.5 2
c34 0 63.5 -6.5 88.5 -19.5s44.5 -33.833 58.5 -62.5s21 -67 21 -115v-97c0 -27.333 3.66699 -48.333 11 -63s19.666 -25.167 36.999 -31.5s42 -11.833 74 -16.5v-82c-32.667 -4.66699 -57.834 -10.167 -75.501 -16.5s-29.834 -16.5 -36.501 -30.5s-10 -35 -10 -63v-107
c0 -72.667 -15 -125 -45 -157s-72 -47.667 -126 -47z" />
    <glyph glyph-name="asciitilde" unicode="~" horiz-adv-x="568" 
d="M406 207c-14 0 -31.668 3.66699 -53.001 11s-44.166 15.833 -68.499 25.5s-47.666 18.167 -69.999 25.5s-41.833 11 -58.5 11c-8.66699 0 -18.334 -2.33301 -29.001 -7s-20.5 -9.83398 -29.5 -15.501s-16.167 -10.5 -21.5 -14.5l-35 54c6.66699 8 16.167 17.667 28.5 29
s26.5 21.333 42.5 30s32.667 13 50 13c18.667 0 39.167 -3.5 61.5 -10.5s44.833 -15.333 67.5 -25s44.667 -18 66 -25s39.666 -10.5 54.999 -10.5c12 0 25.5 3.16699 40.5 9.5s27.833 12.5 38.5 18.5l32 -54c-6 -7.33301 -14.5 -16.166 -25.5 -26.499
s-24.167 -19.333 -39.5 -27s-32.666 -11.5 -51.999 -11.5z" />
    <glyph glyph-name="nbspace" unicode="&#xa0;" horiz-adv-x="245" 
 />
    <glyph glyph-name="exclamdown" unicode="&#xa1;" horiz-adv-x="275" 
d="M81 -113l15 504h86l15 -504h-116zM73 481v103h129v-103h-129z" />
    <glyph glyph-name="cent" unicode="&#xa2;" horiz-adv-x="526" 
d="M264 -117l-0.000976562 106.998c-60.667 8 -109.334 36 -146.001 84s-55 121.333 -55 220c0 68 8.83301 122.667 26.5 164s41.667 72.5 72 93.5s64.5 34.5 102.5 40.5v102h88v-97c24.667 -1.33301 47.834 -3.83301 69.501 -7.5s40.167 -7.16699 55.5 -10.5l-12 -84
l-65 8.5c-28.667 3.66699 -58.667 5.5 -90 5.5c-23.333 0 -42.833 -2.16699 -58.5 -6.5s-27.5 -10.5 -35.5 -18.5c-12 -12.667 -22.333 -36.167 -31 -70.5s-13 -76.166 -13 -125.499c0 -44 3.33301 -79.5 10 -106.5s14.667 -47.5 24 -61.5s18 -24 26 -30
c4.66699 -3.33301 11.334 -6.83301 20.001 -10.5s21 -5.5 37 -5.5c18 0 37 2.5 57 7.5s38.667 10.5 56 16.5s31.333 11.333 42 16l16 7l31 -79l-17 -10.5c-11.333 -7 -27.5 -14.667 -48.5 -23s-45.5 -14.166 -73.5 -17.499v-108h-88z" />
    <glyph glyph-name="sterling" unicode="&#xa3;" horiz-adv-x="570" 
d="M65 0l0.000976562 91.001h90v249h-90v80h90c1.33301 57.333 8.33301 104.833 21 142.5s29.667 67.167 51 88.5s46 36.5 74 45.5s57.667 13.5 89 13.5c22.667 0 46.167 -1.83301 70.5 -5.5s44.833 -7.83398 61.5 -12.501l-11 -86c-20 3.33301 -41.333 6.33301 -64 9
s-45.334 4 -68.001 4c-21.333 0 -38.333 -1.66699 -51 -5s-22.667 -9 -30 -17c-10 -11.333 -18.333 -31.833 -25 -61.5s-10.667 -68.167 -12 -115.5h181v-80h-182v-248l247 2v-94h-442z" />
    <glyph glyph-name="currency" unicode="&#xa4;" horiz-adv-x="650" 
d="M130 93l-62.001 62.9971l59 58c-11.333 17.333 -20.666 37.333 -27.999 60s-11 48.334 -11 77.001s3.83301 54.334 11.5 77.001s17.167 42.667 28.5 60l-58 58l63 63l59 -59c43.333 27.333 89 41 137 41c23.333 0 46.5 -3.33301 69.5 -10s44.5 -16.667 64.5 -30l60 59
l62 -63l-58 -57c12.667 -17.333 23 -37.166 31 -59.499s12 -48.833 12 -79.5c0 -30 -3.83301 -56.333 -11.5 -79s-17.167 -42.667 -28.5 -60l58 -58l-63 -62l-59 57c-43.333 -27.333 -89 -41 -137 -41c-49.333 0 -96.333 14.333 -141 43zM328.999 194.997
c51.333 0 88.833 12 112.5 36s35.5 63.667 35.5 119c0 54.667 -13.833 94 -41.5 118s-63.167 36 -106.5 36s-79 -12 -107 -36s-42 -63.333 -42 -118c0 -55.333 14 -95 42 -119s63.667 -36 107 -36z" />
    <glyph glyph-name="yen" unicode="&#xa5;" horiz-adv-x="559" 
d="M47 275v75h137l-166 347h116l142 -346h6l140 346h116l-166 -347h137v-75h-462zM224 0l1 141h-178v76h462v-76h-179v-141h-106z" />
    <glyph glyph-name="brokenbar" unicode="&#xa6;" horiz-adv-x="280" 
d="M96 403v356h88v-356h-88zM96 -85v354h88v-354h-88z" />
    <glyph glyph-name="section" unicode="&#xa7;" horiz-adv-x="540" 
d="M262 -93c-28.667 0 -55.835 2.66406 -81.502 7.99707s-48 11.5 -67 18.5s-34 13 -45 18l-16.5 7.5l27 88l18 -7.5c12 -5 27.5 -10.833 46.5 -17.5s39.833 -12.5 62.5 -17.5s44.667 -7.5 66 -7.5c30.667 0 51 4 61 12c7.33301 4.66699 13.5 12.334 18.5 23.001
s7.5 24.334 7.5 41.001c0 18.667 -6.33301 33.667 -19 45s-29 20.666 -49 27.999s-42 14.333 -66 21c-28 8.66699 -55.167 19 -81.5 31s-48 28.333 -65 49s-25.5 47.334 -25.5 80.001c0 24.667 5.5 47.334 16.5 68.001s26.167 38.334 45.5 53.001
c-12.667 12 -22.834 26.5 -30.501 43.5s-11.5 36.5 -11.5 58.5c0 48.667 16.167 87.5 48.5 116.5s80.833 43.5 145.5 43.5c36 0 69.167 -3.16699 99.5 -9.5s51.166 -11.5 62.499 -15.5l-17 -87l-13.5 3.5c-9 2.33301 -21.167 5 -36.5 8s-32.666 5.66699 -51.999 8
s-39.333 3.5 -60 3.5c-11.333 0 -22.666 -1 -33.999 -3s-19.666 -5.33301 -24.999 -10c-5.33301 -4 -9.66602 -10.667 -12.999 -20s-5 -19.666 -5 -30.999c0 -20 7.33301 -36 22 -48s33.667 -22 57 -30l74 -25c26.667 -8.66699 52.834 -18.667 78.501 -30
s46.5 -26.333 62.5 -45s24 -43.667 24 -75c0 -28.667 -6.83301 -53.334 -20.5 -74.001s-28.834 -38 -45.501 -52c12 -12.667 20.667 -27.667 26 -45s8 -34.333 8 -51c0 -28 -5 -53 -15 -75s-24.167 -40.333 -42.5 -55s-39.333 -25.834 -63 -33.501
s-49.167 -11.5 -76.5 -11.5zM351.999 221.997c9.33301 9.33301 18.333 20.5029 27 33.5029s13 25.5 13 37.5c0 18.667 -9.83301 33 -29.5 43s-43.5 20 -71.5 30l-58 20.5c-16.667 5.66699 -32 11.5 -46 17.5c-9.33301 -10 -17.333 -21.333 -24 -34s-10 -26.667 -10 -42
c0 -10.667 4.33301 -20.334 13 -29.001s20.5 -16.334 35.5 -23.001s32.167 -13.334 51.5 -20.001l54 -18z" />
    <glyph glyph-name="dieresis" unicode="&#xa8;" horiz-adv-x="311" 
d="M0 679v90h113v-90h-113zM198 679v90h113v-90h-113z" />
    <glyph glyph-name="copyright" unicode="&#xa9;" horiz-adv-x="835" 
d="M416 -34c-51.333 0 -98.501 8.83203 -141.501 26.499s-80.167 42.334 -111.5 74.001s-55.5 69.167 -72.5 112.5s-25.5 90.666 -25.5 141.999c0 52 9 99.667 27 143s43 80.833 75 112.5s69.333 56.167 112 73.5s88.334 26 137.001 26c52 0 99.5 -8.83301 142.5 -26.5
s80.333 -42.167 112 -73.5s56 -68.666 73 -111.999s25.5 -91 25.5 -143c0 -51.333 -8.5 -98.666 -25.5 -141.999s-41.333 -80.833 -73 -112.5s-69 -56.334 -112 -74.001s-90.5 -26.5 -142.5 -26.5zM411.999 105.999c-31.333 0 -59.832 6.83008 -85.499 20.4971
s-46.167 36 -61.5 67s-23 72.167 -23 123.5c0 46 4.66699 83.333 14 112s22.5 51 39.5 67s36.5 27 58.5 33s45 9 69 9c10 0 21.833 -0.666992 35.5 -2s27 -3.16602 40 -5.49902s22.5 -5.16602 28.5 -8.49902l-8 -74c-4.66699 0.666992 -13.334 1.66699 -26.001 3l-39 4
c-13.333 1.33301 -23 2 -29 2c-17.333 0 -30.666 -1.16699 -39.999 -3.5s-16.333 -5.83301 -21 -10.5c-6.66699 -8 -12.667 -21.167 -18 -39.5s-8 -47.166 -8 -86.499c0 -34 3 -60.5 9 -79.5s12.333 -31.5 19 -37.5c8 -8 21.333 -12 40 -12s37 2.16699 55 6.5
s33 8.5 45 12.5l18 6l20 -72l-16.5 -9c-11 -6 -26.333 -11.833 -46 -17.5s-42.834 -8.5 -69.501 -8.5zM416 41.9961c57.333 0 106.5 11.332 147.5 33.999s72.5 54.834 94.5 96.501s33 91.167 33 148.5s-11 106.833 -33 148.5s-53.5 73.834 -94.5 96.501
s-90.167 34 -147.5 34c-54 0 -101.5 -11.333 -142.5 -34s-73 -54.834 -96 -96.501s-34.5 -91.167 -34.5 -148.5c0 -86 24 -154 72 -204s115 -75 201 -75z" />
    <glyph glyph-name="ordfeminine" unicode="&#xaa;" horiz-adv-x="428" 
d="M154 289c-32.667 0 -59.332 10.8301 -79.999 32.4971s-31 55.5 -31 101.5c0 31.333 7 56 21 74s33.167 31.167 57.5 39.5s51.5 12.5 81.5 12.5h32.5h27.5h11c0 22 -1.33301 39 -4 51s-8.83398 20.333 -18.501 25s-24.5 7 -44.5 7s-40.333 -2.66699 -61 -8
s-37.834 -10.666 -51.501 -15.999l-20.5 -8l-21 69l14.5 5.5c9.66699 3.66699 22.334 7.83398 38.001 12.501s32.5 8.83398 50.5 12.501s35 5.5 51 5.5c56 0 95 -13 117 -39s33 -62.333 33 -109v-259h-58l-13 38h-4l-19.5 -11.5c-13 -7.66699 -29.333 -15.5 -49 -23.5
s-39.5 -12 -59.5 -12zM177.002 362.997c14 0 28.499 2.5 43.499 7.5s27.667 10.167 38 15.5l15.5 8v83l-18 1c-12 0.666992 -28.333 1 -49 1c-15.333 0 -28.333 -1 -39 -3s-18 -4.66699 -22 -8c-5.33301 -4 -9.66602 -10 -12.999 -18s-5 -18.333 -5 -31
c0 -20 4 -34.333 12 -43s20.333 -13 37 -13z" />
    <glyph glyph-name="guillemotleft" unicode="&#xab;" horiz-adv-x="498" 
d="M180 84l-147 251l147 250l78 -46l-122 -201v-6l122 -201zM388 85l-146 250l146 249l77 -47l-121 -199v-6l121 -200z" />
    <glyph glyph-name="logicalnot" unicode="&#xac;" horiz-adv-x="591" 
d="M461 118v130h-440v91h533v-221h-93z" />
    <glyph glyph-name="uni00AD" unicode="&#xad;" horiz-adv-x="358" 
d="M61 259v89h238v-89h-238z" />
    <glyph glyph-name="registered" unicode="&#xae;" horiz-adv-x="835" 
d="M416 -34c-51.333 0 -98.501 8.83203 -141.501 26.499s-80.167 42.334 -111.5 74.001s-55.5 69.167 -72.5 112.5s-25.5 90.666 -25.5 141.999c0 52 9 99.667 27 143s43 80.833 75 112.5s69.333 56.167 112 73.5s88.334 26 137.001 26c52 0 99.5 -8.83301 142.5 -26.5
s80.333 -42.167 112 -73.5s56 -68.666 73 -111.999s25.5 -91 25.5 -143c0 -51.333 -8.5 -98.666 -25.5 -141.999s-41.333 -80.833 -73 -112.5s-69 -56.334 -112 -74.001s-90.5 -26.5 -142.5 -26.5zM415.999 41.999c57.333 0 106.5 11.332 147.5 33.999
s72.5 54.834 94.5 96.501s33 91.167 33 148.5s-11 106.833 -33 148.5s-53.5 73.834 -94.5 96.501s-90.167 34 -147.5 34c-54 0 -101.5 -11.333 -142.5 -34s-73 -54.834 -96 -96.501s-34.5 -91.167 -34.5 -148.5c0 -86 24 -154 72 -204s115 -75 201 -75zM270.999 118.998
l2.99902 191l-2 213c7.33301 0.666992 19.5 1.66699 36.5 3s36 2.5 57 3.5s40.5 1.5 58.5 1.5c44.667 0 80.334 -9.83301 107.001 -29.5s40 -53.5 40 -101.5c0 -38 -8 -67.167 -24 -87.5s-34 -33.5 -54 -39.5v-3l80 -151h-97l-64 144l-55 1v-145h-86zM427.998 335.998
c20 0 33.832 4.83301 41.499 14.5s11.5 26.167 11.5 49.5c0 20.667 -3.5 35.5 -10.5 44.5s-22.167 13.5 -45.5 13.5c-14 0 -28.333 -0.666992 -43 -2s-22.667 -2 -24 -2l-2 -114c10.667 -1.33301 22.834 -2.33301 36.501 -3s25.5 -1 35.5 -1z" />
    <glyph glyph-name="macron" unicode="&#xaf;" horiz-adv-x="342" 
d="M0 683v75h342v-75h-342z" />
    <glyph glyph-name="degree" unicode="&#xb0;" horiz-adv-x="349" 
d="M175 402c-26 0 -51 5.16699 -75 15.5s-43.667 27 -59 50s-23 53.5 -23 91.5s7.66699 68.333 23 91s35 39 59 49s49 15 75 15c25.333 0 50 -5 74 -15s43.667 -26.333 59 -49s23 -53 23 -91s-7.66699 -68.5 -23 -91.5s-35 -39.667 -59 -50s-48.667 -15.5 -74 -15.5z
M175 484c20.667 0 37.499 5.33301 50.499 16s19.5 30.334 19.5 59.001c0 28 -6.5 47.167 -19.5 57.5s-29.833 15.5 -50.5 15.5c-21.333 0 -38.666 -5.16699 -51.999 -15.5s-20 -29.5 -20 -57.5c0 -28.667 6.5 -48.334 19.5 -59.001s30.5 -16 52.5 -16z" />
    <glyph glyph-name="plusminus" unicode="&#xb1;" horiz-adv-x="570" 
d="M238 164v163h-193v89h193v158h92v-158h194v-89h-194v-163h-92zM45 12v90h479v-90h-479z" />
    <glyph glyph-name="uni00B2" unicode="&#xb2;" horiz-adv-x="383" 
d="M57 298l-0.00390625 58.0029l95 112c22 26.667 38.833 48 50.5 64s19.5 29.167 23.5 39.5s6 19.5 6 27.5c0 9.33301 -2.66699 17.166 -8 23.499s-14.333 9.5 -27 9.5c-13.333 0 -27.166 -1.83301 -41.499 -5.5s-28 -8.5 -41 -14.5s-24.833 -12.333 -35.5 -19l-32 67
c7.33301 5.33301 18.333 11.666 33 18.999s31.834 13.666 51.501 18.999s40.834 8 63.501 8c22 0 41.833 -4.16699 59.5 -12.5s31.834 -20.333 42.501 -36s16 -34.5 16 -56.5s-4.66699 -43 -14 -63s-25 -43.333 -47 -70l-82 -98v-4l152 5v-73h-265z" />
    <glyph glyph-name="uni00B3" unicode="&#xb3;" horiz-adv-x="364" 
d="M177 290c-24.667 0 -47.334 2.66797 -68.001 8.00098s-37.5 10.666 -50.5 15.999l-19.5 8l21 67l11 -3.5l28.5 -9.5c11.667 -4 24.167 -7.16699 37.5 -9.5s26 -3.5 38 -3.5c18 0 30.5 4.33301 37.5 13s10.5 22.334 10.5 41.001c0 21.333 -5.16699 36.333 -15.5 45
s-25.833 13 -46.5 13h-60v65c31.333 2.66699 55 5.16699 71 7.5s26.833 6.66602 32.5 12.999s8.5 16.5 8.5 30.5c0 15.333 -3 26 -9 32c-4 3.33301 -10.167 6 -18.5 8s-20.166 3 -35.499 3c-10.667 0 -22.167 -0.5 -34.5 -1.5s-28.5 -2.83301 -48.5 -5.5l-7 69
c8.66699 1.33301 19.167 2.83301 31.5 4.5s24.833 3 37.5 4s23.667 1.5 33 1.5c38.667 0 70.667 -7.66699 96 -23s38 -43 38 -83c0 -22 -3.83301 -38.833 -11.5 -50.5s-16 -19.667 -25 -24s-16.167 -7.5 -21.5 -9.5v-4c9.33301 -2 19.5 -6.16699 30.5 -12.5
s20.333 -16 28 -29s11.5 -31.5 11.5 -55.5c0 -22.667 -4.16699 -43.5 -12.5 -62.5s-22 -34.167 -41 -45.5s-44.833 -17 -77.5 -17z" />
    <glyph glyph-name="acute" unicode="&#xb4;" horiz-adv-x="247" 
d="M21 652l-21 59l217 85l30 -80z" />
    <glyph glyph-name="uni03BC" unicode="&#xb5;" horiz-adv-x="610" 
d="M81 -166v749.999h106v-354c0 -36 0.666992 -64.167 2 -84.5s5 -34.5 11 -42.5c4.66699 -7.33301 11.5 -12.833 20.5 -16.5s21.833 -5.5 38.5 -5.5c18 0 37.333 3.33301 58 10s39.5 14 56.5 22l37.5 18v453h105v-584h-69l-13 58h-6
c-7.33301 -5.33301 -18 -11.833 -32 -19.5s-29.667 -15.5 -47 -23.5s-35.333 -14.667 -54 -20s-36.334 -8 -53.001 -8c-13.333 0 -25.666 1.33301 -36.999 4s-21 6.33398 -29 11.001l-4 -3l9 -165h-100z" />
    <glyph glyph-name="paragraph" unicode="&#xb6;" horiz-adv-x="681" 
d="M262 -158v345c-44.667 1.33301 -83.5 10 -116.5 26s-58.5 42.333 -76.5 79s-27 87 -27 151c0 65.333 9.33301 116.5 28 153.5s45.167 63 79.5 78s75.5 22.5 123.5 22.5h317v-855h-106v764h-117v-764h-105z" />
    <glyph glyph-name="periodcentered" unicode="&#xb7;" horiz-adv-x="316" 
d="M161 261c-11.333 0 -22.5 2.16699 -33.5 6.5s-20 11.666 -27 21.999s-10.5 24.166 -10.5 41.499c0 18 3.5 32 10.5 42s16 17 27 21s22.167 6 33.5 6s22.333 -2 33 -6s19.334 -11 26.001 -21s10 -24 10 -42c0 -17.333 -3.33301 -31.166 -10 -41.499
s-15.334 -17.666 -26.001 -21.999s-21.667 -6.5 -33 -6.5z" />
    <glyph glyph-name="cedilla" unicode="&#xb8;" horiz-adv-x="190" 
d="M77 -179c-19.333 0 -37 1.50195 -53 4.50195l-24 4.5v70l12 -1c8 -0.666992 17.333 -1.5 28 -2.5s19.667 -1.5 27 -1.5c18.667 0 32 1.66699 40 5s12 11.666 12 24.999c0 16.667 -1.66699 33.167 -5 49.5s-6 28.166 -8 35.499l64 9c2 -4.66699 4.5 -12 7.5 -22
s5.83301 -21.333 8.5 -34s4 -25.667 4 -39c0 -31.333 -10.333 -56.333 -31 -75s-48 -28 -82 -28z" />
    <glyph glyph-name="uni00B9" unicode="&#xb9;" horiz-adv-x="382" 
d="M64 298v72h101v249h-4l-83 -67l-43 58l134 95l79 -5v-330h87v-72h-271z" />
    <glyph glyph-name="ordmasculine" unicode="&#xba;" horiz-adv-x="363" 
d="M181 289c-41.333 0 -74 8.5 -98 25.5s-41.167 41 -51.5 72s-15.5 67.833 -15.5 110.5s5.16699 79.667 15.5 111s27.5 55.5 51.5 72.5s56.667 25.5 98 25.5c42.667 0 76 -8.5 100 -25.5s41 -41.167 51 -72.5s15 -68.333 15 -111s-5 -79.5 -15 -110.5s-27 -55 -51 -72
s-57.333 -25.5 -100 -25.5zM181 364c19.333 0 34.833 3.33301 46.5 10s20.167 19.667 25.5 39s8 47.333 8 84c0 38 -2.66699 66.5 -8 85.5s-13.833 31.833 -25.5 38.5s-27.167 10 -46.5 10c-18.667 0 -33.667 -3.33301 -45 -10s-19.5 -19.5 -24.5 -38.5
s-7.5 -47.5 -7.5 -85.5c0 -36.667 2.5 -64.667 7.5 -84s13.167 -32.333 24.5 -39s26.333 -10 45 -10z" />
    <glyph glyph-name="guillemotright" unicode="&#xbb;" horiz-adv-x="498" 
d="M110 85l-78 47l122 200v6l-122 199l78 47l146 -249zM317 84l-77 47l122 201v6l-122 201l77 46l147 -250z" />
    <glyph glyph-name="onequarter" unicode="&#xbc;" horiz-adv-x="926" 
d="M255 -9l199 398l156 344h95l-186 -384l-168 -358h-96zM64 298v72h101v249h-4l-83 -67l-43 58l134 95l79 -5v-330h87v-72h-271zM753 0l2 80h-184v62l98 272l75 -8l-94 -253v-3l105 2l12 149h67v-149l39 1v-73h-39v-80h-81z" />
    <glyph glyph-name="onehalf" unicode="&#xbd;" horiz-adv-x="945" 
d="M257 -9l198 398l157 344h95l-186 -384l-168 -358h-96zM64 298v72h101v249h-4l-83 -67l-43 58l134 95l79 -5v-330h87v-72h-271zM617 0l0.000976562 58.998l10 11.5c6.66699 7.66699 15.5 17.334 26.5 29.001s22.167 24.334 33.5 38.001l32 37.5l39 49
c11.333 14.667 20.166 28.5 26.499 41.5s9.5 24.833 9.5 35.5c0 9.33301 -2.83301 17.166 -8.5 23.499s-14.834 9.5 -27.501 9.5c-13.333 0 -27 -1.83301 -41 -5.5s-27.5 -8.5 -40.5 -14.5s-25.167 -12.333 -36.5 -19l-31 67c6.66699 5.33301 17.334 11.666 32.001 18.999
s31.667 13.666 51 18.999s39 8 59 8c24 0 45.167 -4.16699 63.5 -12.5s33 -20.333 44 -36s16.5 -34.5 16.5 -56.5c0 -23.333 -7 -47.166 -21 -71.499s-29.333 -47.166 -46 -68.499c-5.33301 -7.33301 -12.5 -16.166 -21.5 -26.499l-26 -30l-21 -24l-8.5 -9.5v-4l152 4v-73
h-266z" />
    <glyph glyph-name="threequarters" unicode="&#xbe;" horiz-adv-x="886" 
d="M219 -9l199 398l157 344h95l-186 -384l-169 -358h-96zM176 290c-24 0 -46.499 2.66797 -67.499 8.00098s-38 10.666 -51 15.999l-19.5 8l22 67l11 -3.5c7.33301 -2.33301 16.666 -5.5 27.999 -9.5s23.833 -7.16699 37.5 -9.5s26.5 -3.5 38.5 -3.5
c17.333 0 29.666 4.33301 36.999 13s11 22.334 11 41.001c0 21.333 -5.16699 36.333 -15.5 45s-26.166 13 -47.499 13h-60v65c31.333 2.66699 55 5.16699 71 7.5s26.833 6.66602 32.5 12.999s8.5 16.5 8.5 30.5c0 15.333 -3 26 -9 32c-3.33301 3.33301 -9.33301 6 -18 8
s-20.334 3 -35.001 3c-10.667 0 -22.167 -0.5 -34.5 -1.5s-28.5 -2.83301 -48.5 -5.5l-7 69c8.66699 1.33301 19 2.83301 31 4.5s24.5 3 37.5 4s24.167 1.5 33.5 1.5c38.667 0 70.5 -7.66699 95.5 -23s37.5 -43 37.5 -83c0 -22 -3.66699 -38.833 -11 -50.5
s-15.666 -20 -24.999 -25s-16.333 -8.16699 -21 -9.5v-4c8.66699 -2 18.5 -6.16699 29.5 -12.5s20.333 -15.833 28 -28.5s11.5 -31 11.5 -55c0 -22.667 -4.16699 -43.5 -12.5 -62.5s-22 -34.167 -41 -45.5s-44.833 -17 -77.5 -17zM714.001 0.000976562l2 80h-184v62l98 272
l75 -8l-94 -253v-3l105 2l12 149h66v-149l40 1v-73h-40v-80h-80z" />
    <glyph glyph-name="questiondown" unicode="&#xbf;" horiz-adv-x="472" 
d="M331 389v-13c0 -34 -5.33301 -62.5 -16 -85.5s-24.167 -42.167 -40.5 -57.5s-33.5 -29.666 -51.5 -42.999c-14.667 -10.667 -29 -22.167 -43 -34.5s-25.333 -26.5 -34 -42.5s-13 -35.333 -13 -58c0 -20 3.66699 -35.5 11 -46.5s15.333 -20.167 24 -27.5
c3.33301 -2 9.66602 -4.5 18.999 -7.5s22 -4.5 38 -4.5c35.333 0 68.833 5.33301 100.5 16s60.834 22 87.501 34l35 -83l-46.5 -24c-19.667 -10 -43.167 -19 -70.5 -27s-59 -12 -95 -12c-41.333 0 -78 8.16699 -110 24.5s-57 38.5 -75 66.5s-27 60.333 -27 97
c0 34 6 62.667 18 86s27.333 43.166 46 59.499s37.667 31.5 57 45.5c16 12 31 24 45 36s25.5 26 34.5 42s13.833 35.667 14.5 59h92zM348 584v-103h-128v103h128z" />
    <glyph glyph-name="Agrave" unicode="&#xc0;" horiz-adv-x="526" 
d="M0 0l190 697h144l190 -697h-108l-54 213l56 -37h-310l54 37l-53 -213h-109zM163 219l-36 48h271l-36 -48l-108 429l59 -46h-101l58 46zM383 738l-257 59l24 82l250 -80z" />
    <glyph glyph-name="Aacute" unicode="&#xc1;" horiz-adv-x="526" 
d="M0 0l190 697h144l190 -697h-108l-54 213l56 -37h-310l54 37l-53 -213h-109zM163 219l-36 48h271l-36 -48l-108 429l59 -46h-101l58 46zM157 738l-19 61l246 80l28 -84z" />
    <glyph glyph-name="Acircumflex" unicode="&#xc2;" horiz-adv-x="526" 
d="M0 0l190 697h144l190 -697h-108l-54 213l56 -37h-310l54 37l-53 -213h-109zM163 219l-36 48h271l-36 -48l-108 429l59 -46h-101l58 46zM129 735l-30 45l135 97h57l135 -97l-29 -45l-131 61h-7z" />
    <glyph glyph-name="Atilde" unicode="&#xc3;" horiz-adv-x="526" 
d="M0 0l190 697h144l190 -697h-108l-54 213l56 -37h-310l54 37l-53 -213h-109zM163 219l-36 48h271l-36 -48l-108 429l59 -46h-101l58 46zM369 747c-11.333 0 -27.002 2.5 -47.002 7.5s-40.5 10.5 -61.5 16.5l-56 16c-16.333 4.66699 -27.166 7 -32.499 7
c-4.66699 0 -9.16699 -3.5 -13.5 -10.5s-8 -14.167 -11 -21.5l-4.5 -11l-59 7c0.666992 40.667 8.16699 69 22.5 85s33.5 24 57.5 24c12.667 0 28.834 -2.33301 48.501 -7s39.834 -9.83398 60.501 -15.501l55.5 -15.5c16.333 -4.66699 27.166 -7 32.499 -7
s9.83301 3.5 13.5 10.5s7 14 10 21l4.5 10.5l59 -9c0 -39.333 -6.83301 -67.166 -20.5 -83.499s-33.167 -24.5 -58.5 -24.5z" />
    <glyph glyph-name="Adieresis" unicode="&#xc4;" horiz-adv-x="526" 
d="M0 0l190 697h144l190 -697h-108l-54 213l56 -37h-310l54 37l-53 -213h-109zM163 219l-36 48h271l-36 -48l-108 429l59 -46h-101l58 46zM105 762v90h113v-90h-113zM303 762v90h113v-90h-113z" />
    <glyph glyph-name="Aring" unicode="&#xc5;" horiz-adv-x="526" 
d="M0 0l190 697h144l190 -697h-108l-54 213l56 -37h-310l54 37l-53 -213h-109zM163 219l-36 48h271l-36 -48l-108 429l59 -46h-101l58 46zM263 725c-15.333 0 -29.833 2.66602 -43.5 7.99902s-25 14.333 -34 27s-13.5 29.667 -13.5 51c0 22.667 4.5 40.167 13.5 52.5
s20.333 21.166 34 26.499s28.167 8 43.5 8s29.833 -2.66699 43.5 -8s25 -14.166 34 -26.499s13.5 -29.833 13.5 -52.5c0 -22 -4.5 -39.167 -13.5 -51.5s-20.333 -21.166 -34 -26.499s-28.167 -8 -43.5 -8zM263 776.999c12 0 20.667 2.16699 26 6.5s8 13.5 8 27.5
c0 14.667 -2.66699 24.167 -8 28.5s-14 6.5 -26 6.5s-21 -2.16699 -27 -6.5s-9 -13.833 -9 -28.5c0 -14 3 -23.167 9 -27.5s15 -6.5 27 -6.5z" />
    <glyph glyph-name="AE" unicode="&#xc6;" horiz-adv-x="790" 
d="M-7 0l305 697h431v-94l-261 3l-4 -207h241v-89h-241l4 -219l261 2v-93h-365v175h-186l-75 -175h-110zM205 266h159v338h-18z" />
    <glyph glyph-name="Ccedilla" unicode="&#xc7;" horiz-adv-x="594" 
d="M288 -179c-19.333 0 -37 1.50195 -53 4.50195l-24 4.5v70l12 -1c8 -0.666992 17.333 -1.5 28 -2.5s19.667 -1.5 27 -1.5c18.667 0 32 1.66699 40 5s12 11.666 12 24.999c0 16.667 -1.66699 33.167 -5 49.5s-6 28.166 -8 35.499l64 9c2 -4.66699 4.5 -12 7.5 -22
s5.83301 -21.333 8.5 -34s4 -25.667 4 -39c0 -31.333 -10.333 -56.333 -31 -75s-48 -28 -82 -28zM320 -13.998c-50 0 -94.002 11.6689 -132.002 35.002s-68 61 -90 113s-33 121.333 -33 208c0 76 6.83301 138.167 20.5 186.5s32.667 85.833 57 112.5s53 45 86 55
s68.833 15 107.5 15c16 0 35.5 -0.833008 58.5 -2.5s45.667 -4 68 -7s39.5 -6.16699 51.5 -9.5l-12 -88l-31.5 3c-14.333 1.33301 -30 2.66602 -47 3.99902s-33 2.5 -48 3.5s-26.5 1.5 -34.5 1.5c-31.333 0 -56.166 -1.5 -74.499 -4.5s-31.833 -9.5 -40.5 -19.5
c-8.66699 -9.33301 -16.834 -23.666 -24.501 -42.999s-13.667 -45.833 -18 -79.5s-6.5 -77.167 -6.5 -130.5c0 -67.333 6.33301 -120.833 19 -160.5s25.334 -65.5 38.001 -77.5c8.66699 -8 19.334 -13.833 32.001 -17.5s27.667 -5.5 45 -5.5c24 0 47.833 2.66699 71.5 8
s45 11.666 64 18.999s34.167 13.666 45.5 18.999l17 8l34 -82l-16 -9.5c-10.667 -6.33301 -25.834 -13.833 -45.501 -22.5s-43.167 -16.167 -70.5 -22.5s-57.666 -9.5 -90.999 -9.5z" />
    <glyph glyph-name="Egrave" unicode="&#xc8;" horiz-adv-x="525" 
d="M98 0v697h366v-92l-307 4l49 47l-8 -296l-46 39h287v-89h-287l46 41l8 -309l-49 48l307 2v-92h-366zM403 738l-257 59l24 82l250 -80z" />
    <glyph glyph-name="Eacute" unicode="&#xc9;" horiz-adv-x="525" 
d="M98 0v697h366v-92l-307 4l49 47l-8 -296l-46 39h287v-89h-287l46 41l8 -309l-49 48l307 2v-92h-366zM176 738l-19 61l246 80l28 -84z" />
    <glyph glyph-name="Ecircumflex" unicode="&#xca;" horiz-adv-x="525" 
d="M98 0v697h366v-92l-307 4l49 47l-8 -296l-46 39h287v-89h-287l46 41l8 -309l-49 48l307 2v-92h-366zM148 735l-30 45l135 97h57l135 -97l-29 -45l-131 61h-7z" />
    <glyph glyph-name="Edieresis" unicode="&#xcb;" horiz-adv-x="525" 
d="M98 0v697h366v-92l-307 4l49 47l-8 -296l-46 39h287v-89h-287l46 41l8 -309l-49 48l307 2v-92h-366zM125 762v90h113v-90h-113zM323 762v90h113v-90h-113z" />
    <glyph glyph-name="Igrave" unicode="&#xcc;" horiz-adv-x="304" 
d="M240 741l-241 55l26 84l235 -78zM98 -1l4 321l-4 377h107l-3 -308l3 -389z" />
    <glyph glyph-name="Iacute" unicode="&#xcd;" horiz-adv-x="304" 
d="M64 740l-18 62l233 79l27 -85zM98 -1l4 321l-4 377h107l-3 -308l3 -389z" />
    <glyph glyph-name="Icircumflex" unicode="&#xce;" horiz-adv-x="304" 
d="M26 738l-28 48l125 92h58l124 -92l-28 -48l-122 59h-7zM98 -1l4 321l-4 377h107l-3 -308l3 -389z" />
    <glyph glyph-name="Idieresis" unicode="&#xcf;" horiz-adv-x="304" 
d="M6 763v90h112v-90h-112zM186 763v90h112v-90h-112zM98 -1l4 321l-4 377h107l-3 -308l3 -389z" />
    <glyph glyph-name="Eth" unicode="&#xd0;" horiz-adv-x="656" 
d="M45 315v83h283v-83h-283zM320 -14c-16 0 -34.832 0.499023 -56.499 1.49902s-43 2.33301 -64 4s-39.5 3.33398 -55.5 5.00098l-33 3.5v698c4.66699 0 15 0.666992 31 2s35 2.83301 57 4.5s44.833 3.16699 68.5 4.5s44.834 2 63.501 2c54 0 98.167 -9.5 132.5 -28.5
s60.666 -44.833 78.999 -77.5s31 -70.334 38 -113.001s10.5 -87.667 10.5 -135c0 -92 -11.667 -165.167 -35 -219.5s-55.333 -93.166 -96 -116.499s-87.334 -35 -140.001 -35zM315.001 77.999c32 0 56.168 2.33203 72.501 6.99902s28.5 10.667 36.5 18
c8.66699 8.66699 17 22.334 25 41.001s14.5 45.667 19.5 81s7.5 81.333 7.5 138c0 58 -4 108.5 -12 151.5s-20.667 71.5 -38 85.5c-6 5.33301 -15.833 9.83301 -29.5 13.5s-34.834 5.5 -63.501 5.5s-54 -1 -76 -3s-41 -4 -57 -6l16 50v-621l-18 50
c17.333 -2 34.833 -4.33301 52.5 -7s39.167 -4 64.5 -4z" />
    <glyph glyph-name="Ntilde" unicode="&#xd1;" horiz-adv-x="691" 
d="M98 0v697h140l263 -570h4l-14 570h102v-697h-139l-263 570h-4l13 -570h-102zM451 747c-11.333 0 -27.002 2.5 -47.002 7.5s-40.5 10.5 -61.5 16.5l-56 16c-16.333 4.66699 -27.166 7 -32.499 7c-4.66699 0 -9.16699 -3.5 -13.5 -10.5s-8 -14.167 -11 -21.5l-4.5 -11
l-59 7c0.666992 40.667 8.16699 69 22.5 85s33.5 24 57.5 24c12.667 0 28.834 -2.33301 48.501 -7s39.834 -9.83398 60.501 -15.501l55.5 -15.5c16.333 -4.66699 27.166 -7 32.499 -7s9.83301 3.5 13.5 10.5s7 14 10 21l4.5 10.5l59 -9
c0 -39.333 -6.83301 -67.166 -20.5 -83.499s-33.167 -24.5 -58.5 -24.5z" />
    <glyph glyph-name="Ograve" unicode="&#xd2;" horiz-adv-x="669" 
d="M335 -14c-36.667 0 -71.334 5.33301 -104.001 16s-61.5 29.334 -86.5 56.001s-44.5 63.667 -58.5 111s-21 107.666 -21 180.999c0 74 7 134.333 21 181s33.5 83.167 58.5 109.5s53.833 44.666 86.5 54.999s67.334 15.5 104.001 15.5s71.167 -5.16699 103.5 -15.5
s61 -28.666 86 -54.999s44.5 -62.833 58.5 -109.5s21 -107 21 -181c0 -73.333 -7 -133.666 -21 -180.999s-33.5 -84.333 -58.5 -111s-53.667 -45.334 -86 -56.001s-66.833 -16 -103.5 -16zM335 81c27.333 0 50.834 3 70.501 9s36 18.167 49 36.5s22.667 45.166 29 80.499
s9.5 82.333 9.5 141c0 58 -3 104.833 -9 140.5s-15.333 62.667 -28 81s-29.167 30.666 -49.5 36.999s-44.166 9.5 -71.499 9.5c-28.667 0 -52.834 -3.16699 -72.501 -9.5s-35.834 -18.666 -48.501 -36.999s-22 -45.333 -28 -81s-9 -82.5 -9 -140.5
c0 -58.667 3 -105.667 9 -141s15.5 -62.166 28.5 -80.499s29.5 -30.5 49.5 -36.5s43.667 -9 71 -9zM455.001 738l-257 59l24 82l250 -80z" />
    <glyph glyph-name="Oacute" unicode="&#xd3;" horiz-adv-x="669" 
d="M335 -14c-36.667 0 -71.334 5.33301 -104.001 16s-61.5 29.334 -86.5 56.001s-44.5 63.667 -58.5 111s-21 107.666 -21 180.999c0 74 7 134.333 21 181s33.5 83.167 58.5 109.5s53.833 44.666 86.5 54.999s67.334 15.5 104.001 15.5s71.167 -5.16699 103.5 -15.5
s61 -28.666 86 -54.999s44.5 -62.833 58.5 -109.5s21 -107 21 -181c0 -73.333 -7 -133.666 -21 -180.999s-33.5 -84.333 -58.5 -111s-53.667 -45.334 -86 -56.001s-66.833 -16 -103.5 -16zM335 81c27.333 0 50.834 3 70.501 9s36 18.167 49 36.5s22.667 45.166 29 80.499
s9.5 82.333 9.5 141c0 58 -3 104.833 -9 140.5s-15.333 62.667 -28 81s-29.167 30.666 -49.5 36.999s-44.166 9.5 -71.499 9.5c-28.667 0 -52.834 -3.16699 -72.501 -9.5s-35.834 -18.666 -48.501 -36.999s-22 -45.333 -28 -81s-9 -82.5 -9 -140.5
c0 -58.667 3 -105.667 9 -141s15.5 -62.166 28.5 -80.499s29.5 -30.5 49.5 -36.5s43.667 -9 71 -9zM228.001 738l-19 61l246 80l28 -84z" />
    <glyph glyph-name="Ocircumflex" unicode="&#xd4;" horiz-adv-x="669" 
d="M335 -14c-36.667 0 -71.334 5.33301 -104.001 16s-61.5 29.334 -86.5 56.001s-44.5 63.667 -58.5 111s-21 107.666 -21 180.999c0 74 7 134.333 21 181s33.5 83.167 58.5 109.5s53.833 44.666 86.5 54.999s67.334 15.5 104.001 15.5s71.167 -5.16699 103.5 -15.5
s61 -28.666 86 -54.999s44.5 -62.833 58.5 -109.5s21 -107 21 -181c0 -73.333 -7 -133.666 -21 -180.999s-33.5 -84.333 -58.5 -111s-53.667 -45.334 -86 -56.001s-66.833 -16 -103.5 -16zM335 81c27.333 0 50.834 3 70.501 9s36 18.167 49 36.5s22.667 45.166 29 80.499
s9.5 82.333 9.5 141c0 58 -3 104.833 -9 140.5s-15.333 62.667 -28 81s-29.167 30.666 -49.5 36.999s-44.166 9.5 -71.499 9.5c-28.667 0 -52.834 -3.16699 -72.501 -9.5s-35.834 -18.666 -48.501 -36.999s-22 -45.333 -28 -81s-9 -82.5 -9 -140.5
c0 -58.667 3 -105.667 9 -141s15.5 -62.166 28.5 -80.499s29.5 -30.5 49.5 -36.5s43.667 -9 71 -9zM200.001 735l-30 45l135 97h57l135 -97l-29 -45l-131 61h-7z" />
    <glyph glyph-name="Otilde" unicode="&#xd5;" horiz-adv-x="669" 
d="M335 -14c-36.667 0 -71.334 5.33301 -104.001 16s-61.5 29.334 -86.5 56.001s-44.5 63.667 -58.5 111s-21 107.666 -21 180.999c0 74 7 134.333 21 181s33.5 83.167 58.5 109.5s53.833 44.666 86.5 54.999s67.334 15.5 104.001 15.5s71.167 -5.16699 103.5 -15.5
s61 -28.666 86 -54.999s44.5 -62.833 58.5 -109.5s21 -107 21 -181c0 -73.333 -7 -133.666 -21 -180.999s-33.5 -84.333 -58.5 -111s-53.667 -45.334 -86 -56.001s-66.833 -16 -103.5 -16zM335 81c27.333 0 50.834 3 70.501 9s36 18.167 49 36.5s22.667 45.166 29 80.499
s9.5 82.333 9.5 141c0 58 -3 104.833 -9 140.5s-15.333 62.667 -28 81s-29.167 30.666 -49.5 36.999s-44.166 9.5 -71.499 9.5c-28.667 0 -52.834 -3.16699 -72.501 -9.5s-35.834 -18.666 -48.501 -36.999s-22 -45.333 -28 -81s-9 -82.5 -9 -140.5
c0 -58.667 3 -105.667 9 -141s15.5 -62.166 28.5 -80.499s29.5 -30.5 49.5 -36.5s43.667 -9 71 -9zM441.001 747c-11.333 0 -27.002 2.5 -47.002 7.5s-40.5 10.5 -61.5 16.5l-56 16c-16.333 4.66699 -27.166 7 -32.499 7c-4.66699 0 -9.16699 -3.5 -13.5 -10.5
s-8 -14.167 -11 -21.5l-4.5 -11l-59 7c0.666992 40.667 8.16699 69 22.5 85s33.5 24 57.5 24c12.667 0 28.834 -2.33301 48.501 -7s39.834 -9.83398 60.501 -15.501l55.5 -15.5c16.333 -4.66699 27.166 -7 32.499 -7s9.83301 3.5 13.5 10.5s7 14 10 21l4.5 10.5l59 -9
c0 -39.333 -6.83301 -67.166 -20.5 -83.499s-33.167 -24.5 -58.5 -24.5z" />
    <glyph glyph-name="Odieresis" unicode="&#xd6;" horiz-adv-x="669" 
d="M335 -14c-36.667 0 -71.334 5.33301 -104.001 16s-61.5 29.334 -86.5 56.001s-44.5 63.667 -58.5 111s-21 107.666 -21 180.999c0 74 7 134.333 21 181s33.5 83.167 58.5 109.5s53.833 44.666 86.5 54.999s67.334 15.5 104.001 15.5s71.167 -5.16699 103.5 -15.5
s61 -28.666 86 -54.999s44.5 -62.833 58.5 -109.5s21 -107 21 -181c0 -73.333 -7 -133.666 -21 -180.999s-33.5 -84.333 -58.5 -111s-53.667 -45.334 -86 -56.001s-66.833 -16 -103.5 -16zM335 81c27.333 0 50.834 3 70.501 9s36 18.167 49 36.5s22.667 45.166 29 80.499
s9.5 82.333 9.5 141c0 58 -3 104.833 -9 140.5s-15.333 62.667 -28 81s-29.167 30.666 -49.5 36.999s-44.166 9.5 -71.499 9.5c-28.667 0 -52.834 -3.16699 -72.501 -9.5s-35.834 -18.666 -48.501 -36.999s-22 -45.333 -28 -81s-9 -82.5 -9 -140.5
c0 -58.667 3 -105.667 9 -141s15.5 -62.166 28.5 -80.499s29.5 -30.5 49.5 -36.5s43.667 -9 71 -9zM177.001 762v90h113v-90h-113zM375.001 762v90h113v-90h-113z" />
    <glyph glyph-name="multiply" unicode="&#xd7;" horiz-adv-x="580" 
d="M112 53l-64 65l178 178l-177 177l63 63l177 -177l179 179l64 -65l-179 -179l177 -176l-63 -64l-177 177z" />
    <glyph glyph-name="Oslash" unicode="&#xd8;" horiz-adv-x="669" 
d="M107 -39l200 421l161 353h90l-179 -382l-181 -392h-91zM335 -14c-36.667 0 -71.334 5.33301 -104.001 16s-61.5 29.334 -86.5 56.001s-44.5 63.667 -58.5 111s-21 107.666 -21 180.999c0 74 7 134.333 21 181s33.5 83.167 58.5 109.5s53.833 44.666 86.5 54.999
s67.334 15.5 104.001 15.5s71.167 -5.16699 103.5 -15.5s61 -28.666 86 -54.999s44.5 -62.833 58.5 -109.5s21 -107 21 -181c0 -73.333 -7 -133.666 -21 -180.999s-33.5 -84.333 -58.5 -111s-53.667 -45.334 -86 -56.001s-66.833 -16 -103.5 -16zM335 81
c27.333 0 50.834 3 70.501 9s36 18.167 49 36.5s22.667 45.166 29 80.499s9.5 82.333 9.5 141c0 58 -3 104.833 -9 140.5s-15.333 62.667 -28 81s-29.167 30.666 -49.5 36.999s-44.166 9.5 -71.499 9.5c-28.667 0 -52.834 -3.16699 -72.501 -9.5
s-35.834 -18.666 -48.501 -36.999s-22 -45.333 -28 -81s-9 -82.5 -9 -140.5c0 -58.667 3 -105.667 9 -141s15.5 -62.166 28.5 -80.499s29.5 -30.5 49.5 -36.5s43.667 -9 71 -9z" />
    <glyph glyph-name="Ugrave" unicode="&#xd9;" horiz-adv-x="673" 
d="M336 -14c-50.667 0 -93.668 9.33203 -129.001 27.999s-62.333 51 -81 97s-28 110.333 -28 193v393h106v-366c0 -56 2 -100.5 6 -133.5s10.833 -58 20.5 -75s23 -28.167 40 -33.5s38.833 -8 65.5 -8c27.333 0 49.666 2.83301 66.999 8.5s30.833 16.667 40.5 33
s16.334 41.333 20.001 75s5.5 78.167 5.5 133.5v366h106v-384c0 -85.333 -9.33301 -151.666 -28 -198.999s-45.667 -80.5 -81 -99.5s-78.666 -28.5 -129.999 -28.5zM436.999 737.999l-257 59l24 82l250 -80z" />
    <glyph glyph-name="Uacute" unicode="&#xda;" horiz-adv-x="673" 
d="M336 -14c-50.667 0 -93.668 9.33203 -129.001 27.999s-62.333 51 -81 97s-28 110.333 -28 193v393h106v-366c0 -56 2 -100.5 6 -133.5s10.833 -58 20.5 -75s23 -28.167 40 -33.5s38.833 -8 65.5 -8c27.333 0 49.666 2.83301 66.999 8.5s30.833 16.667 40.5 33
s16.334 41.333 20.001 75s5.5 78.167 5.5 133.5v366h106v-384c0 -85.333 -9.33301 -151.666 -28 -198.999s-45.667 -80.5 -81 -99.5s-78.666 -28.5 -129.999 -28.5zM250.999 737.999l-19 61l246 80l28 -84z" />
    <glyph glyph-name="Ucircumflex" unicode="&#xdb;" horiz-adv-x="673" 
d="M336 -14c-50.667 0 -93.668 9.33203 -129.001 27.999s-62.333 51 -81 97s-28 110.333 -28 193v393h106v-366c0 -56 2 -100.5 6 -133.5s10.833 -58 20.5 -75s23 -28.167 40 -33.5s38.833 -8 65.5 -8c27.333 0 49.666 2.83301 66.999 8.5s30.833 16.667 40.5 33
s16.334 41.333 20.001 75s5.5 78.167 5.5 133.5v366h106v-384c0 -85.333 -9.33301 -151.666 -28 -198.999s-45.667 -80.5 -81 -99.5s-78.666 -28.5 -129.999 -28.5zM202.999 734.999l-30 45l135 97h57l135 -97l-29 -45l-131 61h-7z" />
    <glyph glyph-name="Udieresis" unicode="&#xdc;" horiz-adv-x="673" 
d="M336 -14c-50.667 0 -93.668 9.33203 -129.001 27.999s-62.333 51 -81 97s-28 110.333 -28 193v393h106v-366c0 -56 2 -100.5 6 -133.5s10.833 -58 20.5 -75s23 -28.167 40 -33.5s38.833 -8 65.5 -8c27.333 0 49.666 2.83301 66.999 8.5s30.833 16.667 40.5 33
s16.334 41.333 20.001 75s5.5 78.167 5.5 133.5v366h106v-384c0 -85.333 -9.33301 -151.666 -28 -198.999s-45.667 -80.5 -81 -99.5s-78.666 -28.5 -129.999 -28.5zM177.999 761.999v90h113v-90h-113zM375.999 761.999v90h113v-90h-113z" />
    <glyph glyph-name="Yacute" unicode="&#xdd;" horiz-adv-x="528" 
d="M210 0l3 257l-203 440h114l137 -340h6l136 340h114l-203 -440l3 -257h-107zM189 738l-19 61l246 80l28 -84z" />
    <glyph glyph-name="Thorn" unicode="&#xde;" horiz-adv-x="606" 
d="M96 0l4 336.998l-4 360h106v-88c22 1.33301 45.167 2.66602 69.5 3.99902s48.166 2 71.499 2c65.333 0 116 -19.667 152 -59s54 -98.666 54 -177.999c0 -49.333 -6.33301 -90 -19 -122s-30.167 -57 -52.5 -75s-47.166 -30.667 -74.499 -38s-55.333 -11 -84 -11
c-12.667 0 -27 0.333008 -43 1s-30.667 1.33398 -44 2.00098s-23.333 1.33398 -30 2.00098v-137h-106zM329 220.998c20.667 0 37.668 1.5 51.001 4.5s23.333 7.5 30 13.5c10.667 10 18 27.333 22 52s6 57 6 97c0 32.667 -1.66699 57.667 -5 75s-7.5 30 -12.5 38
s-9.83301 13.333 -14.5 16c-6 4 -16.5 7.5 -31.5 10.5s-31.833 4.5 -50.5 4.5c-22.667 0 -45.334 -1 -68.001 -3s-41 -4 -55 -6v-291c8 -1.33301 24.333 -3.5 49 -6.5s51 -4.5 79 -4.5z" />
    <glyph glyph-name="germandbls" unicode="&#xdf;" horiz-adv-x="632" 
d="M354 -13c-19.333 0 -36.335 1.16504 -51.002 3.49805s-24.667 4.16602 -30 5.49902l11 80c8 -2 17.667 -3.33301 29 -4s22.333 -1 33 -1c36 0 62.167 9.33301 78.5 28s24.5 51.334 24.5 98.001c0 28.667 -3.83301 52.667 -11.5 72s-20.667 34 -39 44s-43.833 15 -76.5 15
h-24v77c43.333 4.66699 74 15.5 92 32.5s27 44.833 27 83.5c0 28.667 -4.83301 50.834 -14.5 66.501s-22.5 26.667 -38.5 33s-33.667 9.5 -53 9.5c-38 0 -65.333 -11.5 -82 -34.5s-25 -60.167 -25 -111.5v-484h-106v480c0 40.667 5.83301 75.667 17.5 105
s27.334 53.333 47.001 72s42.334 32.334 68.001 41.001s52.5 13 80.5 13c27.333 0 53.666 -3.83301 78.999 -11.5s47.833 -19.334 67.5 -35.001s35.334 -35 47.001 -58s17.5 -49.833 17.5 -80.5c0 -31.333 -5.66699 -57.666 -17 -78.999s-24.333 -37.666 -39 -48.999
s-26.667 -18.333 -36 -21v-4c13.333 -2.66699 27.5 -7.5 42.5 -14.5s29.167 -17 42.5 -30s24.166 -30.167 32.499 -51.5s12.5 -48 12.5 -80c0 -33.333 -5 -63.333 -15 -90s-24.167 -48.834 -42.5 -66.501s-40.166 -31 -65.499 -40s-53 -13.5 -83 -13.5z" />
    <glyph glyph-name="agrave" unicode="&#xe0;" horiz-adv-x="585" 
d="M214 -13c-30.667 0 -58.1699 7.33301 -82.5029 22s-43.5 36 -57.5 64s-21 61.667 -21 101c0 48 10 85.5 30 112.5s48.167 46.333 84.5 58s78.833 17.5 127.5 17.5h96c0 32 -1 58.5 -3 79.5s-6.66699 36.5 -14 46.5c-5.33301 8 -13.333 13.5 -24 16.5s-23.667 4.5 -39 4.5
c-25.333 0 -50.666 -2.33301 -75.999 -7s-48.5 -10.167 -69.5 -16.5s-37.667 -11.833 -50 -16.5l-18.5 -7l-30 79l19.5 8.5c13 5.66699 30.5 12.167 52.5 19.5s46.667 13.833 74 19.5s56 8.5 86 8.5c48.667 0 87.334 -8.83301 116.001 -26.5s49.334 -42.5 62.001 -74.5
s19 -70 19 -114v-382h-67l-15 62h-6c-4.66699 -3.33301 -13 -9 -25 -17s-26.667 -16.5 -44 -25.5s-36.5 -16.667 -57.5 -23s-43.5 -9.5 -67.5 -9.5zM237.997 76c22 0 43.499 3.5 64.499 10.5s39.5 14.5 55.5 22.5s27 13.667 33 17v147c-6 1.33301 -17.5 2.83301 -34.5 4.5
s-38.833 2.5 -65.5 2.5c-56.667 0 -92 -6 -106 -18c-7.33301 -6 -13.166 -16.333 -17.499 -31s-6.5 -33 -6.5 -55c0 -34.667 6 -60 18 -76s31.667 -24 59 -24zM376.996 652l-227 64l29 80l218 -84z" />
    <glyph glyph-name="aacute" unicode="&#xe1;" horiz-adv-x="585" 
d="M214 -13c-30.667 0 -58.1699 7.33301 -82.5029 22s-43.5 36 -57.5 64s-21 61.667 -21 101c0 48 10 85.5 30 112.5s48.167 46.333 84.5 58s78.833 17.5 127.5 17.5h96c0 32 -1 58.5 -3 79.5s-6.66699 36.5 -14 46.5c-5.33301 8 -13.333 13.5 -24 16.5s-23.667 4.5 -39 4.5
c-25.333 0 -50.666 -2.33301 -75.999 -7s-48.5 -10.167 -69.5 -16.5s-37.667 -11.833 -50 -16.5l-18.5 -7l-30 79l19.5 8.5c13 5.66699 30.5 12.167 52.5 19.5s46.667 13.833 74 19.5s56 8.5 86 8.5c48.667 0 87.334 -8.83301 116.001 -26.5s49.334 -42.5 62.001 -74.5
s19 -70 19 -114v-382h-67l-15 62h-6c-4.66699 -3.33301 -13 -9 -25 -17s-26.667 -16.5 -44 -25.5s-36.5 -16.667 -57.5 -23s-43.5 -9.5 -67.5 -9.5zM237.997 76c22 0 43.499 3.5 64.499 10.5s39.5 14.5 55.5 22.5s27 13.667 33 17v147c-6 1.33301 -17.5 2.83301 -34.5 4.5
s-38.833 2.5 -65.5 2.5c-56.667 0 -92 -6 -106 -18c-7.33301 -6 -13.166 -16.333 -17.499 -31s-6.5 -33 -6.5 -55c0 -34.667 6 -60 18 -76s31.667 -24 59 -24zM189.996 652l-21 59l217 85l30 -80z" />
    <glyph glyph-name="acircumflex" unicode="&#xe2;" horiz-adv-x="585" 
d="M214 -13c-30.667 0 -58.1699 7.33301 -82.5029 22s-43.5 36 -57.5 64s-21 61.667 -21 101c0 48 10 85.5 30 112.5s48.167 46.333 84.5 58s78.833 17.5 127.5 17.5h96c0 32 -1 58.5 -3 79.5s-6.66699 36.5 -14 46.5c-5.33301 8 -13.333 13.5 -24 16.5s-23.667 4.5 -39 4.5
c-25.333 0 -50.666 -2.33301 -75.999 -7s-48.5 -10.167 -69.5 -16.5s-37.667 -11.833 -50 -16.5l-18.5 -7l-30 79l19.5 8.5c13 5.66699 30.5 12.167 52.5 19.5s46.667 13.833 74 19.5s56 8.5 86 8.5c48.667 0 87.334 -8.83301 116.001 -26.5s49.334 -42.5 62.001 -74.5
s19 -70 19 -114v-382h-67l-15 62h-6c-4.66699 -3.33301 -13 -9 -25 -17s-26.667 -16.5 -44 -25.5s-36.5 -16.667 -57.5 -23s-43.5 -9.5 -67.5 -9.5zM237.997 76c22 0 43.499 3.5 64.499 10.5s39.5 14.5 55.5 22.5s27 13.667 33 17v147c-6 1.33301 -17.5 2.83301 -34.5 4.5
s-38.833 2.5 -65.5 2.5c-56.667 0 -92 -6 -106 -18c-7.33301 -6 -13.166 -16.333 -17.499 -31s-6.5 -33 -6.5 -55c0 -34.667 6 -60 18 -76s31.667 -24 59 -24zM152.996 652l-30 43l135 107h57l135 -107l-30 -43l-130 69h-7z" />
    <glyph glyph-name="atilde" unicode="&#xe3;" horiz-adv-x="585" 
d="M214 -13c-30.667 0 -58.1699 7.33301 -82.5029 22s-43.5 36 -57.5 64s-21 61.667 -21 101c0 48 10 85.5 30 112.5s48.167 46.333 84.5 58s78.833 17.5 127.5 17.5h96c0 32 -1 58.5 -3 79.5s-6.66699 36.5 -14 46.5c-5.33301 8 -13.333 13.5 -24 16.5s-23.667 4.5 -39 4.5
c-25.333 0 -50.666 -2.33301 -75.999 -7s-48.5 -10.167 -69.5 -16.5s-37.667 -11.833 -50 -16.5l-18.5 -7l-30 79l19.5 8.5c13 5.66699 30.5 12.167 52.5 19.5s46.667 13.833 74 19.5s56 8.5 86 8.5c48.667 0 87.334 -8.83301 116.001 -26.5s49.334 -42.5 62.001 -74.5
s19 -70 19 -114v-382h-67l-15 62h-6c-4.66699 -3.33301 -13 -9 -25 -17s-26.667 -16.5 -44 -25.5s-36.5 -16.667 -57.5 -23s-43.5 -9.5 -67.5 -9.5zM237.997 76c22 0 43.499 3.5 64.499 10.5s39.5 14.5 55.5 22.5s27 13.667 33 17v147c-6 1.33301 -17.5 2.83301 -34.5 4.5
s-38.833 2.5 -65.5 2.5c-56.667 0 -92 -6 -106 -18c-7.33301 -6 -13.166 -16.333 -17.499 -31s-6.5 -33 -6.5 -55c0 -34.667 6 -60 18 -76s31.667 -24 59 -24zM375.996 669c-11.333 0 -25.6709 2.50098 -43.0039 7.50098s-34.666 10.667 -51.999 17l-46 17
c-13.333 5 -22.666 7.5 -27.999 7.5c-4.66699 0 -9.16699 -3.66699 -13.5 -11s-8 -14.833 -11 -22.5l-4.5 -11.5l-59 7c0.666992 40.667 8.16699 69.167 22.5 85.5s33.5 24.5 57.5 24.5c12.667 0 27.334 -2.33301 44.001 -7s33.334 -10 50.001 -16l45.5 -16.5
c13.667 -5 23.167 -7.5 28.5 -7.5c4.66699 0 9.16699 3.66699 13.5 11s8 14.666 11 21.999l4.5 11l59 -9c0 -40 -6.83301 -68.167 -20.5 -84.5s-33.167 -24.5 -58.5 -24.5z" />
    <glyph glyph-name="adieresis" unicode="&#xe4;" horiz-adv-x="585" 
d="M214 -13c-30.667 0 -58.1699 7.33301 -82.5029 22s-43.5 36 -57.5 64s-21 61.667 -21 101c0 48 10 85.5 30 112.5s48.167 46.333 84.5 58s78.833 17.5 127.5 17.5h96c0 32 -1 58.5 -3 79.5s-6.66699 36.5 -14 46.5c-5.33301 8 -13.333 13.5 -24 16.5s-23.667 4.5 -39 4.5
c-25.333 0 -50.666 -2.33301 -75.999 -7s-48.5 -10.167 -69.5 -16.5s-37.667 -11.833 -50 -16.5l-18.5 -7l-30 79l19.5 8.5c13 5.66699 30.5 12.167 52.5 19.5s46.667 13.833 74 19.5s56 8.5 86 8.5c48.667 0 87.334 -8.83301 116.001 -26.5s49.334 -42.5 62.001 -74.5
s19 -70 19 -114v-382h-67l-15 62h-6c-4.66699 -3.33301 -13 -9 -25 -17s-26.667 -16.5 -44 -25.5s-36.5 -16.667 -57.5 -23s-43.5 -9.5 -67.5 -9.5zM237.997 76c22 0 43.499 3.5 64.499 10.5s39.5 14.5 55.5 22.5s27 13.667 33 17v147c-6 1.33301 -17.5 2.83301 -34.5 4.5
s-38.833 2.5 -65.5 2.5c-56.667 0 -92 -6 -106 -18c-7.33301 -6 -13.166 -16.333 -17.499 -31s-6.5 -33 -6.5 -55c0 -34.667 6 -60 18 -76s31.667 -24 59 -24zM129.996 679v90h113v-90h-113zM327.996 679v90h113v-90h-113z" />
    <glyph glyph-name="aring" unicode="&#xe5;" horiz-adv-x="585" 
d="M214 -13c-30.667 0 -58.1699 7.33301 -82.5029 22s-43.5 36 -57.5 64s-21 61.667 -21 101c0 48 10 85.5 30 112.5s48.167 46.333 84.5 58s78.833 17.5 127.5 17.5h96c0 32 -1 58.5 -3 79.5s-6.66699 36.5 -14 46.5c-5.33301 8 -13.333 13.5 -24 16.5s-23.667 4.5 -39 4.5
c-25.333 0 -50.666 -2.33301 -75.999 -7s-48.5 -10.167 -69.5 -16.5s-37.667 -11.833 -50 -16.5l-18.5 -7l-30 79l19.5 8.5c13 5.66699 30.5 12.167 52.5 19.5s46.667 13.833 74 19.5s56 8.5 86 8.5c48.667 0 87.334 -8.83301 116.001 -26.5s49.334 -42.5 62.001 -74.5
s19 -70 19 -114v-382h-67l-15 62h-6c-4.66699 -3.33301 -13 -9 -25 -17s-26.667 -16.5 -44 -25.5s-36.5 -16.667 -57.5 -23s-43.5 -9.5 -67.5 -9.5zM237.997 76c22 0 43.499 3.5 64.499 10.5s39.5 14.5 55.5 22.5s27 13.667 33 17v147c-6 1.33301 -17.5 2.83301 -34.5 4.5
s-38.833 2.5 -65.5 2.5c-56.667 0 -92 -6 -106 -18c-7.33301 -6 -13.166 -16.333 -17.499 -31s-6.5 -33 -6.5 -55c0 -34.667 6 -60 18 -76s31.667 -24 59 -24zM287.996 645c-15.333 0 -29.833 2.66699 -43.5 8s-25 14.166 -34 26.499s-13.5 29.833 -13.5 52.5
c0 23.333 4.5 41.333 13.5 54s20.333 21.5 34 26.5s28.167 7.5 43.5 7.5c14.667 0 28.834 -2.5 42.501 -7.5s25 -13.833 34 -26.5s13.5 -30.667 13.5 -54c0 -22.667 -4.5 -40.167 -13.5 -52.5s-20.333 -21.166 -34 -26.499s-27.834 -8 -42.501 -8zM287.996 694
c12.667 0 21.834 2.5 27.501 7.5s8.5 15.167 8.5 30.5c0 16 -2.83301 26.333 -8.5 31s-14.834 7 -27.501 7c-13.333 0 -23 -2.33301 -29 -7s-9 -15 -9 -31c0 -15.333 3 -25.5 9 -30.5s15.667 -7.5 29 -7.5z" />
    <glyph glyph-name="ae" unicode="&#xe6;" horiz-adv-x="904" 
d="M220 -13c-49.333 0 -89.165 15.5 -119.498 46.5s-45.5 77.833 -45.5 140.5c0 44.667 10.167 79.667 30.5 105s48.666 43.5 84.999 54.5s78.166 16.5 125.499 16.5h97c0 40 -1 70.167 -3 90.5s-6.66699 35.833 -14 46.5c-6 8.66699 -14.167 14.5 -24.5 17.5
s-23.166 4.5 -38.499 4.5c-25.333 0 -50.833 -2.33301 -76.5 -7s-48.834 -10.167 -69.501 -16.5s-37.334 -11.833 -50.001 -16.5l-19 -7l-30 79l20 8.5c13.333 5.66699 31 12.167 53 19.5s46.333 13.833 73 19.5s53.334 8.5 80.001 8.5c42 0 76 -5.83301 102 -17.5
s46.333 -28.5 61 -50.5h4c22 24.667 47.333 42.167 76 52.5s60.334 15.5 95.001 15.5c45.333 0 83.833 -8.5 115.5 -25.5s55.834 -45.167 72.501 -84.5s25 -92.333 25 -159v-66h-345v-30c1.33301 -28.667 4.16602 -52 8.49902 -70s9.33301 -32 15 -42s10.5 -17.333 14.5 -22
c8.66699 -8 19 -13.833 31 -17.5s28.667 -5.5 50 -5.5c19.333 0 39.666 2 60.999 6s41.5 8.66699 60.5 14s34.5 10 46.5 14l18 6l26 -82l-16 -7c-10.667 -4.66699 -25.334 -10 -44.001 -16s-40 -11.333 -64 -16s-49.333 -7 -76 -7c-40 0 -76 6.16699 -108 18.5
s-58.667 33.833 -80 64.5h-6c-12.667 -8.66699 -30.167 -19.5 -52.5 -32.5s-47.666 -24.667 -75.999 -35s-57.833 -15.5 -88.5 -15.5zM241.001 77c20.667 0 41.334 3.00098 62.001 9.00098s39 12.833 55 20.5l35 16.5v138l-31.5 4c-15.667 2 -39.5 3 -71.5 3
c-26.667 0 -48.834 -1.5 -66.501 -4.5s-29.834 -7.5 -36.501 -13.5c-7.33301 -6 -13.166 -15.333 -17.499 -28s-6.5 -30.334 -6.5 -53.001c0 -33.333 6 -57 18 -71s32 -21 60 -21zM499.001 342.001l239 4c0 32.667 -1.5 60.667 -4.5 84s-8.5 41.333 -16.5 54
c-4.66699 6.66699 -13 12.667 -25 18s-31.333 8 -58 8c-30 0 -52.667 -3.16699 -68 -9.5s-27.333 -14.833 -36 -25.5c-10 -12 -17.5 -29.167 -22.5 -51.5s-7.83301 -49.5 -8.5 -81.5z" />
    <glyph glyph-name="ccedilla" unicode="&#xe7;" horiz-adv-x="526" 
d="M275 -179c-19.333 0 -37 1.50195 -53 4.50195l-24 4.5v70l12 -1c8 -0.666992 17.333 -1.5 28 -2.5s19.667 -1.5 27 -1.5c18.667 0 32 1.66699 40 5s12 11.666 12 24.999c0 16.667 -1.66699 33.167 -5 49.5s-6 28.166 -8 35.499l64 9c2 -4.66699 4.5 -12 7.5 -22
s5.83301 -21.333 8.5 -34s4 -25.667 4 -39c0 -31.333 -10.333 -56.333 -31 -75s-48 -28 -82 -28zM304 -12.998c-47.333 0 -89.1689 10.335 -125.502 31.002s-64.666 53.667 -84.999 99s-30.5 104.333 -30.5 177c0 60 6.83301 109.667 20.5 149s32.5 70.166 56.5 92.499
s52.167 38.166 84.5 47.499s66.5 14 102.5 14c28.667 0 56.834 -2 84.501 -6s49.5 -8 65.5 -12l-12 -84l-65 8.5c-28.667 3.66699 -58 5.5 -88 5.5c-25.333 0 -45.666 -2.16699 -60.999 -6.5s-27.333 -10.5 -36 -18.5c-12.667 -13.333 -23 -37 -31 -71s-12 -75 -12 -123
c0 -44.667 3.33301 -80.667 10 -108s14.667 -48 24 -62s17.666 -24 24.999 -30c4.66699 -3.33301 11.5 -6.83301 20.5 -10.5s21.5 -5.5 37.5 -5.5c18 0 37 2.5 57 7.5s38.667 10.5 56 16.5s31.333 11.333 42 16l16 7l31 -79l-23 -13.5c-15.333 -9 -37 -18.167 -65 -27.5
s-61 -14 -99 -14z" />
    <glyph glyph-name="egrave" unicode="&#xe8;" horiz-adv-x="583" 
d="M309 -14c-48 0 -90.499 9.83496 -127.499 29.502s-65.667 52.167 -86 97.5s-30.5 105.333 -30.5 180c0 78 10.833 139.167 32.5 183.5s50.667 75.666 87 93.999s77.166 27.5 122.499 27.5c46 0 85 -8.83301 117 -26.5s56.5 -46.667 73.5 -87s25.5 -94.5 25.5 -162.5v-69
h-396l48 17c-2 -38 -1 -68.833 3 -92.5s9.5 -41.834 16.5 -54.501s13.5 -21.667 19.5 -27c8 -7.33301 18.333 -13 31 -17s28 -6 46 -6c19.333 0 38.833 1.66699 58.5 5s38.167 7.33301 55.5 12s32.833 9.16699 46.5 13.5s24.167 7.5 31.5 9.5l26 -81
c-6 -2.66699 -18.5 -7.66699 -37.5 -15s-42.333 -14.333 -70 -21s-58.5 -10 -92.5 -10zM175.001 301.002l-48.001 31.001l337 7l-48 -33c0.666992 42.667 -0.166016 79 -2.49902 109s-8.5 52.667 -18.5 68c-4.66699 6.66699 -12.5 13 -23.5 19s-30.833 9 -59.5 9
c-31.333 0 -55 -3.33301 -71 -10s-28 -15.334 -36 -26.001c-22.667 -28.667 -32.667 -86.667 -30 -174zM398 652.003l-227 64l29 80l218 -84z" />
    <glyph glyph-name="eacute" unicode="&#xe9;" horiz-adv-x="583" 
d="M309 -14c-48 0 -90.499 9.83496 -127.499 29.502s-65.667 52.167 -86 97.5s-30.5 105.333 -30.5 180c0 78 10.833 139.167 32.5 183.5s50.667 75.666 87 93.999s77.166 27.5 122.499 27.5c46 0 85 -8.83301 117 -26.5s56.5 -46.667 73.5 -87s25.5 -94.5 25.5 -162.5v-69
h-396l48 17c-2 -38 -1 -68.833 3 -92.5s9.5 -41.834 16.5 -54.501s13.5 -21.667 19.5 -27c8 -7.33301 18.333 -13 31 -17s28 -6 46 -6c19.333 0 38.833 1.66699 58.5 5s38.167 7.33301 55.5 12s32.833 9.16699 46.5 13.5s24.167 7.5 31.5 9.5l26 -81
c-6 -2.66699 -18.5 -7.66699 -37.5 -15s-42.333 -14.333 -70 -21s-58.5 -10 -92.5 -10zM175.001 301.002l-48.001 31.001l337 7l-48 -33c0.666992 42.667 -0.166016 79 -2.49902 109s-8.5 52.667 -18.5 68c-4.66699 6.66699 -12.5 13 -23.5 19s-30.833 9 -59.5 9
c-31.333 0 -55 -3.33301 -71 -10s-28 -15.334 -36 -26.001c-22.667 -28.667 -32.667 -86.667 -30 -174zM210 652.003l-21 59l217 85l30 -80z" />
    <glyph glyph-name="ecircumflex" unicode="&#xea;" horiz-adv-x="583" 
d="M309 -14c-48 0 -90.499 9.83496 -127.499 29.502s-65.667 52.167 -86 97.5s-30.5 105.333 -30.5 180c0 78 10.833 139.167 32.5 183.5s50.667 75.666 87 93.999s77.166 27.5 122.499 27.5c46 0 85 -8.83301 117 -26.5s56.5 -46.667 73.5 -87s25.5 -94.5 25.5 -162.5v-69
h-396l48 17c-2 -38 -1 -68.833 3 -92.5s9.5 -41.834 16.5 -54.501s13.5 -21.667 19.5 -27c8 -7.33301 18.333 -13 31 -17s28 -6 46 -6c19.333 0 38.833 1.66699 58.5 5s38.167 7.33301 55.5 12s32.833 9.16699 46.5 13.5s24.167 7.5 31.5 9.5l26 -81
c-6 -2.66699 -18.5 -7.66699 -37.5 -15s-42.333 -14.333 -70 -21s-58.5 -10 -92.5 -10zM175.001 301.002l-48.001 31.001l337 7l-48 -33c0.666992 42.667 -0.166016 79 -2.49902 109s-8.5 52.667 -18.5 68c-4.66699 6.66699 -12.5 13 -23.5 19s-30.833 9 -59.5 9
c-31.333 0 -55 -3.33301 -71 -10s-28 -15.334 -36 -26.001c-22.667 -28.667 -32.667 -86.667 -30 -174zM173 652.003l-30 43l135 107h57l135 -107l-30 -43l-130 69h-7z" />
    <glyph glyph-name="edieresis" unicode="&#xeb;" horiz-adv-x="583" 
d="M309 -14c-48 0 -90.499 9.83496 -127.499 29.502s-65.667 52.167 -86 97.5s-30.5 105.333 -30.5 180c0 78 10.833 139.167 32.5 183.5s50.667 75.666 87 93.999s77.166 27.5 122.499 27.5c46 0 85 -8.83301 117 -26.5s56.5 -46.667 73.5 -87s25.5 -94.5 25.5 -162.5v-69
h-396l48 17c-2 -38 -1 -68.833 3 -92.5s9.5 -41.834 16.5 -54.501s13.5 -21.667 19.5 -27c8 -7.33301 18.333 -13 31 -17s28 -6 46 -6c19.333 0 38.833 1.66699 58.5 5s38.167 7.33301 55.5 12s32.833 9.16699 46.5 13.5s24.167 7.5 31.5 9.5l26 -81
c-6 -2.66699 -18.5 -7.66699 -37.5 -15s-42.333 -14.333 -70 -21s-58.5 -10 -92.5 -10zM175.001 301.002l-48.001 31.001l337 7l-48 -33c0.666992 42.667 -0.166016 79 -2.49902 109s-8.5 52.667 -18.5 68c-4.66699 6.66699 -12.5 13 -23.5 19s-30.833 9 -59.5 9
c-31.333 0 -55 -3.33301 -71 -10s-28 -15.334 -36 -26.001c-22.667 -28.667 -32.667 -86.667 -30 -174zM150 679.003v90h113v-90h-113zM348 679.003v90h113v-90h-113z" />
    <glyph glyph-name="igrave" unicode="&#xec;" horiz-adv-x="303" 
d="M238 654l-239 71l28 80l231 -91zM98 0v584h104v-584h-104z" />
    <glyph glyph-name="iacute" unicode="&#xed;" horiz-adv-x="303" 
d="M63 654l-21 59l231 93l29 -81zM98 0v584h104v-584h-104z" />
    <glyph glyph-name="icircumflex" unicode="&#xee;" horiz-adv-x="303" 
d="M32 654l-33 42l124 106h59l123 -106l-32 -42l-117 67h-7zM98 0v584h104v-584h-104z" />
    <glyph glyph-name="idieresis" unicode="&#xef;" horiz-adv-x="303" 
d="M0 679v90h114v-90h-114zM190 679v90h113v-90h-113zM98 0v584h104v-584h-104z" />
    <glyph glyph-name="eth" unicode="&#xf0;" horiz-adv-x="591" 
d="M295 -13c-58 0 -103.67 11.834 -137.003 35.501s-57.166 56.667 -71.499 99s-21.5 91.5 -21.5 147.5c0 48.667 7.16699 91.834 21.5 129.501s37.833 67.5 70.5 89.5s76.334 33 131.001 33c32.667 0 59.834 -4.5 81.501 -13.5s39.167 -18.167 52.5 -27.5l5 3
c-7.33301 23.333 -18 45.333 -32 66s-31.333 41 -52 61l-106 -56l-8 76l62 30c-11.333 8.66699 -22.833 16.834 -34.5 24.501l-33.5 21.5l53 62c17.333 -8.66699 34.166 -18.334 50.499 -29.001s31.5 -21.667 45.5 -33l105 60l7 -78l-61 -34
c27.333 -30 48.333 -64.833 63 -104.5s24.834 -81.334 30.501 -125.001s8.5 -86.834 8.5 -129.501c0 -62.667 -7 -117.167 -21 -163.5s-37.833 -82 -71.5 -107s-79.5 -37.5 -137.5 -37.5zM295.997 72.001c31.333 0 55.833 5 73.5 15s30.167 29.333 37.5 58s11 70 11 124
c0 44.667 -3.83301 78.834 -11.5 102.501s-20.5 40.167 -38.5 49.5s-42 14 -72 14s-54.167 -4.66699 -72.5 -14s-31.666 -25.833 -39.999 -49.5s-12.5 -57.834 -12.5 -102.501c0 -54 3.83301 -95.333 11.5 -124s20.667 -48 39 -58s43.166 -15 74.499 -15z" />
    <glyph glyph-name="ntilde" unicode="&#xf1;" horiz-adv-x="610" 
d="M94 0l-0.000976562 584.002h69l12 -58h5l34.5 19c14.333 8 31 16 50 24s39.167 14.667 60.5 20s43 8 65 8c38 0 67 -9.16699 87 -27.5s33.667 -43.5 41 -75.5s11 -68 11 -108v-386h-105v357c0 36 -0.666992 63.333 -2 82s-5.33301 33 -12 43
c-5.33301 7.33301 -12.5 12.333 -21.5 15s-18.833 4 -29.5 4c-20.667 0 -42 -3.33301 -64 -10s-41.667 -13.834 -59 -21.501s-29.666 -13.834 -36.999 -18.501v-451h-105zM396.999 669.002c-11.333 0 -25.6709 2.50098 -43.0039 7.50098s-34.666 10.667 -51.999 17l-46 17
c-13.333 5 -22.666 7.5 -27.999 7.5c-4.66699 0 -9.16699 -3.66699 -13.5 -11s-8 -14.833 -11 -22.5l-4.5 -11.5l-59 7c0.666992 40.667 8.16699 69.167 22.5 85.5s33.5 24.5 57.5 24.5c12.667 0 27.334 -2.33301 44.001 -7s33.334 -10 50.001 -16l45.5 -16.5
c13.667 -5 23.167 -7.5 28.5 -7.5c4.66699 0 9.16699 3.66699 13.5 11s8 14.666 11 21.999l4.5 11l59 -9c0 -40 -6.83301 -68.167 -20.5 -84.5s-33.167 -24.5 -58.5 -24.5z" />
    <glyph glyph-name="ograve" unicode="&#xf2;" horiz-adv-x="587" 
d="M294 -13c-58 0 -103.833 12.333 -137.5 37s-57.667 59.834 -72 105.501s-21.5 99.834 -21.5 162.501s7.16699 116.834 21.5 162.501s38.333 80.834 72 105.501s79.5 37 137.5 37s103.667 -12.333 137 -37s57 -59.834 71 -105.501s21 -99.834 21 -162.501
s-7 -116.834 -21 -162.501s-37.667 -80.834 -71 -105.501s-79 -37 -137 -37zM294 73c23.333 0 42.8311 2.83301 58.498 8.5s28.334 16.167 38.001 31.5s16.334 37.5 20.001 66.5s5.5 66.5 5.5 112.5s-2 83.5 -6 112.5s-10.667 51.167 -20 66.5s-21.833 25.833 -37.5 31.5
s-35.167 8.5 -58.5 8.5c-24 0 -43.833 -2.83301 -59.5 -8.5s-28.334 -16.167 -38.001 -31.5s-16.5 -37.5 -20.5 -66.5s-6 -66.5 -6 -112.5s2 -83.5 6 -112.5s10.833 -51.167 20.5 -66.5s22.334 -25.833 38.001 -31.5s35.5 -8.5 59.5 -8.5zM383.998 652l-227 64l29 80
l218 -84z" />
    <glyph glyph-name="oacute" unicode="&#xf3;" horiz-adv-x="587" 
d="M294 -13c-58 0 -103.833 12.333 -137.5 37s-57.667 59.834 -72 105.501s-21.5 99.834 -21.5 162.501s7.16699 116.834 21.5 162.501s38.333 80.834 72 105.501s79.5 37 137.5 37s103.667 -12.333 137 -37s57 -59.834 71 -105.501s21 -99.834 21 -162.501
s-7 -116.834 -21 -162.501s-37.667 -80.834 -71 -105.501s-79 -37 -137 -37zM294 73c23.333 0 42.8311 2.83301 58.498 8.5s28.334 16.167 38.001 31.5s16.334 37.5 20.001 66.5s5.5 66.5 5.5 112.5s-2 83.5 -6 112.5s-10.667 51.167 -20 66.5s-21.833 25.833 -37.5 31.5
s-35.167 8.5 -58.5 8.5c-24 0 -43.833 -2.83301 -59.5 -8.5s-28.334 -16.167 -38.001 -31.5s-16.5 -37.5 -20.5 -66.5s-6 -66.5 -6 -112.5s2 -83.5 6 -112.5s10.833 -51.167 20.5 -66.5s22.334 -25.833 38.001 -31.5s35.5 -8.5 59.5 -8.5zM207.998 652l-21 59l217 85l30 -80
z" />
    <glyph glyph-name="ocircumflex" unicode="&#xf4;" horiz-adv-x="587" 
d="M294 -13c-58 0 -103.833 12.333 -137.5 37s-57.667 59.834 -72 105.501s-21.5 99.834 -21.5 162.501s7.16699 116.834 21.5 162.501s38.333 80.834 72 105.501s79.5 37 137.5 37s103.667 -12.333 137 -37s57 -59.834 71 -105.501s21 -99.834 21 -162.501
s-7 -116.834 -21 -162.501s-37.667 -80.834 -71 -105.501s-79 -37 -137 -37zM294 73c23.333 0 42.8311 2.83301 58.498 8.5s28.334 16.167 38.001 31.5s16.334 37.5 20.001 66.5s5.5 66.5 5.5 112.5s-2 83.5 -6 112.5s-10.667 51.167 -20 66.5s-21.833 25.833 -37.5 31.5
s-35.167 8.5 -58.5 8.5c-24 0 -43.833 -2.83301 -59.5 -8.5s-28.334 -16.167 -38.001 -31.5s-16.5 -37.5 -20.5 -66.5s-6 -66.5 -6 -112.5s2 -83.5 6 -112.5s10.833 -51.167 20.5 -66.5s22.334 -25.833 38.001 -31.5s35.5 -8.5 59.5 -8.5zM158.998 652l-30 43l135 107h57
l135 -107l-30 -43l-130 69h-7z" />
    <glyph glyph-name="otilde" unicode="&#xf5;" horiz-adv-x="587" 
d="M294 -13c-58 0 -103.833 12.333 -137.5 37s-57.667 59.834 -72 105.501s-21.5 99.834 -21.5 162.501s7.16699 116.834 21.5 162.501s38.333 80.834 72 105.501s79.5 37 137.5 37s103.667 -12.333 137 -37s57 -59.834 71 -105.501s21 -99.834 21 -162.501
s-7 -116.834 -21 -162.501s-37.667 -80.834 -71 -105.501s-79 -37 -137 -37zM294 73c23.333 0 42.8311 2.83301 58.498 8.5s28.334 16.167 38.001 31.5s16.334 37.5 20.001 66.5s5.5 66.5 5.5 112.5s-2 83.5 -6 112.5s-10.667 51.167 -20 66.5s-21.833 25.833 -37.5 31.5
s-35.167 8.5 -58.5 8.5c-24 0 -43.833 -2.83301 -59.5 -8.5s-28.334 -16.167 -38.001 -31.5s-16.5 -37.5 -20.5 -66.5s-6 -66.5 -6 -112.5s2 -83.5 6 -112.5s10.833 -51.167 20.5 -66.5s22.334 -25.833 38.001 -31.5s35.5 -8.5 59.5 -8.5zM381.998 669
c-11.333 0 -25.6709 2.50098 -43.0039 7.50098s-34.666 10.667 -51.999 17l-46 17c-13.333 5 -22.666 7.5 -27.999 7.5c-4.66699 0 -9.16699 -3.66699 -13.5 -11s-8 -14.833 -11 -22.5l-4.5 -11.5l-59 7c0.666992 40.667 8.16699 69.167 22.5 85.5s33.5 24.5 57.5 24.5
c12.667 0 27.334 -2.33301 44.001 -7s33.334 -10 50.001 -16l45.5 -16.5c13.667 -5 23.167 -7.5 28.5 -7.5c4.66699 0 9.16699 3.66699 13.5 11s8 14.666 11 21.999l4.5 11l59 -9c0 -40 -6.83301 -68.167 -20.5 -84.5s-33.167 -24.5 -58.5 -24.5z" />
    <glyph glyph-name="odieresis" unicode="&#xf6;" horiz-adv-x="587" 
d="M294 -13c-58 0 -103.833 12.333 -137.5 37s-57.667 59.834 -72 105.501s-21.5 99.834 -21.5 162.501s7.16699 116.834 21.5 162.501s38.333 80.834 72 105.501s79.5 37 137.5 37s103.667 -12.333 137 -37s57 -59.834 71 -105.501s21 -99.834 21 -162.501
s-7 -116.834 -21 -162.501s-37.667 -80.834 -71 -105.501s-79 -37 -137 -37zM294 73c23.333 0 42.8311 2.83301 58.498 8.5s28.334 16.167 38.001 31.5s16.334 37.5 20.001 66.5s5.5 66.5 5.5 112.5s-2 83.5 -6 112.5s-10.667 51.167 -20 66.5s-21.833 25.833 -37.5 31.5
s-35.167 8.5 -58.5 8.5c-24 0 -43.833 -2.83301 -59.5 -8.5s-28.334 -16.167 -38.001 -31.5s-16.5 -37.5 -20.5 -66.5s-6 -66.5 -6 -112.5s2 -83.5 6 -112.5s10.833 -51.167 20.5 -66.5s22.334 -25.833 38.001 -31.5s35.5 -8.5 59.5 -8.5zM135.998 679v90h113v-90h-113z
M333.998 679v90h113v-90h-113z" />
    <glyph glyph-name="divide" unicode="&#xf7;" horiz-adv-x="627" 
d="M45 249v89h537v-89h-537zM249 36v99h129v-99h-129zM249 451v100h129v-100h-129z" />
    <glyph glyph-name="oslash" unicode="&#xf8;" horiz-adv-x="589" 
d="M93 -43l42 86l254 539l18 40h84l-39 -80l-253 -539l-21 -46h-85zM294 -13c-58 0 -103.834 12.333 -137.501 37s-57.5 59.834 -71.5 105.501s-21 99.834 -21 162.501s7 116.834 21 162.501s37.833 80.834 71.5 105.501s79.834 37 138.501 37c58 0 103.667 -12.333 137 -37
s57 -59.834 71 -105.501s21 -99.834 21 -162.501s-7 -116.834 -21 -162.501s-37.667 -80.834 -71 -105.501s-79.333 -37 -138 -37zM293.999 73c24 0 43.833 2.83301 59.5 8.5s28.167 16.167 37.5 31.5s16 37.5 20 66.5s6 66.5 6 112.5s-2 83.5 -6 112.5
s-10.667 51.167 -20 66.5s-21.833 25.833 -37.5 31.5s-35.5 8.5 -59.5 8.5c-23.333 0 -42.833 -2.83301 -58.5 -8.5s-28.334 -16.167 -38.001 -31.5s-16.667 -37.5 -21 -66.5s-6.5 -66.5 -6.5 -112.5s2.16699 -83.5 6.5 -112.5s11.333 -51.167 21 -66.5
s22.334 -25.833 38.001 -31.5s35.167 -8.5 58.5 -8.5z" />
    <glyph glyph-name="ugrave" unicode="&#xf9;" horiz-adv-x="610" 
d="M233 -13c-32 0 -59.501 7.33398 -82.501 22.001s-40.333 37.5 -52 68.5s-17.5 71.167 -17.5 120.5v386h105v-360c0 -34 1 -61 3 -81s5.66699 -34 11 -42c4.66699 -6.66699 11.667 -11.334 21 -14.001s20 -4 32 -4c26.667 0 53.834 5.33301 81.501 16s53.167 22 76.5 34
v451h104v-584h-69l-12 58h-6l-49.5 -27.5c-20.333 -11 -42.833 -21 -67.5 -30s-50.667 -13.5 -78 -13.5zM394.999 652.001l-227 64l29 80l218 -84z" />
    <glyph glyph-name="uacute" unicode="&#xfa;" horiz-adv-x="610" 
d="M233 -13c-32 0 -59.501 7.33398 -82.501 22.001s-40.333 37.5 -52 68.5s-17.5 71.167 -17.5 120.5v386h105v-360c0 -34 1 -61 3 -81s5.66699 -34 11 -42c4.66699 -6.66699 11.667 -11.334 21 -14.001s20 -4 32 -4c26.667 0 53.834 5.33301 81.501 16s53.167 22 76.5 34
v451h104v-584h-69l-12 58h-6l-49.5 -27.5c-20.333 -11 -42.833 -21 -67.5 -30s-50.667 -13.5 -78 -13.5zM217.999 652.001l-21 59l217 85l30 -80z" />
    <glyph glyph-name="ucircumflex" unicode="&#xfb;" horiz-adv-x="610" 
d="M233 -13c-32 0 -59.501 7.33398 -82.501 22.001s-40.333 37.5 -52 68.5s-17.5 71.167 -17.5 120.5v386h105v-360c0 -34 1 -61 3 -81s5.66699 -34 11 -42c4.66699 -6.66699 11.667 -11.334 21 -14.001s20 -4 32 -4c26.667 0 53.834 5.33301 81.501 16s53.167 22 76.5 34
v451h104v-584h-69l-12 58h-6l-49.5 -27.5c-20.333 -11 -42.833 -21 -67.5 -30s-50.667 -13.5 -78 -13.5zM170.999 652.001l-30 43l135 107h57l135 -107l-30 -43l-130 69h-7z" />
    <glyph glyph-name="udieresis" unicode="&#xfc;" horiz-adv-x="610" 
d="M233 -13c-32 0 -59.501 7.33398 -82.501 22.001s-40.333 37.5 -52 68.5s-17.5 71.167 -17.5 120.5v386h105v-360c0 -34 1 -61 3 -81s5.66699 -34 11 -42c4.66699 -6.66699 11.667 -11.334 21 -14.001s20 -4 32 -4c26.667 0 53.834 5.33301 81.501 16s53.167 22 76.5 34
v451h104v-584h-69l-12 58h-6l-49.5 -27.5c-20.333 -11 -42.833 -21 -67.5 -30s-50.667 -13.5 -78 -13.5zM145.999 679.001v90h113v-90h-113zM343.999 679.001v90h113v-90h-113z" />
    <glyph glyph-name="yacute" unicode="&#xfd;" horiz-adv-x="497" 
d="M117 -166l80 223l-189 527h110l126 -415h4l125 415h111l-199 -550l-58 -200h-110zM152 652l-21 59l217 85l30 -80z" />
    <glyph glyph-name="thorn" unicode="&#xfe;" horiz-adv-x="602" 
d="M97 -166l-0.000976562 921.001h102v-179c4.66699 2 15 4.66699 31 8s34.667 6.33301 56 9s41.333 4 60 4c62.667 0 110.5 -23.5 143.5 -70.5s49.5 -123.833 49.5 -230.5c0 -62.667 -6.16699 -114.167 -18.5 -154.5s-28.833 -71.833 -49.5 -94.5s-44 -38.334 -70 -47.001
s-52.333 -13 -79 -13c-14 0 -32.167 1.33301 -54.5 4s-45.166 6 -68.499 10v-167h-102zM321.999 76.001c18.667 0 32.833 1.16797 42.5 3.50098s17.167 5.83301 22.5 10.5c6 6 12.5 16.5 19.5 31.5s12.667 37.167 17 66.5s6.5 67.666 6.5 114.999c0 42 -1.16699 76 -3.5 102
s-5.66602 45.667 -9.99902 59s-9.5 22.666 -15.5 27.999c-6 4.66699 -15 8.33398 -27 11.001s-25.333 4 -40 4c-20 0 -38.5 -1.33301 -55.5 -4s-32.167 -5.83398 -45.5 -9.50098l-34 -9.5v-393c17.333 -3.33301 36.166 -6.66602 56.499 -9.99902s42.5 -5 66.5 -5z" />
    <glyph glyph-name="ydieresis" unicode="&#xff;" horiz-adv-x="496" 
d="M117 -166l80 223l-189 527h110l126 -415h4l125 415h111l-199 -550l-58 -200h-110zM90 679v90h113v-90h-113zM288 679v90h113v-90h-113z" />
    <glyph glyph-name="Amacron" unicode="&#x100;" horiz-adv-x="526" 
d="M0 0l190 697h144l190 -697h-108l-54 213l56 -37h-310l54 37l-53 -213h-109zM163 219l-36 48h271l-36 -48l-108 429l59 -46h-101l58 46zM92 769v75h342v-75h-342z" />
    <glyph glyph-name="amacron" unicode="&#x101;" horiz-adv-x="585" 
d="M214 -13c-30.667 0 -58.1699 7.33301 -82.5029 22s-43.5 36 -57.5 64s-21 61.667 -21 101c0 48 10 85.5 30 112.5s48.167 46.333 84.5 58s78.833 17.5 127.5 17.5h96c0 32 -1 58.5 -3 79.5s-6.66699 36.5 -14 46.5c-5.33301 8 -13.333 13.5 -24 16.5s-23.667 4.5 -39 4.5
c-25.333 0 -50.666 -2.33301 -75.999 -7s-48.5 -10.167 -69.5 -16.5s-37.667 -11.833 -50 -16.5l-18.5 -7l-30 79l19.5 8.5c13 5.66699 30.5 12.167 52.5 19.5s46.667 13.833 74 19.5s56 8.5 86 8.5c48.667 0 87.334 -8.83301 116.001 -26.5s49.334 -42.5 62.001 -74.5
s19 -70 19 -114v-382h-67l-15 62h-6c-4.66699 -3.33301 -13 -9 -25 -17s-26.667 -16.5 -44 -25.5s-36.5 -16.667 -57.5 -23s-43.5 -9.5 -67.5 -9.5zM237.997 76c22 0 43.499 3.5 64.499 10.5s39.5 14.5 55.5 22.5s27 13.667 33 17v147c-6 1.33301 -17.5 2.83301 -34.5 4.5
s-38.833 2.5 -65.5 2.5c-56.667 0 -92 -6 -106 -18c-7.33301 -6 -13.166 -16.333 -17.499 -31s-6.5 -33 -6.5 -55c0 -34.667 6 -60 18 -76s31.667 -24 59 -24zM115.996 683v75h342v-75h-342z" />
    <glyph glyph-name="Abreve" unicode="&#x102;" horiz-adv-x="526" 
d="M0 0l190 697h144l190 -697h-108l-54 213l56 -37h-310l54 37l-53 -213h-109zM163 219l-36 48h271l-36 -48l-108 429l59 -46h-101l58 46zM263 741c-27.333 0 -53.166 4.83301 -77.499 14.5s-44.166 24.834 -59.499 45.501s-24 47.667 -26 81l64 5
c4 -26 14.667 -44.167 32 -54.5s39.666 -15.5 66.999 -15.5s49.666 5.16699 66.999 15.5s28 28.5 32 54.5l64 -5c-2 -33.333 -11 -60.333 -27 -81s-35.833 -35.834 -59.5 -45.501s-49.167 -14.5 -76.5 -14.5z" />
    <glyph glyph-name="abreve" unicode="&#x103;" horiz-adv-x="585" 
d="M214 -13c-30.667 0 -58.1699 7.33301 -82.5029 22s-43.5 36 -57.5 64s-21 61.667 -21 101c0 48 10 85.5 30 112.5s48.167 46.333 84.5 58s78.833 17.5 127.5 17.5h96c0 32 -1 58.5 -3 79.5s-6.66699 36.5 -14 46.5c-5.33301 8 -13.333 13.5 -24 16.5s-23.667 4.5 -39 4.5
c-25.333 0 -50.666 -2.33301 -75.999 -7s-48.5 -10.167 -69.5 -16.5s-37.667 -11.833 -50 -16.5l-18.5 -7l-30 79l19.5 8.5c13 5.66699 30.5 12.167 52.5 19.5s46.667 13.833 74 19.5s56 8.5 86 8.5c48.667 0 87.334 -8.83301 116.001 -26.5s49.334 -42.5 62.001 -74.5
s19 -70 19 -114v-382h-67l-15 62h-6c-4.66699 -3.33301 -13 -9 -25 -17s-26.667 -16.5 -44 -25.5s-36.5 -16.667 -57.5 -23s-43.5 -9.5 -67.5 -9.5zM237.997 76c22 0 43.499 3.5 64.499 10.5s39.5 14.5 55.5 22.5s27 13.667 33 17v147c-6 1.33301 -17.5 2.83301 -34.5 4.5
s-38.833 2.5 -65.5 2.5c-56.667 0 -92 -6 -106 -18c-7.33301 -6 -13.166 -16.333 -17.499 -31s-6.5 -33 -6.5 -55c0 -34.667 6 -60 18 -76s31.667 -24 59 -24zM287.996 653c-27.333 0 -53.168 4.83301 -77.501 14.5s-44.166 25.5 -59.499 47.5s-24 51 -26 87l64 7
c3.33301 -30 13.833 -50.667 31.5 -62s40.167 -17 67.5 -17c26.667 0 48.834 5.66699 66.501 17s28.167 32 31.5 62l64 -7c-2 -36 -10.833 -65 -26.5 -87s-35.334 -37.833 -59.001 -47.5s-49.167 -14.5 -76.5 -14.5z" />
    <glyph glyph-name="Aogonek" unicode="&#x104;" horiz-adv-x="526" 
d="M0 0l190 697h144l190 -697h-108l-54 213l56 -37h-310l54 37l-53 -213h-109zM163 219l-36 48h271l-36 -48l-108 429l59 -46h-101l58 46zM455 -179c-30 0 -54.501 6.16797 -73.501 18.501s-28.5 32.166 -28.5 59.499c0 17.333 5.66699 33.833 17 49.5
s25.833 29.667 43.5 42s35.834 22.5 54.501 30.5l54 -21c-28 -10 -51 -22.667 -69 -38s-27 -29.333 -27 -42c0 -10.667 4.16699 -18 12.5 -22s19.5 -6 33.5 -6c10.667 0 21.667 0.666992 33 2l17 2v-67l-19 -4c-12.667 -2.66699 -28.667 -4 -48 -4z" />
    <glyph glyph-name="aogonek" unicode="&#x105;" horiz-adv-x="585" 
d="M214 -13c-30.667 0 -58.1699 7.33301 -82.5029 22s-43.5 36 -57.5 64s-21 61.667 -21 101c0 48 10 85.5 30 112.5s48.167 46.333 84.5 58s78.833 17.5 127.5 17.5h96c0 32 -1 58.5 -3 79.5s-6.66699 36.5 -14 46.5c-5.33301 8 -13.333 13.5 -24 16.5s-23.667 4.5 -39 4.5
c-25.333 0 -50.666 -2.33301 -75.999 -7s-48.5 -10.167 -69.5 -16.5s-37.667 -11.833 -50 -16.5l-18.5 -7l-30 79l19.5 8.5c13 5.66699 30.5 12.167 52.5 19.5s46.667 13.833 74 19.5s56 8.5 86 8.5c48.667 0 87.334 -8.83301 116.001 -26.5s49.334 -42.5 62.001 -74.5
s19 -70 19 -114v-382h-67l-15 62h-6c-4.66699 -3.33301 -13 -9 -25 -17s-26.667 -16.5 -44 -25.5s-36.5 -16.667 -57.5 -23s-43.5 -9.5 -67.5 -9.5zM237.997 76c22 0 43.499 3.5 64.499 10.5s39.5 14.5 55.5 22.5s27 13.667 33 17v147c-6 1.33301 -17.5 2.83301 -34.5 4.5
s-38.833 2.5 -65.5 2.5c-56.667 0 -92 -6 -106 -18c-7.33301 -6 -13.166 -16.333 -17.499 -31s-6.5 -33 -6.5 -55c0 -34.667 6 -60 18 -76s31.667 -24 59 -24zM428.996 -179c-30 0 -54.501 6.16797 -73.501 18.501s-28.5 32.166 -28.5 59.499
c0 17.333 5.66699 33.833 17 49.5s25.833 29.667 43.5 42s35.834 22.5 54.501 30.5l54 -21c-28 -10 -51 -22.667 -69 -38s-27 -29.333 -27 -42c0 -10.667 4.16699 -18 12.5 -22s19.5 -6 33.5 -6c10.667 0 21.667 0.666992 33 2l17 2v-67l-19 -4
c-12.667 -2.66699 -28.667 -4 -48 -4z" />
    <glyph glyph-name="Cacute" unicode="&#x106;" horiz-adv-x="594" 
d="M320 -14c-50 0 -94.002 11.6689 -132.002 35.002s-68 61 -90 113s-33 121.333 -33 208c0 76 6.83301 138.167 20.5 186.5s32.667 85.833 57 112.5s53 45 86 55s68.833 15 107.5 15c16 0 35.5 -0.833008 58.5 -2.5s45.667 -4 68 -7s39.5 -6.16699 51.5 -9.5l-12 -88
l-31.5 3c-14.333 1.33301 -30 2.66602 -47 3.99902s-33 2.5 -48 3.5s-26.5 1.5 -34.5 1.5c-31.333 0 -56.166 -1.5 -74.499 -4.5s-31.833 -9.5 -40.5 -19.5c-8.66699 -9.33301 -16.834 -23.666 -24.501 -42.999s-13.667 -45.833 -18 -79.5s-6.5 -77.167 -6.5 -130.5
c0 -67.333 6.33301 -120.833 19 -160.5s25.334 -65.5 38.001 -77.5c8.66699 -8 19.334 -13.833 32.001 -17.5s27.667 -5.5 45 -5.5c24 0 47.833 2.66699 71.5 8s45 11.666 64 18.999s34.167 13.666 45.5 18.999l17 8l34 -82l-16 -9.5
c-10.667 -6.33301 -25.834 -13.833 -45.501 -22.5s-43.167 -16.167 -70.5 -22.5s-57.666 -9.5 -90.999 -9.5zM223.998 738.002l-19 61l246 80l28 -84z" />
    <glyph glyph-name="cacute" unicode="&#x107;" horiz-adv-x="526" 
d="M304 -13c-47.333 0 -89.1689 10.335 -125.502 31.002s-64.666 53.667 -84.999 99s-30.5 104.333 -30.5 177c0 60 6.83301 109.667 20.5 149s32.5 70.166 56.5 92.499s52.167 38.166 84.5 47.499s66.5 14 102.5 14c28.667 0 56.834 -2 84.501 -6s49.5 -8 65.5 -12l-12 -84
l-65 8.5c-28.667 3.66699 -58 5.5 -88 5.5c-25.333 0 -45.666 -2.16699 -60.999 -6.5s-27.333 -10.5 -36 -18.5c-12.667 -13.333 -23 -37 -31 -71s-12 -75 -12 -123c0 -44.667 3.33301 -80.667 10 -108s14.667 -48 24 -62s17.666 -24 24.999 -30
c4.66699 -3.33301 11.5 -6.83301 20.5 -10.5s21.5 -5.5 37.5 -5.5c18 0 37 2.5 57 7.5s38.667 10.5 56 16.5s31.333 11.333 42 16l16 7l31 -79l-23 -13.5c-15.333 -9 -37 -18.167 -65 -27.5s-61 -14 -99 -14zM194.997 652.002l-21 59l217 85l30 -80z" />
    <glyph glyph-name="Cdotaccent" unicode="&#x10a;" horiz-adv-x="594" 
d="M320 -14c-50 0 -94.002 11.6689 -132.002 35.002s-68 61 -90 113s-33 121.333 -33 208c0 76 6.83301 138.167 20.5 186.5s32.667 85.833 57 112.5s53 45 86 55s68.833 15 107.5 15c16 0 35.5 -0.833008 58.5 -2.5s45.667 -4 68 -7s39.5 -6.16699 51.5 -9.5l-12 -88
l-31.5 3c-14.333 1.33301 -30 2.66602 -47 3.99902s-33 2.5 -48 3.5s-26.5 1.5 -34.5 1.5c-31.333 0 -56.166 -1.5 -74.499 -4.5s-31.833 -9.5 -40.5 -19.5c-8.66699 -9.33301 -16.834 -23.666 -24.501 -42.999s-13.667 -45.833 -18 -79.5s-6.5 -77.167 -6.5 -130.5
c0 -67.333 6.33301 -120.833 19 -160.5s25.334 -65.5 38.001 -77.5c8.66699 -8 19.334 -13.833 32.001 -17.5s27.667 -5.5 45 -5.5c24 0 47.833 2.66699 71.5 8s45 11.666 64 18.999s34.167 13.666 45.5 18.999l17 8l34 -82l-16 -9.5
c-10.667 -6.33301 -25.834 -13.833 -45.501 -22.5s-43.167 -16.167 -70.5 -22.5s-57.666 -9.5 -90.999 -9.5zM269.998 762.002v90h120v-90h-120z" />
    <glyph glyph-name="cdotaccent" unicode="&#x10b;" horiz-adv-x="526" 
d="M304 -13c-47.333 0 -89.1689 10.335 -125.502 31.002s-64.666 53.667 -84.999 99s-30.5 104.333 -30.5 177c0 60 6.83301 109.667 20.5 149s32.5 70.166 56.5 92.499s52.167 38.166 84.5 47.499s66.5 14 102.5 14c28.667 0 56.834 -2 84.501 -6s49.5 -8 65.5 -12l-12 -84
l-65 8.5c-28.667 3.66699 -58 5.5 -88 5.5c-25.333 0 -45.666 -2.16699 -60.999 -6.5s-27.333 -10.5 -36 -18.5c-12.667 -13.333 -23 -37 -31 -71s-12 -75 -12 -123c0 -44.667 3.33301 -80.667 10 -108s14.667 -48 24 -62s17.666 -24 24.999 -30
c4.66699 -3.33301 11.5 -6.83301 20.5 -10.5s21.5 -5.5 37.5 -5.5c18 0 37 2.5 57 7.5s38.667 10.5 56 16.5s31.333 11.333 42 16l16 7l31 -79l-23 -13.5c-15.333 -9 -37 -18.167 -65 -27.5s-61 -14 -99 -14zM253.997 677.002v92h120v-92h-120z" />
    <glyph glyph-name="Ccaron" unicode="&#x10c;" horiz-adv-x="594" 
d="M320 -14c-50 0 -94.002 11.6689 -132.002 35.002s-68 61 -90 113s-33 121.333 -33 208c0 76 6.83301 138.167 20.5 186.5s32.667 85.833 57 112.5s53 45 86 55s68.833 15 107.5 15c16 0 35.5 -0.833008 58.5 -2.5s45.667 -4 68 -7s39.5 -6.16699 51.5 -9.5l-12 -88
l-31.5 3c-14.333 1.33301 -30 2.66602 -47 3.99902s-33 2.5 -48 3.5s-26.5 1.5 -34.5 1.5c-31.333 0 -56.166 -1.5 -74.499 -4.5s-31.833 -9.5 -40.5 -19.5c-8.66699 -9.33301 -16.834 -23.666 -24.501 -42.999s-13.667 -45.833 -18 -79.5s-6.5 -77.167 -6.5 -130.5
c0 -67.333 6.33301 -120.833 19 -160.5s25.334 -65.5 38.001 -77.5c8.66699 -8 19.334 -13.833 32.001 -17.5s27.667 -5.5 45 -5.5c24 0 47.833 2.66699 71.5 8s45 11.666 64 18.999s34.167 13.666 45.5 18.999l17 8l34 -82l-16 -9.5
c-10.667 -6.33301 -25.834 -13.833 -45.501 -22.5s-43.167 -16.167 -70.5 -22.5s-57.666 -9.5 -90.999 -9.5zM300.998 747.002l-135 96l30 45l130 -60h7l131 60l29 -45l-135 -96h-57z" />
    <glyph glyph-name="ccaron" unicode="&#x10d;" horiz-adv-x="526" 
d="M304 -13c-47.333 0 -89.1689 10.335 -125.502 31.002s-64.666 53.667 -84.999 99s-30.5 104.333 -30.5 177c0 60 6.83301 109.667 20.5 149s32.5 70.166 56.5 92.499s52.167 38.166 84.5 47.499s66.5 14 102.5 14c28.667 0 56.834 -2 84.501 -6s49.5 -8 65.5 -12l-12 -84
l-65 8.5c-28.667 3.66699 -58 5.5 -88 5.5c-25.333 0 -45.666 -2.16699 -60.999 -6.5s-27.333 -10.5 -36 -18.5c-12.667 -13.333 -23 -37 -31 -71s-12 -75 -12 -123c0 -44.667 3.33301 -80.667 10 -108s14.667 -48 24 -62s17.666 -24 24.999 -30
c4.66699 -3.33301 11.5 -6.83301 20.5 -10.5s21.5 -5.5 37.5 -5.5c18 0 37 2.5 57 7.5s38.667 10.5 56 16.5s31.333 11.333 42 16l16 7l31 -79l-23 -13.5c-15.333 -9 -37 -18.167 -65 -27.5s-61 -14 -99 -14zM283.997 661.002l-135 108l30 42l130 -69h7l130 69l30 -42
l-135 -108h-57z" />
    <glyph glyph-name="Dcaron" unicode="&#x10e;" horiz-adv-x="644" 
d="M308 -14c-16.667 0 -35.666 0.498047 -56.999 1.49805s-42.5 2.33301 -63.5 4s-39.667 3.33398 -56 5.00098s-27.5 2.83398 -33.5 3.50098v698c5.33301 0 15.833 0.666992 31.5 2s34.5 2.83301 56.5 4.5s44.833 3.16699 68.5 4.5s45.167 2 64.5 2c54 0 98 -9.5 132 -28.5
s60.167 -44.833 78.5 -77.5s31 -70.334 38 -113.001s10.5 -87.667 10.5 -135c0 -92 -11.5 -165.167 -34.5 -219.5s-54.833 -93.166 -95.5 -116.499s-87.334 -35 -140.001 -35zM303.001 77.998c32 0 56 2.33203 72 6.99902s28 10.667 36 18
c9.33301 8.66699 17.833 22.334 25.5 41.001s14 45.667 19 81s7.5 81.333 7.5 138c0 58 -3.83301 108.5 -11.5 151.5s-20.167 71.5 -37.5 85.5c-6.66699 5.33301 -16.667 9.83301 -30 13.5s-34.333 5.5 -63 5.5s-54 -1 -76 -3s-41 -4 -57 -6l16 50v-621l-19 50
c18 -2 35.833 -4.33301 53.5 -7s39.167 -4 64.5 -4zM285.001 746.997l-135 96l30 45l130 -60h7l131 60l29 -45l-135 -96h-57z" />
    <glyph glyph-name="dcaron" unicode="&#x10f;" horiz-adv-x="646" 
d="M253 -13c-36.667 0 -69.166 10.5 -97.499 31.5s-50.833 53.333 -67.5 97s-25 99.5 -25 167.5c0 64 6.33301 116.5 19 157.5s29.5 72.833 50.5 95.5s44.167 38.5 69.5 47.5s51 13.5 77 13.5c21.333 0 40.5 -1.33301 57.5 -4s31.5 -5.5 43.5 -8.5s20.333 -5.83301 25 -8.5
v179h105v-755h-69l-12 59h-5l-40 -28c-16.667 -11.333 -35.834 -21.5 -57.501 -30.5s-46.167 -13.5 -73.5 -13.5zM265.001 77c12.667 0 25.9971 1.83496 39.9971 5.50195s27.667 8.16699 41 13.5s25.333 10.666 36 15.999s18.334 9.33301 23.001 12v358
c-5.33301 2.66699 -14.666 6 -27.999 10s-28.833 7.5 -46.5 10.5s-36.167 4.5 -55.5 4.5c-34 0 -57 -7.33301 -69 -22c-5.33301 -6.66699 -10.666 -17.5 -15.999 -32.5s-9.66602 -36.333 -12.999 -64s-5 -64.167 -5 -109.5c0 -50.667 2.33301 -89.167 7 -115.5
s10.334 -44.5 17.001 -54.5s12 -16.667 16 -20c5.33301 -4.66699 12.666 -7.83398 21.999 -9.50098s19.666 -2.5 30.999 -2.5zM591.998 538.002l-16 217h96l-19 -217h-61z" />
    <glyph glyph-name="Dcroat" unicode="&#x110;" horiz-adv-x="656" 
d="M45 315v83h283v-83h-283zM320 -14c-16 0 -34.832 0.499023 -56.499 1.49902s-43 2.33301 -64 4s-39.5 3.33398 -55.5 5.00098l-33 3.5v698c4.66699 0 15 0.666992 31 2s35 2.83301 57 4.5s44.833 3.16699 68.5 4.5s44.834 2 63.501 2c54 0 98.167 -9.5 132.5 -28.5
s60.666 -44.833 78.999 -77.5s31 -70.334 38 -113.001s10.5 -87.667 10.5 -135c0 -92 -11.667 -165.167 -35 -219.5s-55.333 -93.166 -96 -116.499s-87.334 -35 -140.001 -35zM315.001 77.999c32 0 56.168 2.33203 72.501 6.99902s28.5 10.667 36.5 18
c8.66699 8.66699 17 22.334 25 41.001s14.5 45.667 19.5 81s7.5 81.333 7.5 138c0 58 -4 108.5 -12 151.5s-20.667 71.5 -38 85.5c-6 5.33301 -15.833 9.83301 -29.5 13.5s-34.834 5.5 -63.501 5.5s-54 -1 -76 -3s-41 -4 -57 -6l16 50v-621l-18 50
c17.333 -2 34.833 -4.33301 52.5 -7s39.167 -4 64.5 -4z" />
    <glyph glyph-name="dcroat" unicode="&#x111;" horiz-adv-x="595" 
d="M610 699v-72l-160 3l-209 -3v72h369zM253 -13c-36.667 0 -69.166 10.5 -97.499 31.5s-50.833 53.333 -67.5 97s-25 99.5 -25 167.5c0 64 6.33301 116.5 19 157.5s29.5 72.833 50.5 95.5s44.167 38.5 69.5 47.5s51 13.5 77 13.5c21.333 0 40.5 -1.33301 57.5 -4
s31.5 -5.5 43.5 -8.5s20.333 -5.83301 25 -8.5v179h105v-755h-69l-12 59h-5l-40 -28c-16.667 -11.333 -35.834 -21.5 -57.501 -30.5s-46.167 -13.5 -73.5 -13.5zM265.001 77c12.667 0 25.9971 1.83496 39.9971 5.50195s27.667 8.16699 41 13.5s25.333 10.666 36 15.999
s18.334 9.33301 23.001 12v358c-5.33301 2.66699 -14.666 6 -27.999 10s-28.833 7.5 -46.5 10.5s-36.167 4.5 -55.5 4.5c-34 0 -57 -7.33301 -69 -22c-5.33301 -6.66699 -10.666 -17.5 -15.999 -32.5s-9.66602 -36.333 -12.999 -64s-5 -64.167 -5 -109.5
c0 -50.667 2.33301 -89.167 7 -115.5s10.334 -44.5 17.001 -54.5s12 -16.667 16 -20c5.33301 -4.66699 12.666 -7.83398 21.999 -9.50098s19.666 -2.5 30.999 -2.5z" />
    <glyph glyph-name="Emacron" unicode="&#x112;" horiz-adv-x="525" 
d="M98 0v697h366v-92l-307 4l49 47l-8 -296l-46 39h287v-89h-287l46 41l8 -309l-49 48l307 2v-92h-366zM112 769v75h342v-75h-342z" />
    <glyph glyph-name="emacron" unicode="&#x113;" horiz-adv-x="583" 
d="M309 -14c-48 0 -90.499 9.83496 -127.499 29.502s-65.667 52.167 -86 97.5s-30.5 105.333 -30.5 180c0 78 10.833 139.167 32.5 183.5s50.667 75.666 87 93.999s77.166 27.5 122.499 27.5c46 0 85 -8.83301 117 -26.5s56.5 -46.667 73.5 -87s25.5 -94.5 25.5 -162.5v-69
h-396l48 17c-2 -38 -1 -68.833 3 -92.5s9.5 -41.834 16.5 -54.501s13.5 -21.667 19.5 -27c8 -7.33301 18.333 -13 31 -17s28 -6 46 -6c19.333 0 38.833 1.66699 58.5 5s38.167 7.33301 55.5 12s32.833 9.16699 46.5 13.5s24.167 7.5 31.5 9.5l26 -81
c-6 -2.66699 -18.5 -7.66699 -37.5 -15s-42.333 -14.333 -70 -21s-58.5 -10 -92.5 -10zM175.001 301.002l-48.001 31.001l337 7l-48 -33c0.666992 42.667 -0.166016 79 -2.49902 109s-8.5 52.667 -18.5 68c-4.66699 6.66699 -12.5 13 -23.5 19s-30.833 9 -59.5 9
c-31.333 0 -55 -3.33301 -71 -10s-28 -15.334 -36 -26.001c-22.667 -28.667 -32.667 -86.667 -30 -174zM137 683.003v75h342v-75h-342z" />
    <glyph glyph-name="Edotaccent" unicode="&#x116;" horiz-adv-x="525" 
d="M98 0v697h366v-92l-307 4l49 47l-8 -296l-46 39h287v-89h-287l46 41l8 -309l-49 48l307 2v-92h-366zM222 762v90h120v-90h-120z" />
    <glyph glyph-name="edotaccent" unicode="&#x117;" horiz-adv-x="581" 
d="M309 -14c-48 0 -90.499 9.83496 -127.499 29.502s-65.667 52.167 -86 97.5s-30.5 105.333 -30.5 180c0 78 10.833 139.167 32.5 183.5s50.667 75.666 87 93.999s77.166 27.5 122.499 27.5c46 0 85 -8.83301 117 -26.5s56.5 -46.667 73.5 -87s25.5 -94.5 25.5 -162.5v-69
h-396l48 17c-2 -38 -1 -68.833 3 -92.5s9.5 -41.834 16.5 -54.501s13.5 -21.667 19.5 -27c8 -7.33301 18.333 -13 31 -17s28 -6 46 -6c19.333 0 38.833 1.66699 58.5 5s38.167 7.33301 55.5 12s32.833 9.16699 46.5 13.5s24.167 7.5 31.5 9.5l26 -81
c-6 -2.66699 -18.5 -7.66699 -37.5 -15s-42.333 -14.333 -70 -21s-58.5 -10 -92.5 -10zM175.001 301.002l-48.001 31.001l337 7l-48 -33c0.666992 42.667 -0.166016 79 -2.49902 109s-8.5 52.667 -18.5 68c-4.66699 6.66699 -12.5 13 -23.5 19s-30.833 9 -59.5 9
c-31.333 0 -55 -3.33301 -71 -10s-28 -15.334 -36 -26.001c-22.667 -28.667 -32.667 -86.667 -30 -174zM248 677.003v92h120v-92h-120z" />
    <glyph glyph-name="Eogonek" unicode="&#x118;" horiz-adv-x="525" 
d="M98 0v697h366v-92l-307 4l49 47l-8 -296l-46 39h287v-89h-287l46 41l8 -309l-49 48l307 2v-92h-366zM397 -179c-30 0 -54.501 6.16797 -73.501 18.501s-28.5 32.166 -28.5 59.499c0 17.333 5.66699 33.833 17 49.5s25.833 29.667 43.5 42s35.834 22.5 54.501 30.5l54 -21
c-28 -10 -51 -22.667 -69 -38s-27 -29.333 -27 -42c0 -10.667 4.16699 -18 12.5 -22s19.5 -6 33.5 -6c10.667 0 21.667 0.666992 33 2l17 2v-67l-19 -4c-12.667 -2.66699 -28.667 -4 -48 -4z" />
    <glyph glyph-name="eogonek" unicode="&#x119;" horiz-adv-x="583" 
d="M309 -14c-48 0 -90.499 9.83496 -127.499 29.502s-65.667 52.167 -86 97.5s-30.5 105.333 -30.5 180c0 78 10.833 139.167 32.5 183.5s50.667 75.666 87 93.999s77.166 27.5 122.499 27.5c46 0 85 -8.83301 117 -26.5s56.5 -46.667 73.5 -87s25.5 -94.5 25.5 -162.5v-69
h-396l48 17c-2 -38 -1 -68.833 3 -92.5s9.5 -41.834 16.5 -54.501s13.5 -21.667 19.5 -27c8 -7.33301 18.333 -13 31 -17s28 -6 46 -6c19.333 0 38.833 1.66699 58.5 5s38.167 7.33301 55.5 12s32.833 9.16699 46.5 13.5s24.167 7.5 31.5 9.5l26 -81
c-6 -2.66699 -18.5 -7.66699 -37.5 -15s-42.333 -14.333 -70 -21s-58.5 -10 -92.5 -10zM175.001 301.002l-48.001 31.001l337 7l-48 -33c0.666992 42.667 -0.166016 79 -2.49902 109s-8.5 52.667 -18.5 68c-4.66699 6.66699 -12.5 13 -23.5 19s-30.833 9 -59.5 9
c-31.333 0 -55 -3.33301 -71 -10s-28 -15.334 -36 -26.001c-22.667 -28.667 -32.667 -86.667 -30 -174zM365 -173.997c-30 0 -54.501 6.16797 -73.501 18.501s-28.5 32.166 -28.5 59.499c0 17.333 5.66699 33.833 17 49.5s25.833 29.667 43.5 42s35.834 22.5 54.501 30.5
l54 -21c-28 -10 -51 -22.667 -69 -38s-27 -29.333 -27 -42c0 -10.667 4.16699 -18 12.5 -22s19.5 -6 33.5 -6c10.667 0 21.667 0.666992 33 2l17 2v-67l-19 -4c-12.667 -2.66699 -28.667 -4 -48 -4z" />
    <glyph glyph-name="Ecaron" unicode="&#x11a;" horiz-adv-x="525" 
d="M98 0v697h366v-92l-307 4l49 47l-8 -296l-46 39h287v-89h-287l46 41l8 -309l-49 48l307 2v-92h-366zM253 747l-135 96l30 45l130 -60h7l131 60l29 -45l-135 -96h-57z" />
    <glyph glyph-name="ecaron" unicode="&#x11b;" horiz-adv-x="583" 
d="M309 -14c-48 0 -90.499 9.83496 -127.499 29.502s-65.667 52.167 -86 97.5s-30.5 105.333 -30.5 180c0 78 10.833 139.167 32.5 183.5s50.667 75.666 87 93.999s77.166 27.5 122.499 27.5c46 0 85 -8.83301 117 -26.5s56.5 -46.667 73.5 -87s25.5 -94.5 25.5 -162.5v-69
h-396l48 17c-2 -38 -1 -68.833 3 -92.5s9.5 -41.834 16.5 -54.501s13.5 -21.667 19.5 -27c8 -7.33301 18.333 -13 31 -17s28 -6 46 -6c19.333 0 38.833 1.66699 58.5 5s38.167 7.33301 55.5 12s32.833 9.16699 46.5 13.5s24.167 7.5 31.5 9.5l26 -81
c-6 -2.66699 -18.5 -7.66699 -37.5 -15s-42.333 -14.333 -70 -21s-58.5 -10 -92.5 -10zM175.001 301.002l-48.001 31.001l337 7l-48 -33c0.666992 42.667 -0.166016 79 -2.49902 109s-8.5 52.667 -18.5 68c-4.66699 6.66699 -12.5 13 -23.5 19s-30.833 9 -59.5 9
c-31.333 0 -55 -3.33301 -71 -10s-28 -15.334 -36 -26.001c-22.667 -28.667 -32.667 -86.667 -30 -174zM278 661.003l-135 108l30 42l130 -69h7l130 69l30 -42l-135 -108h-57z" />
    <glyph glyph-name="Gbreve" unicode="&#x11e;" horiz-adv-x="625" 
d="M336 -13c-36 0 -70.335 4.83496 -103.002 14.502s-61.667 27.5 -87 53.5s-45.166 63 -59.499 111s-21.5 109.667 -21.5 185c0 74.667 6.83301 135.5 20.5 182.5s33.167 83.333 58.5 109s55.5 43.334 90.5 53.001s73.833 14.5 116.5 14.5c22 0 44.667 -0.833008 68 -2.5
s45.5 -4.16699 66.5 -7.5s37.5 -6.33301 49.5 -9l-12 -89l-71.5 8.5c-30.333 3.66699 -65.833 5.5 -106.5 5.5c-32.667 0 -58.5 -1.83301 -77.5 -5.5s-33.167 -10.167 -42.5 -19.5c-12 -11.333 -23 -35.833 -33 -73.5s-15 -92.834 -15 -165.501
c0 -55.333 3 -99.833 9 -133.5s13 -58.834 21 -75.501s14.667 -28.334 20 -35.001c7.33301 -7.33301 19.666 -14 36.999 -20s43.333 -9 78 -9c20.667 0 39 1 55 3s29 5 39 9v246l48 -51l-153 9v77h207v-344l-26 -10c-17.333 -6.66699 -41.166 -13.5 -71.499 -20.5
s-65.166 -10.5 -104.499 -10.5zM338.998 741.002c-27.333 0 -53.166 4.83301 -77.499 14.5s-44.166 24.834 -59.499 45.501s-24 47.667 -26 81l64 5c4 -26 14.667 -44.167 32 -54.5s39.666 -15.5 66.999 -15.5s49.666 5.16699 66.999 15.5s28 28.5 32 54.5l64 -5
c-2 -33.333 -11 -60.333 -27 -81s-35.833 -35.834 -59.5 -45.501s-49.167 -14.5 -76.5 -14.5z" />
    <glyph glyph-name="gbreve" unicode="&#x11f;" horiz-adv-x="534" 
d="M260 -179c-28 0 -54.332 1.5 -78.999 4.5s-46.5 6.5 -65.5 10.5s-34 7.33301 -45 10l-16.5 4l12 88c40.667 -6.66699 81.834 -12.667 123.501 -18s81.834 -8 120.501 -8c32.667 0 54.667 2.5 66 7.5s17 12.833 17 23.5c0 5.33301 -1.66699 10.5 -5 15.5
s-9.5 10.333 -18.5 16s-22.833 12.667 -41.5 21s-43.667 18.5 -75 30.5c-35.333 14 -60.833 24.333 -76.5 31s-25.5 11.167 -29.5 13.5s-6 4.83301 -6 7.5c0 2 1.83301 7.83301 5.5 17.5l13 33l15 36.5l11.5 28c-44 10.667 -79.333 32.667 -106 66s-40 74.666 -40 123.999
c0 54.667 11.333 97.5 34 128.5s52.5 53 89.5 66s77.167 19.5 120.5 19.5c13.333 0 29.666 -0.333008 48.999 -1s39.166 -1.66699 59.499 -3s39.166 -2.66602 56.499 -3.99902s31.5 -2.33301 42.5 -3l16.5 -1v-64l-65 -10l8 -19.5c5.33301 -13 10.5 -29.5 15.5 -49.5
s7.5 -39.667 7.5 -59c0 -38 -8.83301 -72 -26.5 -102s-43.167 -53.667 -76.5 -71s-73.333 -26 -120 -26c-2 -7.33301 -4 -17 -6 -29s-3 -19 -3 -21s2.83301 -4.16699 8.5 -6.5l29 -11.5c13.667 -5.33301 32.5 -13.333 56.5 -24c40 -16 71 -31.667 93 -47
s37.5 -30.5 46.5 -45.5s13.5 -30.5 13.5 -46.5c0 -28 -9.83301 -51.833 -29.5 -71.5s-46.5 -34.667 -80.5 -45s-73.667 -15.5 -119 -15.5zM257.001 268c29.333 0 52.667 3.50098 70 10.501s29.833 19.333 37.5 37s11.5 42.5 11.5 74.5c0 33.333 -2 60.333 -6 81
s-8 32.334 -12 35.001c-1.33301 1.33301 -6.5 2.5 -15.5 3.5s-18.833 1.66699 -29.5 2s-20.334 0.666016 -29.001 0.999023s-14 0.5 -16 0.5c-30.667 0 -55.5 -3.16699 -74.5 -9.5s-32.667 -18.333 -41 -36s-12.5 -44.167 -12.5 -79.5
c0 -46.667 8.83301 -78.334 26.5 -95.001s47.834 -25 90.501 -25zM273.002 653.001c-27.333 0 -53.168 4.83301 -77.501 14.5s-44.166 25.5 -59.499 47.5s-24 51 -26 87l64 7c3.33301 -30 13.833 -50.667 31.5 -62s40.167 -17 67.5 -17c26.667 0 48.834 5.66699 66.501 17
s28.167 32 31.5 62l64 -7c-2 -36 -10.833 -65 -26.5 -87s-35.334 -37.833 -59.001 -47.5s-49.167 -14.5 -76.5 -14.5z" />
    <glyph glyph-name="Gdotaccent" unicode="&#x120;" horiz-adv-x="625" 
d="M336 -13c-36 0 -70.335 4.83496 -103.002 14.502s-61.667 27.5 -87 53.5s-45.166 63 -59.499 111s-21.5 109.667 -21.5 185c0 74.667 6.83301 135.5 20.5 182.5s33.167 83.333 58.5 109s55.5 43.334 90.5 53.001s73.833 14.5 116.5 14.5c22 0 44.667 -0.833008 68 -2.5
s45.5 -4.16699 66.5 -7.5s37.5 -6.33301 49.5 -9l-12 -89l-71.5 8.5c-30.333 3.66699 -65.833 5.5 -106.5 5.5c-32.667 0 -58.5 -1.83301 -77.5 -5.5s-33.167 -10.167 -42.5 -19.5c-12 -11.333 -23 -35.833 -33 -73.5s-15 -92.834 -15 -165.501
c0 -55.333 3 -99.833 9 -133.5s13 -58.834 21 -75.501s14.667 -28.334 20 -35.001c7.33301 -7.33301 19.666 -14 36.999 -20s43.333 -9 78 -9c20.667 0 39 1 55 3s29 5 39 9v246l48 -51l-153 9v77h207v-344l-26 -10c-17.333 -6.66699 -41.166 -13.5 -71.499 -20.5
s-65.166 -10.5 -104.499 -10.5zM278.998 762.002v90h120v-90h-120z" />
    <glyph glyph-name="gdotaccent" unicode="&#x121;" horiz-adv-x="534" 
d="M260 -179c-28 0 -54.332 1.5 -78.999 4.5s-46.5 6.5 -65.5 10.5s-34 7.33301 -45 10l-16.5 4l12 88c40.667 -6.66699 81.834 -12.667 123.501 -18s81.834 -8 120.501 -8c32.667 0 54.667 2.5 66 7.5s17 12.833 17 23.5c0 5.33301 -1.66699 10.5 -5 15.5
s-9.5 10.333 -18.5 16s-22.833 12.667 -41.5 21s-43.667 18.5 -75 30.5c-35.333 14 -60.833 24.333 -76.5 31s-25.5 11.167 -29.5 13.5s-6 4.83301 -6 7.5c0 2 1.83301 7.83301 5.5 17.5l13 33l15 36.5l11.5 28c-44 10.667 -79.333 32.667 -106 66s-40 74.666 -40 123.999
c0 54.667 11.333 97.5 34 128.5s52.5 53 89.5 66s77.167 19.5 120.5 19.5c13.333 0 29.666 -0.333008 48.999 -1s39.166 -1.66699 59.499 -3s39.166 -2.66602 56.499 -3.99902s31.5 -2.33301 42.5 -3l16.5 -1v-64l-65 -10l8 -19.5c5.33301 -13 10.5 -29.5 15.5 -49.5
s7.5 -39.667 7.5 -59c0 -38 -8.83301 -72 -26.5 -102s-43.167 -53.667 -76.5 -71s-73.333 -26 -120 -26c-2 -7.33301 -4 -17 -6 -29s-3 -19 -3 -21s2.83301 -4.16699 8.5 -6.5l29 -11.5c13.667 -5.33301 32.5 -13.333 56.5 -24c40 -16 71 -31.667 93 -47
s37.5 -30.5 46.5 -45.5s13.5 -30.5 13.5 -46.5c0 -28 -9.83301 -51.833 -29.5 -71.5s-46.5 -34.667 -80.5 -45s-73.667 -15.5 -119 -15.5zM257.001 268c29.333 0 52.667 3.50098 70 10.501s29.833 19.333 37.5 37s11.5 42.5 11.5 74.5c0 33.333 -2 60.333 -6 81
s-8 32.334 -12 35.001c-1.33301 1.33301 -6.5 2.5 -15.5 3.5s-18.833 1.66699 -29.5 2s-20.334 0.666016 -29.001 0.999023s-14 0.5 -16 0.5c-30.667 0 -55.5 -3.16699 -74.5 -9.5s-32.667 -18.333 -41 -36s-12.5 -44.167 -12.5 -79.5
c0 -46.667 8.83301 -78.334 26.5 -95.001s47.834 -25 90.501 -25zM213.002 677.001v92h120v-92h-120z" />
    <glyph glyph-name="uni0122" unicode="&#x122;" horiz-adv-x="625" 
d="M336 -13c-36 0 -70.335 4.83496 -103.002 14.502s-61.667 27.5 -87 53.5s-45.166 63 -59.499 111s-21.5 109.667 -21.5 185c0 74.667 6.83301 135.5 20.5 182.5s33.167 83.333 58.5 109s55.5 43.334 90.5 53.001s73.833 14.5 116.5 14.5c22 0 44.667 -0.833008 68 -2.5
s45.5 -4.16699 66.5 -7.5s37.5 -6.33301 49.5 -9l-12 -89l-71.5 8.5c-30.333 3.66699 -65.833 5.5 -106.5 5.5c-32.667 0 -58.5 -1.83301 -77.5 -5.5s-33.167 -10.167 -42.5 -19.5c-12 -11.333 -23 -35.833 -33 -73.5s-15 -92.834 -15 -165.501
c0 -55.333 3 -99.833 9 -133.5s13 -58.834 21 -75.501s14.667 -28.334 20 -35.001c7.33301 -7.33301 19.666 -14 36.999 -20s43.333 -9 78 -9c20.667 0 39 1 55 3s29 5 39 9v246l48 -51l-153 9v77h207v-344l-26 -10c-17.333 -6.66699 -41.166 -13.5 -71.499 -20.5
s-65.166 -10.5 -104.499 -10.5zM274.998 -238.998l-24 43c17.333 9.33301 28.833 22.166 34.5 38.499s8.5 41.5 8.5 75.5v28h86v-22c-2 -36.667 -8.16699 -66 -18.5 -88s-23.333 -38.667 -39 -50s-31.5 -19.666 -47.5 -24.999z" />
    <glyph glyph-name="uni0123" unicode="&#x123;" horiz-adv-x="534" 
d="M260 -179c-28 0 -54.332 1.5 -78.999 4.5s-46.5 6.5 -65.5 10.5s-34 7.33301 -45 10l-16.5 4l12 88c40.667 -6.66699 81.834 -12.667 123.501 -18s81.834 -8 120.501 -8c32.667 0 54.667 2.5 66 7.5s17 12.833 17 23.5c0 5.33301 -1.66699 10.5 -5 15.5
s-9.5 10.333 -18.5 16s-22.833 12.667 -41.5 21s-43.667 18.5 -75 30.5c-35.333 14 -60.833 24.333 -76.5 31s-25.5 11.167 -29.5 13.5s-6 4.83301 -6 7.5c0 2 1.83301 7.83301 5.5 17.5l13 33l15 36.5l11.5 28c-44 10.667 -79.333 32.667 -106 66s-40 74.666 -40 123.999
c0 54.667 11.333 97.5 34 128.5s52.5 53 89.5 66s77.167 19.5 120.5 19.5c13.333 0 29.666 -0.333008 48.999 -1s39.166 -1.66699 59.499 -3s39.166 -2.66602 56.499 -3.99902s31.5 -2.33301 42.5 -3l16.5 -1v-64l-65 -10l8 -19.5c5.33301 -13 10.5 -29.5 15.5 -49.5
s7.5 -39.667 7.5 -59c0 -38 -8.83301 -72 -26.5 -102s-43.167 -53.667 -76.5 -71s-73.333 -26 -120 -26c-2 -7.33301 -4 -17 -6 -29s-3 -19 -3 -21s2.83301 -4.16699 8.5 -6.5l29 -11.5c13.667 -5.33301 32.5 -13.333 56.5 -24c40 -16 71 -31.667 93 -47
s37.5 -30.5 46.5 -45.5s13.5 -30.5 13.5 -46.5c0 -28 -9.83301 -51.833 -29.5 -71.5s-46.5 -34.667 -80.5 -45s-73.667 -15.5 -119 -15.5zM257.001 268c29.333 0 52.667 3.50098 70 10.501s29.833 19.333 37.5 37s11.5 42.5 11.5 74.5c0 33.333 -2 60.333 -6 81
s-8 32.334 -12 35.001c-1.33301 1.33301 -6.5 2.5 -15.5 3.5s-18.833 1.66699 -29.5 2s-20.334 0.666016 -29.001 0.999023s-14 0.5 -16 0.5c-30.667 0 -55.5 -3.16699 -74.5 -9.5s-32.667 -18.333 -41 -36s-12.5 -44.167 -12.5 -79.5
c0 -46.667 8.83301 -78.334 26.5 -95.001s47.834 -25 90.501 -25zM212.002 834.001l-24 -43c17.333 -9.33301 28.833 -22.166 34.5 -38.499s8.5 -41.5 8.5 -75.5v-28h86v22c-2 36.667 -8.16699 66 -18.5 88s-23.333 38.667 -39 50s-31.5 19.666 -47.5 24.999z" />
    <glyph glyph-name="Hbar" unicode="&#x126;" horiz-adv-x="677" 
d="M647 603v-79h-616v79h616zM98 0v697h106l-3 -331l-47 35h369l-47 -35l-3 331h106v-697h-106l3 343l47 -34h-369l47 34l3 -343h-106z" />
    <glyph glyph-name="hbar" unicode="&#x127;" horiz-adv-x="602" 
d="M93 755l106 -0.00195312v-259c16 7.33301 34.333 14.833 55 22.5s41.5 14 62.5 19s40.833 7.5 59.5 7.5c40.667 0 72 -8.33301 94 -25s37.333 -40.667 46 -72s13 -69.333 13 -114v-334h-103v306c0 34.667 -1.5 61.667 -4.5 81s-8.16699 34 -15.5 44
c-5.33301 8 -12.5 13.167 -21.5 15.5s-19.833 3.5 -32.5 3.5c-13.333 0 -27.333 -1.5 -42 -4.5s-29.167 -6.66699 -43.5 -11s-27.333 -8.66602 -39 -12.999s-21.167 -8.16602 -28.5 -11.499v-410h-106v755zM-4 611.998v78h336v-78l-190 3z" />
    <glyph glyph-name="Itilde" unicode="&#x128;" horiz-adv-x="304" 
d="M235 746c-11.333 0 -24.6689 2.33301 -40.002 7s-30.833 10 -46.5 16l-42 16c-12.333 4.66699 -20.833 7 -25.5 7s-9.16699 -3.5 -13.5 -10.5s-7.83301 -14 -10.5 -21l-4 -10.5l-59 7c0.666992 40.667 7.83398 69 21.501 85s31.834 24 54.501 24
c12 0 25.667 -2.33301 41 -7s30.666 -9.83398 45.999 -15.501l41.5 -15.5c12.333 -4.66699 20.833 -7 25.5 -7s9 3.5 13 10.5s7.33301 14 10 21l4 10.5l59 -9c0 -39.333 -6.66699 -67.166 -20 -83.499s-31.666 -24.5 -54.999 -24.5zM97.9971 -1l4 321l-4 377h107l-3 -308
l3 -389z" />
    <glyph glyph-name="itilde" unicode="&#x129;" horiz-adv-x="300" 
d="M237 663c-10 0 -22.833 2.49902 -38.5 7.49902s-31.667 10.667 -48 17l-44 16.5c-13 4.66699 -21.833 7 -26.5 7c-4 0 -8 -3.66699 -12 -11s-7.33301 -14.666 -10 -21.999l-4 -11l-59 7c0 40 6.66699 68.167 20 84.5s31 24.5 53 24.5c10.667 0 23.667 -2.33301 39 -7
s31.166 -10 47.499 -16l43.5 -16.5c12.667 -5 21.667 -7.5 27 -7.5c4 0 7.83301 3.66699 11.5 11s6.83398 14.666 9.50098 21.999l4 11l59 -9c-0.666992 -39.333 -7.16699 -67.166 -19.5 -83.499s-29.833 -24.5 -52.5 -24.5zM98 -0.000976562v584h104v-584h-104z" />
    <glyph glyph-name="Imacron" unicode="&#x12a;" horiz-adv-x="304" 
d="M13 759v71h278v-71h-278zM98 -1l4 321l-4 377h107l-3 -308l3 -389z" />
    <glyph glyph-name="imacron" unicode="&#x12b;" horiz-adv-x="300" 
d="M5 683v75h290v-75h-290zM98 0v584h104v-584h-104z" />
    <glyph glyph-name="Iogonek" unicode="&#x12e;" horiz-adv-x="304" 
d="M98 -1l4 321l-4 377h107l-3 -308l3 -389zM138 -179c-30 0 -54.501 6.16797 -73.501 18.501s-28.5 32.166 -28.5 59.499c0 17.333 5.66699 33.833 17 49.5s25.833 29.667 43.5 42s35.834 22.5 54.501 30.5l54 -21c-28 -10 -51 -22.667 -69 -38s-27 -29.333 -27 -42
c0 -10.667 4.16699 -18 12.5 -22s19.5 -6 33.5 -6c10.667 0 21.667 0.666992 33 2l17 2v-67l-19 -4c-12.667 -2.66699 -28.667 -4 -48 -4z" />
    <glyph glyph-name="iogonek" unicode="&#x12f;" horiz-adv-x="300" 
d="M98 0v584h104v-584h-104zM90 677v92h120v-92h-120zM132 -179c-30 0 -54.501 6.16797 -73.501 18.501s-28.5 32.166 -28.5 59.499c0 17.333 5.66699 33.833 17 49.5s25.833 29.667 43.5 42s35.834 22.5 54.501 30.5l54 -21c-28 -10 -51 -22.667 -69 -38
s-27 -29.333 -27 -42c0 -10.667 4.16699 -18 12.5 -22s19.5 -6 33.5 -6c10.667 0 21.667 0.666992 33 2l17 2v-67l-19 -4c-12.667 -2.66699 -28.667 -4 -48 -4z" />
    <glyph glyph-name="Idotaccent" unicode="&#x130;" horiz-adv-x="304" 
d="M98 -1l4 321l-4 377h107l-3 -308l3 -389zM92 762v90h120v-90h-120z" />
    <glyph glyph-name="dotlessi" unicode="&#x131;" horiz-adv-x="300" 
d="M98 0v584h104v-584h-104z" />
    <glyph glyph-name="IJ" unicode="&#x132;" horiz-adv-x="634" 
d="M98 -1l4 321l-4 377h107l-3 -308l3 -389zM366 -13c-11.333 0 -22 0.668945 -32 2.00195s-18.833 2.66602 -26.5 3.99902s-12.834 2.33301 -15.501 3l12 90c6.66699 -0.666992 17.167 -2.16699 31.5 -4.5s28.5 -3.5 42.5 -3.5c12.667 0 23.334 3 32.001 9
s15.167 19.833 19.5 41.5s6.5 55.5 6.5 101.5v467h106v-458c0 -62.667 -7.66699 -112.334 -23 -149.001s-36.333 -63 -63 -79s-56.667 -24 -90 -24z" />
    <glyph glyph-name="ij" unicode="&#x133;" horiz-adv-x="622" 
d="M98 0v584h104v-584h-104zM90 677v92h120v-92h-120zM354 -180c-10 0 -20.833 0.667969 -32.5 2.00098s-21.5 2.5 -29.5 3.5l-12 1.5l11 89l10 -1l26 -2.5c10.667 -1 21 -1.5 31 -1.5c16.667 0 29.167 3 37.5 9s14.166 19.167 17.499 39.5s5 52.5 5 96.5v528h104v-526
c0 -60 -7.66699 -107.333 -23 -142s-35.666 -59.334 -60.999 -74.001s-53.333 -22 -84 -22zM411 677.001v92h121v-92h-121z" />
    <glyph glyph-name="Jcircumflex" unicode="&#x134;" horiz-adv-x="330" 
d="M57 738l-28 48l125 92h58l124 -92l-28 -48l-122 59h-7zM62 -13c-11.333 0 -22 0.668945 -32 2.00195s-18.833 2.66602 -26.5 3.99902s-12.834 2.33301 -15.501 3l12 90c6.66699 -0.666992 17.167 -2.16699 31.5 -4.5s28.5 -3.5 42.5 -3.5c12.667 0 23.334 3 32.001 9
s15.167 19.833 19.5 41.5s6.5 55.5 6.5 101.5v467h106v-458c0 -62.667 -7.66699 -112.334 -23 -149.001s-36.333 -63 -63 -79s-56.667 -24 -90 -24z" />
    <glyph glyph-name="jcircumflex" unicode="&#x135;" horiz-adv-x="319" 
d="M57 655l-33 42l124 107h59l124 -107l-32 -42l-117 67h-8zM63 -180c-10 0 -20.833 0.667969 -32.5 2.00098s-21.5 2.5 -29.5 3.5l-12 1.5l11 89l10 -1l26 -2.5c10.667 -1 21 -1.5 31 -1.5c16.667 0 29.167 3 37.5 9s14.166 19.167 17.499 39.5s5 52.5 5 96.5v528h104v-526
c0 -60 -7.66699 -107.333 -23 -142s-35.666 -59.334 -60.999 -74.001s-53.333 -22 -84 -22z" />
    <glyph glyph-name="uni0136" unicode="&#x136;" horiz-adv-x="603" 
d="M484 0l-277 361l257 336h128l-265 -330v-6l291 -361h-134zM98 0l3 355l-3 342h107v-697h-107zM255 -239l-24 43c17.333 9.33301 28.833 22.166 34.5 38.499s8.5 41.5 8.5 75.5v28h86v-22c-2 -36.667 -8.16699 -66 -18.5 -88s-23.333 -38.667 -39 -50
s-31.5 -19.666 -47.5 -24.999z" />
    <glyph glyph-name="uni0137" unicode="&#x137;" horiz-adv-x="545" 
d="M428 0l-239 314l221 270h131l-237 -264v-5l257 -315h-133zM85 0l5 321l-5 434h105v-755h-105zM232 -239l-24 43c17.333 9.33301 28.833 22.166 34.5 38.499s8.5 41.5 8.5 75.5v28h86v-22c-2 -36.667 -8.16699 -66 -18.5 -88s-23.333 -38.667 -39 -50
s-31.5 -19.666 -47.5 -24.999z" />
    <glyph glyph-name="kgreenlandic" unicode="&#x138;" horiz-adv-x="547" 
d="M430 0h133l-258 314v5l238 265h-131l-251 -308l2 76zM87 0l4 306l-3 278h71l32 -87v-497h-104z" />
    <glyph glyph-name="Lacute" unicode="&#x139;" horiz-adv-x="463" 
d="M98 0v697h106l-5 -655l-47 51l304 2v-95h-358zM45 738l-19 61l246 80l28 -84z" />
    <glyph glyph-name="lacute" unicode="&#x13a;" horiz-adv-x="297" 
d="M45 806l-19 61l246 80l28 -84zM96 0v755h105v-755h-105z" />
    <glyph glyph-name="uni013B" unicode="&#x13b;" horiz-adv-x="463" 
d="M98 0v697h106l-5 -655l-47 51l304 2v-95h-358zM196 -239l-24 43c17.333 9.33301 28.833 22.166 34.5 38.499s8.5 41.5 8.5 75.5v28h86v-22c-2 -36.667 -8.16699 -66 -18.5 -88s-23.333 -38.667 -39 -50s-31.5 -19.666 -47.5 -24.999z" />
    <glyph glyph-name="uni013C" unicode="&#x13c;" horiz-adv-x="297" 
d="M96 0v755h105v-755h-105zM90 -239l-24 43c17.333 9.33301 28.833 22.166 34.5 38.499s8.5 41.5 8.5 75.5v28h86v-22c-2 -36.667 -8.16699 -66 -18.5 -88s-23.333 -38.667 -39 -50s-31.5 -19.666 -47.5 -24.999z" />
    <glyph glyph-name="Lcaron" unicode="&#x13d;" horiz-adv-x="463" 
d="M98 0v697h106l-5 -655l-47 51l304 2v-95h-358zM122 747l-135 96l30 45l130 -60h7l131 60l29 -45l-135 -96h-57z" />
    <glyph glyph-name="lcaron" unicode="&#x13e;" horiz-adv-x="338" 
d="M97 0v755h105v-755h-105zM284 538l-16 217h96l-19 -217h-61z" />
    <glyph glyph-name="Ldotaccent" unicode="&#x13f;" horiz-adv-x="463" 
d="M290 338v101h119v-101h-119zM98 0v697h106l-5 -655l-47 51l304 2v-95h-358z" />
    <glyph glyph-name="ldot" unicode="&#x140;" horiz-adv-x="413" 
d="M277 355v103h118v-103h-118zM110 0v755h104v-755h-104z" />
    <glyph glyph-name="Lslash" unicode="&#x141;" horiz-adv-x="452" 
d="M7 233v90l325 211v-91zM96 0v697h106l-5 -655l-47 51l304 2v-95h-358z" />
    <glyph glyph-name="lslash" unicode="&#x142;" horiz-adv-x="310" 
d="M106 0v315l-84 -53v89l84 54v350h104v-283l77 50v-92l-77 -49v-381h-104z" />
    <glyph glyph-name="Nacute" unicode="&#x143;" horiz-adv-x="691" 
d="M98 0v697h140l263 -570h4l-14 570h102v-697h-139l-263 570h-4l13 -570h-102zM265 738l-19 61l246 80l28 -84z" />
    <glyph glyph-name="nacute" unicode="&#x144;" horiz-adv-x="610" 
d="M94 0l-0.000976562 584.002h69l12 -58h5l34.5 19c14.333 8 31 16 50 24s39.167 14.667 60.5 20s43 8 65 8c38 0 67 -9.16699 87 -27.5s33.667 -43.5 41 -75.5s11 -68 11 -108v-386h-105v357c0 36 -0.666992 63.333 -2 82s-5.33301 33 -12 43
c-5.33301 7.33301 -12.5 12.333 -21.5 15s-18.833 4 -29.5 4c-20.667 0 -42 -3.33301 -64 -10s-41.667 -13.834 -59 -21.501s-29.666 -13.834 -36.999 -18.501v-451h-105zM224.999 652.002l-21 59l217 85l30 -80z" />
    <glyph glyph-name="uni0145" unicode="&#x145;" horiz-adv-x="691" 
d="M98 0v697h140l263 -570h4l-14 570h102v-697h-139l-263 570h-4l13 -570h-102zM288 -239l-24 43c17.333 9.33301 28.833 22.166 34.5 38.499s8.5 41.5 8.5 75.5v28h86v-22c-2 -36.667 -8.16699 -66 -18.5 -88s-23.333 -38.667 -39 -50s-31.5 -19.666 -47.5 -24.999z" />
    <glyph glyph-name="uni0146" unicode="&#x146;" horiz-adv-x="610" 
d="M94 0l-0.000976562 584.002h69l12 -58h5l34.5 19c14.333 8 31 16 50 24s39.167 14.667 60.5 20s43 8 65 8c38 0 67 -9.16699 87 -27.5s33.667 -43.5 41 -75.5s11 -68 11 -108v-386h-105v357c0 36 -0.666992 63.333 -2 82s-5.33301 33 -12 43
c-5.33301 7.33301 -12.5 12.333 -21.5 15s-18.833 4 -29.5 4c-20.667 0 -42 -3.33301 -64 -10s-41.667 -13.834 -59 -21.501s-29.666 -13.834 -36.999 -18.501v-451h-105zM257.999 -238.998l-24 43c17.333 9.33301 28.833 22.166 34.5 38.499s8.5 41.5 8.5 75.5v28h86v-22
c-2 -36.667 -8.16699 -66 -18.5 -88s-23.333 -38.667 -39 -50s-31.5 -19.666 -47.5 -24.999z" />
    <glyph glyph-name="Ncaron" unicode="&#x147;" horiz-adv-x="691" 
d="M98 0v697h140l263 -570h4l-14 570h102v-697h-139l-263 570h-4l13 -570h-102zM316 747l-135 96l30 45l130 -60h7l131 60l29 -45l-135 -96h-57z" />
    <glyph glyph-name="ncaron" unicode="&#x148;" horiz-adv-x="610" 
d="M94 0l-0.000976562 584.002h69l12 -58h5l34.5 19c14.333 8 31 16 50 24s39.167 14.667 60.5 20s43 8 65 8c38 0 67 -9.16699 87 -27.5s33.667 -43.5 41 -75.5s11 -68 11 -108v-386h-105v357c0 36 -0.666992 63.333 -2 82s-5.33301 33 -12 43
c-5.33301 7.33301 -12.5 12.333 -21.5 15s-18.833 4 -29.5 4c-20.667 0 -42 -3.33301 -64 -10s-41.667 -13.834 -59 -21.501s-29.666 -13.834 -36.999 -18.501v-451h-105zM284.999 661.002l-135 108l30 42l130 -69h7l130 69l30 -42l-135 -108h-57z" />
    <glyph glyph-name="Eng" unicode="&#x14a;" horiz-adv-x="691" 
d="M420 -120l29 0.000976562c10 0 18.833 2.5 26.5 7.5s11.5 12.167 11.5 21.5c0 13.333 -3.83301 28.166 -11.5 44.499l-21.5 46.5h139v-35.5v-38.5c0 -24 -4.66699 -45.333 -14 -64s-23.5 -33 -42.5 -43s-43.167 -15 -72.5 -15h-44v76zM98 0.000976562v697h140l263 -570h4
l-14 570h102v-697h-139l-263 570h-4l13 -570h-102z" />
    <glyph glyph-name="eng" unicode="&#x14b;" horiz-adv-x="610" 
d="M94 0l-0.000976562 584.001h69l12 -58h5l34.5 19c14.333 8 31 16 50 24s39.167 14.667 60.5 20s43 8 65 8c38 0 67 -9.16699 87 -27.5s33.667 -43.5 41 -75.5s11 -68 11 -108v-301c0 -57.333 -8 -102.833 -24 -136.5s-37 -57.834 -63 -72.501s-54.667 -22 -86 -22
c-10 0 -19.833 0.333008 -29.5 1s-21.834 2.33398 -36.501 5.00098l12 88c10 -1.33301 20.167 -2.5 30.5 -3.5s21.833 -1.5 34.5 -1.5s23.334 2.5 32.001 7.5s15 15.333 19 31s6 39.834 6 72.501v303c0 36 -0.666992 63.333 -2 82s-5.33301 33 -12 43
c-5.33301 7.33301 -12.5 12.333 -21.5 15s-18.833 4 -29.5 4c-20.667 0 -42 -3.33301 -64 -10s-41.667 -13.834 -59 -21.501s-29.666 -13.834 -36.999 -18.501v-451h-105z" />
    <glyph glyph-name="Omacron" unicode="&#x14c;" horiz-adv-x="669" 
d="M335 -14c-36.667 0 -71.334 5.33301 -104.001 16s-61.5 29.334 -86.5 56.001s-44.5 63.667 -58.5 111s-21 107.666 -21 180.999c0 74 7 134.333 21 181s33.5 83.167 58.5 109.5s53.833 44.666 86.5 54.999s67.334 15.5 104.001 15.5s71.167 -5.16699 103.5 -15.5
s61 -28.666 86 -54.999s44.5 -62.833 58.5 -109.5s21 -107 21 -181c0 -73.333 -7 -133.666 -21 -180.999s-33.5 -84.333 -58.5 -111s-53.667 -45.334 -86 -56.001s-66.833 -16 -103.5 -16zM335 81c27.333 0 50.834 3 70.501 9s36 18.167 49 36.5s22.667 45.166 29 80.499
s9.5 82.333 9.5 141c0 58 -3 104.833 -9 140.5s-15.333 62.667 -28 81s-29.167 30.666 -49.5 36.999s-44.166 9.5 -71.499 9.5c-28.667 0 -52.834 -3.16699 -72.501 -9.5s-35.834 -18.666 -48.501 -36.999s-22 -45.333 -28 -81s-9 -82.5 -9 -140.5
c0 -58.667 3 -105.667 9 -141s15.5 -62.166 28.5 -80.499s29.5 -30.5 49.5 -36.5s43.667 -9 71 -9zM164.001 769v75h342v-75h-342z" />
    <glyph glyph-name="omacron" unicode="&#x14d;" horiz-adv-x="587" 
d="M294 -13c-58 0 -103.833 12.333 -137.5 37s-57.667 59.834 -72 105.501s-21.5 99.834 -21.5 162.501s7.16699 116.834 21.5 162.501s38.333 80.834 72 105.501s79.5 37 137.5 37s103.667 -12.333 137 -37s57 -59.834 71 -105.501s21 -99.834 21 -162.501
s-7 -116.834 -21 -162.501s-37.667 -80.834 -71 -105.501s-79 -37 -137 -37zM294 73c23.333 0 42.8311 2.83301 58.498 8.5s28.334 16.167 38.001 31.5s16.334 37.5 20.001 66.5s5.5 66.5 5.5 112.5s-2 83.5 -6 112.5s-10.667 51.167 -20 66.5s-21.833 25.833 -37.5 31.5
s-35.167 8.5 -58.5 8.5c-24 0 -43.833 -2.83301 -59.5 -8.5s-28.334 -16.167 -38.001 -31.5s-16.5 -37.5 -20.5 -66.5s-6 -66.5 -6 -112.5s2 -83.5 6 -112.5s10.833 -51.167 20.5 -66.5s22.334 -25.833 38.001 -31.5s35.5 -8.5 59.5 -8.5zM122.998 683v75h342v-75h-342z" />
    <glyph glyph-name="Ohungarumlaut" unicode="&#x150;" horiz-adv-x="669" 
d="M335 -14c-36.667 0 -71.334 5.33301 -104.001 16s-61.5 29.334 -86.5 56.001s-44.5 63.667 -58.5 111s-21 107.666 -21 180.999c0 74 7 134.333 21 181s33.5 83.167 58.5 109.5s53.833 44.666 86.5 54.999s67.334 15.5 104.001 15.5s71.167 -5.16699 103.5 -15.5
s61 -28.666 86 -54.999s44.5 -62.833 58.5 -109.5s21 -107 21 -181c0 -73.333 -7 -133.666 -21 -180.999s-33.5 -84.333 -58.5 -111s-53.667 -45.334 -86 -56.001s-66.833 -16 -103.5 -16zM335 81c27.333 0 50.834 3 70.501 9s36 18.167 49 36.5s22.667 45.166 29 80.499
s9.5 82.333 9.5 141c0 58 -3 104.833 -9 140.5s-15.333 62.667 -28 81s-29.167 30.666 -49.5 36.999s-44.166 9.5 -71.499 9.5c-28.667 0 -52.834 -3.16699 -72.501 -9.5s-35.834 -18.666 -48.501 -36.999s-22 -45.333 -28 -81s-9 -82.5 -9 -140.5
c0 -58.667 3 -105.667 9 -141s15.5 -62.166 28.5 -80.499s29.5 -30.5 49.5 -36.5s43.667 -9 71 -9zM154.001 743l-24 58l206 93l36 -74zM401.001 743l-24 57l203 86l36 -77z" />
    <glyph glyph-name="ohungarumlaut" unicode="&#x151;" horiz-adv-x="587" 
d="M294 -13c-58 0 -103.833 12.333 -137.5 37s-57.667 59.834 -72 105.501s-21.5 99.834 -21.5 162.501s7.16699 116.834 21.5 162.501s38.333 80.834 72 105.501s79.5 37 137.5 37s103.667 -12.333 137 -37s57 -59.834 71 -105.501s21 -99.834 21 -162.501
s-7 -116.834 -21 -162.501s-37.667 -80.834 -71 -105.501s-79 -37 -137 -37zM294 73c23.333 0 42.8311 2.83301 58.498 8.5s28.334 16.167 38.001 31.5s16.334 37.5 20.001 66.5s5.5 66.5 5.5 112.5s-2 83.5 -6 112.5s-10.667 51.167 -20 66.5s-21.833 25.833 -37.5 31.5
s-35.167 8.5 -58.5 8.5c-24 0 -43.833 -2.83301 -59.5 -8.5s-28.334 -16.167 -38.001 -31.5s-16.5 -37.5 -20.5 -66.5s-6 -66.5 -6 -112.5s2 -83.5 6 -112.5s10.833 -51.167 20.5 -66.5s22.334 -25.833 38.001 -31.5s35.5 -8.5 59.5 -8.5zM160.998 642l-38 48l152 130
l51 -67zM347.998 642l-37 48l157 130l50 -67z" />
    <glyph glyph-name="OE" unicode="&#x152;" horiz-adv-x="927" 
d="M335 -13c-36.667 0 -71.334 5.33594 -104.001 16.0029s-61.5 29.167 -86.5 55.5s-44.5 63.166 -58.5 110.499s-21 107.666 -21 180.999s7 133.333 21 180s33.5 83.167 58.5 109.5s53.833 44.666 86.5 54.999s67.334 15.5 104.001 15.5c32 0 61.667 -4.5 89 -13.5
s51.333 -23.5 72 -43.5h52l-48 -47v91h366v-94l-260 3l-5 -207h241v-89h-241l5 -219l260 2v-93h-366v93l48 -48h-52c-20.667 -19.333 -44.667 -33.833 -72 -43.5s-57 -14.5 -89 -14.5zM335 82.0029c27.333 0 50.834 3.16602 70.501 9.49902s36 18.5 49 36.5
s22.667 44.667 29 80s9.5 82 9.5 140c0 57.333 -3 103.833 -9 139.5s-15.333 62.834 -28 81.501s-29.167 31.167 -49.5 37.5s-44.166 9.5 -71.499 9.5c-28.667 0 -52.834 -3.16699 -72.501 -9.5s-35.834 -18.833 -48.501 -37.5s-22 -45.667 -28 -81s-9 -82 -9 -140
c0 -58.667 3 -105.5 9 -140.5s15.5 -61.5 28.5 -79.5s29.5 -30.167 49.5 -36.5s43.667 -9.5 71 -9.5z" />
    <glyph glyph-name="oe" unicode="&#x153;" horiz-adv-x="931" 
d="M294 -13c-58 0 -103.831 12.3281 -137.498 36.9951s-57.667 59.834 -72 105.501s-21.5 99.834 -21.5 162.501s7.16699 116.834 21.5 162.501s38.333 80.834 72 105.501s79.5 37 137.5 37c43.333 0 79.333 -7.33301 108 -22s51.667 -35.334 69 -62.001h4
c21.333 30.667 47.5 52.334 78.5 65.001s65.833 19 104.5 19c46 0 84.833 -8.83301 116.5 -26.5s56 -46.667 73 -87s25.5 -94.166 25.5 -161.499v-69h-347v-25c1.33301 -42 6.5 -72.667 15.5 -92s17.167 -32 24.5 -38c8 -8 18 -13.833 30 -17.5s28.667 -5.5 50 -5.5
c18.667 0 38.667 2 60 6s41.666 8.66699 60.999 14s35 10 47 14l18 6l26 -82l-16 -7c-10.667 -4.66699 -25.167 -10 -43.5 -16s-39.666 -11.333 -63.999 -16s-49.833 -7 -76.5 -7c-38.667 0 -73.334 6.66699 -104.001 20s-56.334 34.666 -77.001 63.999h-4
c-18 -27.333 -41.667 -48.166 -71 -62.499s-65.333 -21.5 -108 -21.5zM294.002 71.9951c23.333 0 42.8311 3 58.498 9s28.334 16.667 38.001 32s16.334 37.5 20.001 66.5s5.5 66.5 5.5 112.5s-2 83.5 -6 112.5s-10.667 51.167 -20 66.5s-21.833 25.833 -37.5 31.5
s-35.167 8.5 -58.5 8.5c-24 0 -43.833 -2.83301 -59.5 -8.5s-28.334 -16.167 -38.001 -31.5s-16.5 -37.5 -20.5 -66.5s-6 -66.5 -6 -112.5s2 -83.5 6 -112.5s10.833 -51.167 20.5 -66.5s22.334 -26 38.001 -32s35.5 -9 59.5 -9zM527 332.995l239.002 5
c-0.666992 34 -2.33398 63.167 -5.00098 87.5s-8.33398 43.166 -17.001 56.499c-4.66699 8 -13 14.667 -25 20s-31.333 8 -58 8c-30 0 -52.667 -3.16699 -68 -9.5s-27.333 -15.166 -36 -26.499c-10 -12.667 -17.5 -31 -22.5 -55s-7.5 -52.667 -7.5 -86z" />
    <glyph glyph-name="Racute" unicode="&#x154;" horiz-adv-x="653" 
d="M98 0l5 328.001l-3 369c6 1.33301 17.833 2.66602 35.5 3.99902s38 2.66602 61 3.99902s46.667 2.5 71 3.5s46.5 1.5 66.5 1.5c48 0 89.667 -7.16699 125 -21.5s62.5 -37.666 81.5 -69.999s28.5 -75.5 28.5 -129.5c0 -57.333 -12.5 -103 -37.5 -137
s-61.167 -57.333 -108.5 -70v-4l156 -278h-122l-135 268l-117 4v-272h-107zM342 355.001c46.667 0 77.666 10.833 92.999 32.5s23 55.5 23 101.5c0 38.667 -3.16699 67.834 -9.5 87.501s-14.833 32.5 -25.5 38.5c-6.66699 4 -17.167 7.16699 -31.5 9.5
s-30.166 3.5 -47.499 3.5c-27.333 0 -53.333 -1 -78 -3s-44.667 -4 -60 -6l-2 -255c22.667 -2.66699 46 -4.83398 70 -6.50098s46.667 -2.5 68 -2.5zM212.999 738.001l-19 61l246 80l28 -84z" />
    <glyph glyph-name="racute" unicode="&#x155;" horiz-adv-x="406" 
d="M94 0v584h66l14 -60h6l15 11c10 7.33301 23.333 15.833 40 25.5s34.5 18.167 53.5 25.5s36.833 11 53.5 11c14 0 25.5 -1.16699 34.5 -3.5l13.5 -3.5l-8 -96l-14.5 1c-9.66699 0.666992 -19.167 1 -28.5 1c-18 0 -36 -2.33301 -54 -7s-34.5 -10.667 -49.5 -18
s-27.167 -14.333 -36.5 -21v-450h-105zM126 652l-21 59l217 85l30 -80z" />
    <glyph glyph-name="uni0156" unicode="&#x156;" horiz-adv-x="653" 
d="M98 0l5 328.001l-3 369c6 1.33301 17.833 2.66602 35.5 3.99902s38 2.66602 61 3.99902s46.667 2.5 71 3.5s46.5 1.5 66.5 1.5c48 0 89.667 -7.16699 125 -21.5s62.5 -37.666 81.5 -69.999s28.5 -75.5 28.5 -129.5c0 -57.333 -12.5 -103 -37.5 -137
s-61.167 -57.333 -108.5 -70v-4l156 -278h-122l-135 268l-117 4v-272h-107zM342 355.001c46.667 0 77.666 10.833 92.999 32.5s23 55.5 23 101.5c0 38.667 -3.16699 67.834 -9.5 87.501s-14.833 32.5 -25.5 38.5c-6.66699 4 -17.167 7.16699 -31.5 9.5
s-30.166 3.5 -47.499 3.5c-27.333 0 -53.333 -1 -78 -3s-44.667 -4 -60 -6l-2 -255c22.667 -2.66699 46 -4.83398 70 -6.50098s46.667 -2.5 68 -2.5zM267.999 -238.999l-24 43c17.333 9.33301 28.833 22.166 34.5 38.499s8.5 41.5 8.5 75.5v28h86v-22
c-2 -36.667 -8.16699 -66 -18.5 -88s-23.333 -38.667 -39 -50s-31.5 -19.666 -47.5 -24.999z" />
    <glyph glyph-name="uni0157" unicode="&#x157;" horiz-adv-x="406" 
d="M94 0v584h66l14 -60h6l15 11c10 7.33301 23.333 15.833 40 25.5s34.5 18.167 53.5 25.5s36.833 11 53.5 11c14 0 25.5 -1.16699 34.5 -3.5l13.5 -3.5l-8 -96l-14.5 1c-9.66699 0.666992 -19.167 1 -28.5 1c-18 0 -36 -2.33301 -54 -7s-34.5 -10.667 -49.5 -18
s-27.167 -14.333 -36.5 -21v-450h-105zM89 -239l-24 43c17.333 9.33301 28.833 22.166 34.5 38.499s8.5 41.5 8.5 75.5v28h86v-22c-2 -36.667 -8.16699 -66 -18.5 -88s-23.333 -38.667 -39 -50s-31.5 -19.666 -47.5 -24.999z" />
    <glyph glyph-name="Rcaron" unicode="&#x158;" horiz-adv-x="653" 
d="M98 0l5 328.001l-3 369c6 1.33301 17.833 2.66602 35.5 3.99902s38 2.66602 61 3.99902s46.667 2.5 71 3.5s46.5 1.5 66.5 1.5c48 0 89.667 -7.16699 125 -21.5s62.5 -37.666 81.5 -69.999s28.5 -75.5 28.5 -129.5c0 -57.333 -12.5 -103 -37.5 -137
s-61.167 -57.333 -108.5 -70v-4l156 -278h-122l-135 268l-117 4v-272h-107zM342 355.001c46.667 0 77.666 10.833 92.999 32.5s23 55.5 23 101.5c0 38.667 -3.16699 67.834 -9.5 87.501s-14.833 32.5 -25.5 38.5c-6.66699 4 -17.167 7.16699 -31.5 9.5
s-30.166 3.5 -47.499 3.5c-27.333 0 -53.333 -1 -78 -3s-44.667 -4 -60 -6l-2 -255c22.667 -2.66699 46 -4.83398 70 -6.50098s46.667 -2.5 68 -2.5zM289.999 747.001l-135 96l30 45l130 -60h7l131 60l29 -45l-135 -96h-57z" />
    <glyph glyph-name="rcaron" unicode="&#x159;" horiz-adv-x="406" 
d="M94 0v584h66l14 -60h6l15 11c10 7.33301 23.333 15.833 40 25.5s34.5 18.167 53.5 25.5s36.833 11 53.5 11c14 0 25.5 -1.16699 34.5 -3.5l13.5 -3.5l-8 -96l-14.5 1c-9.66699 0.666992 -19.167 1 -28.5 1c-18 0 -36 -2.33301 -54 -7s-34.5 -10.667 -49.5 -18
s-27.167 -14.333 -36.5 -21v-450h-105zM214 661l-135 108l30 42l130 -69h7l130 69l30 -42l-135 -108h-57z" />
    <glyph glyph-name="Sacute" unicode="&#x15a;" horiz-adv-x="529" 
d="M256 -14c-28.667 0 -56.3311 3.16699 -82.998 9.5s-50.334 13.833 -71.001 22.5s-37 16.167 -49 22.5l-18 9.5l5 13l11.5 29.5l11.5 29l5 12.5l17.5 -8c11.667 -5.33301 27.5 -11.5 47.5 -18.5s42.333 -13.167 67 -18.5s50 -8 76 -8c15.333 0 27.5 1.33301 36.5 4
s15.5 5.33398 19.5 8.00098c11.333 8 20.166 19.167 26.499 33.5s9.5 33.5 9.5 57.5c0 22.667 -5.66699 41.667 -17 57s-26.333 28.333 -45 39s-39 21 -61 31c-25.333 10.667 -49.333 21.667 -72 33s-42.834 24.333 -60.501 39s-31.667 33.334 -42 56.001
s-15.5 50.667 -15.5 84c0 35.333 8.16699 67.166 24.5 95.499s40.666 50.833 72.999 67.5s72.833 25 121.5 25c22.667 0 44.334 -1.33301 65.001 -4s39.5 -5.5 56.5 -8.5s30.333 -5.83301 40 -8.5l14.5 -4l-17 -88l-15.5 2.5l-42 7c-17.667 3 -37 5.33301 -58 7
s-41.833 2.5 -62.5 2.5c-15.333 0 -27.5 -1 -36.5 -3s-16.833 -5 -23.5 -9c-7.33301 -4 -14.333 -12.167 -21 -24.5s-10 -29.5 -10 -51.5c0 -23.333 6.33301 -42.5 19 -57.5s29.334 -27.667 50.001 -38s42.667 -20.5 66 -30.5c20.667 -8.66699 41.5 -18.334 62.5 -29.001
s40.167 -23.667 57.5 -39s31.333 -34.333 42 -57s16 -50.667 16 -84c0 -42 -9.33301 -78.5 -28 -109.5s-44.5 -55.167 -77.5 -72.5s-71.5 -26 -115.5 -26zM158.003 738l-19 61l246 80l28 -84z" />
    <glyph glyph-name="sacute" unicode="&#x15b;" horiz-adv-x="506" 
d="M256 -13c-26.667 0 -52.168 2.66699 -76.501 8s-46.166 11.333 -65.499 18s-34.666 12.5 -45.999 17.5l-17 7.5l26 86l17 -7c11.333 -4.66699 26.333 -10.334 45 -17.001s39.5 -12.5 62.5 -17.5s45.5 -7.5 67.5 -7.5c12.667 0 24.167 1.16699 34.5 3.5
s18.166 5.83301 23.499 10.5c6.66699 6 12.667 14.833 18 26.5s8 25.167 8 40.5c0 24.667 -6.33301 43.5 -19 56.5s-29.167 23.167 -49.5 30.5s-42.166 14.333 -65.499 21c-20 6 -39.833 12.333 -59.5 19s-37.5 16 -53.5 28s-28.833 27.667 -38.5 47
s-14.5 44.666 -14.5 75.999c0 48.667 15.5 88 46.5 118s82.167 45 153.5 45c25.333 0 49.5 -1.66699 72.5 -5s43.5 -7.16602 61.5 -11.499s31.667 -7.83301 41 -10.5l-16 -85l-15.5 3.5c-10.333 2.33301 -23.833 5.16602 -40.5 8.49902s-35.167 6.16602 -55.5 8.49902
s-40.833 3.5 -61.5 3.5c-19.333 0 -34.166 -1.16699 -44.499 -3.5s-18.166 -5.5 -23.499 -9.5c-4.66699 -3.33301 -8.83398 -9.33301 -12.501 -18s-5.5 -19 -5.5 -31c0 -24 7.16699 -42.167 21.5 -54.5s32.666 -22 54.999 -29l69.5 -21.5
c19.333 -6 38.166 -12.5 56.499 -19.5s35 -16.667 50 -29s27 -28.166 36 -47.499s13.5 -43.666 13.5 -72.999c0 -55.333 -17 -100.166 -51 -134.499s-83.333 -51.5 -148 -51.5zM139.999 652l-21 59l217 85l30 -80z" />
    <glyph glyph-name="Scedilla" unicode="&#x15e;" horiz-adv-x="529" 
d="M256 -14c-28.667 0 -56.3311 3.16699 -82.998 9.5s-50.334 13.833 -71.001 22.5s-37 16.167 -49 22.5l-18 9.5l5 13l11.5 29.5l11.5 29l5 12.5l17.5 -8c11.667 -5.33301 27.5 -11.5 47.5 -18.5s42.333 -13.167 67 -18.5s50 -8 76 -8c15.333 0 27.5 1.33301 36.5 4
s15.5 5.33398 19.5 8.00098c11.333 8 20.166 19.167 26.499 33.5s9.5 33.5 9.5 57.5c0 22.667 -5.66699 41.667 -17 57s-26.333 28.333 -45 39s-39 21 -61 31c-25.333 10.667 -49.333 21.667 -72 33s-42.834 24.333 -60.501 39s-31.667 33.334 -42 56.001
s-15.5 50.667 -15.5 84c0 35.333 8.16699 67.166 24.5 95.499s40.666 50.833 72.999 67.5s72.833 25 121.5 25c22.667 0 44.334 -1.33301 65.001 -4s39.5 -5.5 56.5 -8.5s30.333 -5.83301 40 -8.5l14.5 -4l-17 -88l-15.5 2.5l-42 7c-17.667 3 -37 5.33301 -58 7
s-41.833 2.5 -62.5 2.5c-15.333 0 -27.5 -1 -36.5 -3s-16.833 -5 -23.5 -9c-7.33301 -4 -14.333 -12.167 -21 -24.5s-10 -29.5 -10 -51.5c0 -23.333 6.33301 -42.5 19 -57.5s29.334 -27.667 50.001 -38s42.667 -20.5 66 -30.5c20.667 -8.66699 41.5 -18.334 62.5 -29.001
s40.167 -23.667 57.5 -39s31.333 -34.333 42 -57s16 -50.667 16 -84c0 -42 -9.33301 -78.5 -28 -109.5s-44.5 -55.167 -77.5 -72.5s-71.5 -26 -115.5 -26zM247.003 -179c-19.333 0 -37 1.50195 -53 4.50195l-24 4.5v70l12 -1c8 -0.666992 17.333 -1.5 28 -2.5
s19.667 -1.5 27 -1.5c18.667 0 32 1.66699 40 5s12 11.666 12 24.999c0 16.667 -1.66699 33.167 -5 49.5s-6 28.166 -8 35.499l64 9c2 -4.66699 4.5 -12 7.5 -22s5.83301 -21.333 8.5 -34s4 -25.667 4 -39c0 -31.333 -10.333 -56.333 -31 -75s-48 -28 -82 -28z" />
    <glyph glyph-name="scedilla" unicode="&#x15f;" horiz-adv-x="506" 
d="M256 -13c-26.667 0 -52.168 2.66699 -76.501 8s-46.166 11.333 -65.499 18s-34.666 12.5 -45.999 17.5l-17 7.5l26 86l17 -7c11.333 -4.66699 26.333 -10.334 45 -17.001s39.5 -12.5 62.5 -17.5s45.5 -7.5 67.5 -7.5c12.667 0 24.167 1.16699 34.5 3.5
s18.166 5.83301 23.499 10.5c6.66699 6 12.667 14.833 18 26.5s8 25.167 8 40.5c0 24.667 -6.33301 43.5 -19 56.5s-29.167 23.167 -49.5 30.5s-42.166 14.333 -65.499 21c-20 6 -39.833 12.333 -59.5 19s-37.5 16 -53.5 28s-28.833 27.667 -38.5 47
s-14.5 44.666 -14.5 75.999c0 48.667 15.5 88 46.5 118s82.167 45 153.5 45c25.333 0 49.5 -1.66699 72.5 -5s43.5 -7.16602 61.5 -11.499s31.667 -7.83301 41 -10.5l-16 -85l-15.5 3.5c-10.333 2.33301 -23.833 5.16602 -40.5 8.49902s-35.167 6.16602 -55.5 8.49902
s-40.833 3.5 -61.5 3.5c-19.333 0 -34.166 -1.16699 -44.499 -3.5s-18.166 -5.5 -23.499 -9.5c-4.66699 -3.33301 -8.83398 -9.33301 -12.501 -18s-5.5 -19 -5.5 -31c0 -24 7.16699 -42.167 21.5 -54.5s32.666 -22 54.999 -29l69.5 -21.5
c19.333 -6 38.166 -12.5 56.499 -19.5s35 -16.667 50 -29s27 -28.166 36 -47.499s13.5 -43.666 13.5 -72.999c0 -55.333 -17 -100.166 -51 -134.499s-83.333 -51.5 -148 -51.5zM234.999 -179c-19.333 0 -37 1.50195 -53 4.50195l-24 4.5v70l12 -1
c8 -0.666992 17.333 -1.5 28 -2.5s19.667 -1.5 27 -1.5c18.667 0 32 1.66699 40 5s12 11.666 12 24.999c0 16.667 -1.66699 33.167 -5 49.5s-6 28.166 -8 35.499l64 9c2 -4.66699 4.5 -12 7.5 -22s5.83301 -21.333 8.5 -34s4 -25.667 4 -39
c0 -31.333 -10.333 -56.333 -31 -75s-48 -28 -82 -28z" />
    <glyph glyph-name="Scaron" unicode="&#x160;" horiz-adv-x="529" 
d="M256 -14c-28.667 0 -56.3311 3.16699 -82.998 9.5s-50.334 13.833 -71.001 22.5s-37 16.167 -49 22.5l-18 9.5l5 13l11.5 29.5l11.5 29l5 12.5l17.5 -8c11.667 -5.33301 27.5 -11.5 47.5 -18.5s42.333 -13.167 67 -18.5s50 -8 76 -8c15.333 0 27.5 1.33301 36.5 4
s15.5 5.33398 19.5 8.00098c11.333 8 20.166 19.167 26.499 33.5s9.5 33.5 9.5 57.5c0 22.667 -5.66699 41.667 -17 57s-26.333 28.333 -45 39s-39 21 -61 31c-25.333 10.667 -49.333 21.667 -72 33s-42.834 24.333 -60.501 39s-31.667 33.334 -42 56.001
s-15.5 50.667 -15.5 84c0 35.333 8.16699 67.166 24.5 95.499s40.666 50.833 72.999 67.5s72.833 25 121.5 25c22.667 0 44.334 -1.33301 65.001 -4s39.5 -5.5 56.5 -8.5s30.333 -5.83301 40 -8.5l14.5 -4l-17 -88l-15.5 2.5l-42 7c-17.667 3 -37 5.33301 -58 7
s-41.833 2.5 -62.5 2.5c-15.333 0 -27.5 -1 -36.5 -3s-16.833 -5 -23.5 -9c-7.33301 -4 -14.333 -12.167 -21 -24.5s-10 -29.5 -10 -51.5c0 -23.333 6.33301 -42.5 19 -57.5s29.334 -27.667 50.001 -38s42.667 -20.5 66 -30.5c20.667 -8.66699 41.5 -18.334 62.5 -29.001
s40.167 -23.667 57.5 -39s31.333 -34.333 42 -57s16 -50.667 16 -84c0 -42 -9.33301 -78.5 -28 -109.5s-44.5 -55.167 -77.5 -72.5s-71.5 -26 -115.5 -26zM236.003 747l-135 96l30 45l130 -60h7l131 60l29 -45l-135 -96h-57z" />
    <glyph glyph-name="scaron" unicode="&#x161;" horiz-adv-x="506" 
d="M256 -13c-26.667 0 -52.168 2.66699 -76.501 8s-46.166 11.333 -65.499 18s-34.666 12.5 -45.999 17.5l-17 7.5l26 86l17 -7c11.333 -4.66699 26.333 -10.334 45 -17.001s39.5 -12.5 62.5 -17.5s45.5 -7.5 67.5 -7.5c12.667 0 24.167 1.16699 34.5 3.5
s18.166 5.83301 23.499 10.5c6.66699 6 12.667 14.833 18 26.5s8 25.167 8 40.5c0 24.667 -6.33301 43.5 -19 56.5s-29.167 23.167 -49.5 30.5s-42.166 14.333 -65.499 21c-20 6 -39.833 12.333 -59.5 19s-37.5 16 -53.5 28s-28.833 27.667 -38.5 47
s-14.5 44.666 -14.5 75.999c0 48.667 15.5 88 46.5 118s82.167 45 153.5 45c25.333 0 49.5 -1.66699 72.5 -5s43.5 -7.16602 61.5 -11.499s31.667 -7.83301 41 -10.5l-16 -85l-15.5 3.5c-10.333 2.33301 -23.833 5.16602 -40.5 8.49902s-35.167 6.16602 -55.5 8.49902
s-40.833 3.5 -61.5 3.5c-19.333 0 -34.166 -1.16699 -44.499 -3.5s-18.166 -5.5 -23.499 -9.5c-4.66699 -3.33301 -8.83398 -9.33301 -12.501 -18s-5.5 -19 -5.5 -31c0 -24 7.16699 -42.167 21.5 -54.5s32.666 -22 54.999 -29l69.5 -21.5
c19.333 -6 38.166 -12.5 56.499 -19.5s35 -16.667 50 -29s27 -28.166 36 -47.499s13.5 -43.666 13.5 -72.999c0 -55.333 -17 -100.166 -51 -134.499s-83.333 -51.5 -148 -51.5zM228.999 661l-135 108l30 42l130 -69h7l130 69l30 -42l-135 -108h-57z" />
    <glyph glyph-name="uni0162" unicode="&#x162;" horiz-adv-x="487" 
d="M190 0l2 608l-195 -3v92h493v-92l-197 3l3 -608h-106zM199 -179c-19.333 0 -37 1.50195 -53 4.50195l-24 4.5v70l12 -1c8 -0.666992 17.333 -1.5 28 -2.5s19.667 -1.5 27 -1.5c18.667 0 32 1.66699 40 5s12 11.666 12 24.999c0 16.667 -1.66699 33.167 -5 49.5
s-6 28.166 -8 35.499l64 9c2 -4.66699 4.5 -12 7.5 -22s5.83301 -21.333 8.5 -34s4 -25.667 4 -39c0 -31.333 -10.333 -56.333 -31 -75s-48 -28 -82 -28z" />
    <glyph glyph-name="uni0163" unicode="&#x163;" horiz-adv-x="375" 
d="M255 -14c-31.333 0 -58.168 5 -80.501 15s-39.5 29.333 -51.5 58s-18 70.667 -18 126v286h-67v66l71 14l22 136h79v-136h117v-82h-117v-289c0 -32.667 1.16699 -56.5 3.5 -71.5s7.33301 -24.333 15 -28s19.834 -5.5 36.501 -5.5c10.667 0 20.667 0.333008 30 1
s16.833 1.16699 22.5 1.5l8.5 0.5v-85l-20 -3.5c-13.333 -2.33301 -30.333 -3.5 -51 -3.5zM175.998 -179c-19.333 0 -37 1.50195 -53 4.50195l-24 4.5v70l12 -1c8 -0.666992 17.333 -1.5 28 -2.5s19.667 -1.5 27 -1.5c18.667 0 32 1.66699 40 5s12 11.666 12 24.999
c0 16.667 -1.66699 33.167 -5 49.5s-6 28.166 -8 35.499l64 9c2 -4.66699 4.5 -12 7.5 -22s5.83301 -21.333 8.5 -34s4 -25.667 4 -39c0 -31.333 -10.333 -56.333 -31 -75s-48 -28 -82 -28z" />
    <glyph glyph-name="Tcaron" unicode="&#x164;" horiz-adv-x="487" 
d="M190 0l2 608l-195 -3v92h493v-92l-197 3l3 -608h-106zM214 747l-135 96l30 45l130 -60h7l131 60l29 -45l-135 -96h-57z" />
    <glyph glyph-name="tcaron" unicode="&#x165;" horiz-adv-x="424" 
d="M255 -14c-31.333 0 -58.168 5 -80.501 15s-39.5 29.333 -51.5 58s-18 70.667 -18 126v286h-67v66l71 14l22 136h79v-136h117v-82h-117v-289c0 -32.667 1.16699 -56.5 3.5 -71.5s7.33301 -24.333 15 -28s19.834 -5.5 36.501 -5.5c10.667 0 20.667 0.333008 30 1
s16.833 1.16699 22.5 1.5l8.5 0.5v-85l-20 -3.5c-13.333 -2.33301 -30.333 -3.5 -51 -3.5zM369.998 538l-16 217h96l-19 -217h-61z" />
    <glyph glyph-name="Tbar" unicode="&#x166;" horiz-adv-x="487" 
d="M451 418v-76h-411v76h411zM190 0l2 608l-195 -3v92h493v-92l-197 3l3 -608h-106z" />
    <glyph glyph-name="tbar" unicode="&#x167;" horiz-adv-x="375" 
d="M38 321h286v-72l-156 3l-130 -3v72zM255 -14c-31.333 0 -58.168 5 -80.501 15s-39.5 29.333 -51.5 58s-18 70.667 -18 126v286h-67v66l71 14l22 136h79v-136h117v-82h-117v-289c0 -32.667 1.16699 -56.5 3.5 -71.5s7.33301 -24.333 15 -28s19.834 -5.5 36.501 -5.5
c10.667 0 20.667 0.333008 30 1s16.833 1.16699 22.5 1.5l8.5 0.5v-85l-20 -3.5c-13.333 -2.33301 -30.333 -3.5 -51 -3.5z" />
    <glyph glyph-name="Utilde" unicode="&#x168;" horiz-adv-x="673" 
d="M336 -14c-50.667 0 -93.668 9.33203 -129.001 27.999s-62.333 51 -81 97s-28 110.333 -28 193v393h106v-366c0 -56 2 -100.5 6 -133.5s10.833 -58 20.5 -75s23 -28.167 40 -33.5s38.833 -8 65.5 -8c27.333 0 49.666 2.83301 66.999 8.5s30.833 16.667 40.5 33
s16.334 41.333 20.001 75s5.5 78.167 5.5 133.5v366h106v-384c0 -85.333 -9.33301 -151.666 -28 -198.999s-45.667 -80.5 -81 -99.5s-78.666 -28.5 -129.999 -28.5zM442.999 746.999c-11.333 0 -27.002 2.5 -47.002 7.5s-40.5 10.5 -61.5 16.5l-56 16
c-16.333 4.66699 -27.166 7 -32.499 7c-4.66699 0 -9.16699 -3.5 -13.5 -10.5s-8 -14.167 -11 -21.5l-4.5 -11l-59 7c0.666992 40.667 8.16699 69 22.5 85s33.5 24 57.5 24c12.667 0 28.834 -2.33301 48.501 -7s39.834 -9.83398 60.501 -15.501l55.5 -15.5
c16.333 -4.66699 27.166 -7 32.499 -7s9.83301 3.5 13.5 10.5s7 14 10 21l4.5 10.5l59 -9c0 -39.333 -6.83301 -67.166 -20.5 -83.499s-33.167 -24.5 -58.5 -24.5z" />
    <glyph glyph-name="utilde" unicode="&#x169;" horiz-adv-x="610" 
d="M233 -13c-32 0 -59.501 7.33398 -82.501 22.001s-40.333 37.5 -52 68.5s-17.5 71.167 -17.5 120.5v386h105v-360c0 -34 1 -61 3 -81s5.66699 -34 11 -42c4.66699 -6.66699 11.667 -11.334 21 -14.001s20 -4 32 -4c26.667 0 53.834 5.33301 81.501 16s53.167 22 76.5 34
v451h104v-584h-69l-12 58h-6l-49.5 -27.5c-20.333 -11 -42.833 -21 -67.5 -30s-50.667 -13.5 -78 -13.5zM392.999 669.001c-11.333 0 -25.6709 2.50098 -43.0039 7.50098s-34.666 10.667 -51.999 17l-46 17c-13.333 5 -22.666 7.5 -27.999 7.5
c-4.66699 0 -9.16699 -3.66699 -13.5 -11s-8 -14.833 -11 -22.5l-4.5 -11.5l-59 7c0.666992 40.667 8.16699 69.167 22.5 85.5s33.5 24.5 57.5 24.5c12.667 0 27.334 -2.33301 44.001 -7s33.334 -10 50.001 -16l45.5 -16.5c13.667 -5 23.167 -7.5 28.5 -7.5
c4.66699 0 9.16699 3.66699 13.5 11s8 14.666 11 21.999l4.5 11l59 -9c0 -40 -6.83301 -68.167 -20.5 -84.5s-33.167 -24.5 -58.5 -24.5z" />
    <glyph glyph-name="Umacron" unicode="&#x16a;" horiz-adv-x="673" 
d="M336 -14c-50.667 0 -93.668 9.33203 -129.001 27.999s-62.333 51 -81 97s-28 110.333 -28 193v393h106v-366c0 -56 2 -100.5 6 -133.5s10.833 -58 20.5 -75s23 -28.167 40 -33.5s38.833 -8 65.5 -8c27.333 0 49.666 2.83301 66.999 8.5s30.833 16.667 40.5 33
s16.334 41.333 20.001 75s5.5 78.167 5.5 133.5v366h106v-384c0 -85.333 -9.33301 -151.666 -28 -198.999s-45.667 -80.5 -81 -99.5s-78.666 -28.5 -129.999 -28.5zM165.999 768.999v75h342v-75h-342z" />
    <glyph glyph-name="umacron" unicode="&#x16b;" horiz-adv-x="610" 
d="M233 -13c-32 0 -59.501 7.33398 -82.501 22.001s-40.333 37.5 -52 68.5s-17.5 71.167 -17.5 120.5v386h105v-360c0 -34 1 -61 3 -81s5.66699 -34 11 -42c4.66699 -6.66699 11.667 -11.334 21 -14.001s20 -4 32 -4c26.667 0 53.834 5.33301 81.501 16s53.167 22 76.5 34
v451h104v-584h-69l-12 58h-6l-49.5 -27.5c-20.333 -11 -42.833 -21 -67.5 -30s-50.667 -13.5 -78 -13.5zM133.999 683.001v75h342v-75h-342z" />
    <glyph glyph-name="Uring" unicode="&#x16e;" horiz-adv-x="673" 
d="M336 -14c-50.667 0 -93.668 9.33203 -129.001 27.999s-62.333 51 -81 97s-28 110.333 -28 193v393h106v-366c0 -56 2 -100.5 6 -133.5s10.833 -58 20.5 -75s23 -28.167 40 -33.5s38.833 -8 65.5 -8c27.333 0 49.666 2.83301 66.999 8.5s30.833 16.667 40.5 33
s16.334 41.333 20.001 75s5.5 78.167 5.5 133.5v366h106v-384c0 -85.333 -9.33301 -151.666 -28 -198.999s-45.667 -80.5 -81 -99.5s-78.666 -28.5 -129.999 -28.5zM336.999 724.999c-15.333 0 -29.833 2.66602 -43.5 7.99902s-25 14.333 -34 27s-13.5 29.667 -13.5 51
c0 22.667 4.5 40.167 13.5 52.5s20.333 21.166 34 26.499s28.167 8 43.5 8s29.833 -2.66699 43.5 -8s25 -14.166 34 -26.499s13.5 -29.833 13.5 -52.5c0 -22 -4.5 -39.167 -13.5 -51.5s-20.333 -21.166 -34 -26.499s-28.167 -8 -43.5 -8zM336.999 776.998
c12 0 20.667 2.16699 26 6.5s8 13.5 8 27.5c0 14.667 -2.66699 24.167 -8 28.5s-14 6.5 -26 6.5s-21 -2.16699 -27 -6.5s-9 -13.833 -9 -28.5c0 -14 3 -23.167 9 -27.5s15 -6.5 27 -6.5z" />
    <glyph glyph-name="uring" unicode="&#x16f;" horiz-adv-x="610" 
d="M233 -13c-32 0 -59.501 7.33398 -82.501 22.001s-40.333 37.5 -52 68.5s-17.5 71.167 -17.5 120.5v386h105v-360c0 -34 1 -61 3 -81s5.66699 -34 11 -42c4.66699 -6.66699 11.667 -11.334 21 -14.001s20 -4 32 -4c26.667 0 53.834 5.33301 81.501 16s53.167 22 76.5 34
v451h104v-584h-69l-12 58h-6l-49.5 -27.5c-20.333 -11 -42.833 -21 -67.5 -30s-50.667 -13.5 -78 -13.5zM304.999 645.001c-15.333 0 -29.833 2.66699 -43.5 8s-25 14.166 -34 26.499s-13.5 29.833 -13.5 52.5c0 23.333 4.5 41.333 13.5 54s20.333 21.5 34 26.5
s28.167 7.5 43.5 7.5c14.667 0 28.834 -2.5 42.501 -7.5s25 -13.833 34 -26.5s13.5 -30.667 13.5 -54c0 -22.667 -4.5 -40.167 -13.5 -52.5s-20.333 -21.166 -34 -26.499s-27.834 -8 -42.501 -8zM304.999 694.001c12.667 0 21.834 2.5 27.501 7.5s8.5 15.167 8.5 30.5
c0 16 -2.83301 26.333 -8.5 31s-14.834 7 -27.501 7c-13.333 0 -23 -2.33301 -29 -7s-9 -15 -9 -31c0 -15.333 3 -25.5 9 -30.5s15.667 -7.5 29 -7.5z" />
    <glyph glyph-name="Uhungarumlaut" unicode="&#x170;" horiz-adv-x="673" 
d="M336 -14c-50.667 0 -93.668 9.33203 -129.001 27.999s-62.333 51 -81 97s-28 110.333 -28 193v393h106v-366c0 -56 2 -100.5 6 -133.5s10.833 -58 20.5 -75s23 -28.167 40 -33.5s38.833 -8 65.5 -8c27.333 0 49.666 2.83301 66.999 8.5s30.833 16.667 40.5 33
s16.334 41.333 20.001 75s5.5 78.167 5.5 133.5v366h106v-384c0 -85.333 -9.33301 -151.666 -28 -198.999s-45.667 -80.5 -81 -99.5s-78.666 -28.5 -129.999 -28.5zM142.999 742.999l-24 58l206 93l36 -74zM389.999 742.999l-24 57l203 86l36 -77z" />
    <glyph glyph-name="uhungarumlaut" unicode="&#x171;" horiz-adv-x="610" 
d="M233 -13c-32 0 -59.501 7.33398 -82.501 22.001s-40.333 37.5 -52 68.5s-17.5 71.167 -17.5 120.5v386h105v-360c0 -34 1 -61 3 -81s5.66699 -34 11 -42c4.66699 -6.66699 11.667 -11.334 21 -14.001s20 -4 32 -4c26.667 0 53.834 5.33301 81.501 16s53.167 22 76.5 34
v451h104v-584h-69l-12 58h-6l-49.5 -27.5c-20.333 -11 -42.833 -21 -67.5 -30s-50.667 -13.5 -78 -13.5zM171.999 642.001l-38 48l152 130l51 -67zM358.999 642.001l-37 48l157 130l50 -67z" />
    <glyph glyph-name="Uogonek" unicode="&#x172;" horiz-adv-x="673" 
d="M336 -14c-50.667 0 -93.668 9.33203 -129.001 27.999s-62.333 51 -81 97s-28 110.333 -28 193v393h106v-366c0 -56 2 -100.5 6 -133.5s10.833 -58 20.5 -75s23 -28.167 40 -33.5s38.833 -8 65.5 -8c27.333 0 49.666 2.83301 66.999 8.5s30.833 16.667 40.5 33
s16.334 41.333 20.001 75s5.5 78.167 5.5 133.5v366h106v-384c0 -85.333 -9.33301 -151.666 -28 -198.999s-45.667 -80.5 -81 -99.5s-78.666 -28.5 -129.999 -28.5zM366.999 -179.001c-30 0 -54.501 6.16797 -73.501 18.501s-28.5 32.166 -28.5 59.499
c0 17.333 5.66699 33.833 17 49.5s25.833 29.667 43.5 42s35.834 22.5 54.501 30.5l54 -21c-28 -10 -51 -22.667 -69 -38s-27 -29.333 -27 -42c0 -10.667 4.16699 -18 12.5 -22s19.5 -6 33.5 -6c10.667 0 21.667 0.666992 33 2l17 2v-67l-19 -4
c-12.667 -2.66699 -28.667 -4 -48 -4z" />
    <glyph glyph-name="uogonek" unicode="&#x173;" horiz-adv-x="610" 
d="M233 -13c-32 0 -59.501 7.33398 -82.501 22.001s-40.333 37.5 -52 68.5s-17.5 71.167 -17.5 120.5v386h105v-360c0 -34 1 -61 3 -81s5.66699 -34 11 -42c4.66699 -6.66699 11.667 -11.334 21 -14.001s20 -4 32 -4c26.667 0 53.834 5.33301 81.501 16s53.167 22 76.5 34
v451h104v-584h-69l-12 58h-6l-49.5 -27.5c-20.333 -11 -42.833 -21 -67.5 -30s-50.667 -13.5 -78 -13.5zM448.999 -178.999c-30 0 -54.501 6.16797 -73.501 18.501s-28.5 32.166 -28.5 59.499c0 17.333 5.66699 33.833 17 49.5s25.833 29.667 43.5 42
s35.834 22.5 54.501 30.5l54 -21c-28 -10 -51 -22.667 -69 -38s-27 -29.333 -27 -42c0 -10.667 4.16699 -18 12.5 -22s19.5 -6 33.5 -6c10.667 0 21.667 0.666992 33 2l17 2v-67l-19 -4c-12.667 -2.66699 -28.667 -4 -48 -4z" />
    <glyph glyph-name="Wcircumflex" unicode="&#x174;" horiz-adv-x="775" 
d="M139 0l-120 697h108l83 -597h7l101 433h139l101 -433h7l83 597h108l-119 -697h-144l-102 437h-6l-103 -437h-143zM256 735l-30 45l135 97h57l135 -97l-29 -45l-131 61h-7z" />
    <glyph glyph-name="wcircumflex" unicode="&#x175;" horiz-adv-x="750" 
d="M138 0l-115 584h106l80 -504h5l91 426h142l92 -426h5l79 504h107l-116 -584h-144l-91 426h-6l-90 -426h-145zM241 652l-30 43l135 107h57l135 -107l-30 -43l-130 69h-7z" />
    <glyph glyph-name="Ycircumflex" unicode="&#x176;" horiz-adv-x="528" 
d="M210 0l3 257l-203 440h114l137 -340h6l136 340h114l-203 -440l3 -257h-107zM130 735l-30 45l135 97h57l135 -97l-29 -45l-131 61h-7z" />
    <glyph glyph-name="ycircumflex" unicode="&#x177;" horiz-adv-x="496" 
d="M117 -166l80 223l-189 527h110l126 -415h4l125 415h111l-199 -550l-58 -200h-110zM113 652l-30 43l135 107h57l135 -107l-30 -43l-130 69h-7z" />
    <glyph glyph-name="Ydieresis" unicode="&#x178;" horiz-adv-x="528" 
d="M210 0l3 257l-203 440h114l137 -340h6l136 340h114l-203 -440l3 -257h-107zM106 762v90h113v-90h-113zM304 762v90h113v-90h-113z" />
    <glyph glyph-name="Zacute" unicode="&#x179;" horiz-adv-x="544" 
d="M26 0v88l347 515v7l-327 -5v92h451v-86l-343 -515v-8l354 4v-92h-482zM166 738l-19 61l246 80l28 -84z" />
    <glyph glyph-name="zacute" unicode="&#x17a;" horiz-adv-x="482" 
d="M27 0v78l293 420v5l-280 -6v87h404v-78l-292 -419v-7l298 6v-86h-423zM144 652l-21 59l217 85l30 -80z" />
    <glyph glyph-name="Zdotaccent" unicode="&#x17b;" horiz-adv-x="544" 
d="M26 0v88l347 515v7l-327 -5v92h451v-86l-343 -515v-8l354 4v-92h-482zM213 762v90h120v-90h-120z" />
    <glyph glyph-name="zdotaccent" unicode="&#x17c;" horiz-adv-x="482" 
d="M27 0v78l293 420v5l-280 -6v87h404v-78l-292 -419v-7l298 6v-86h-423zM186 677v92h120v-92h-120z" />
    <glyph glyph-name="Zcaron" unicode="&#x17d;" horiz-adv-x="544" 
d="M26 0v88l347 515v7l-327 -5v92h451v-86l-343 -515v-8l354 4v-92h-482zM244 747l-135 96l30 45l130 -60h7l131 60l29 -45l-135 -96h-57z" />
    <glyph glyph-name="zcaron" unicode="&#x17e;" horiz-adv-x="482" 
d="M27 0v78l293 420v5l-280 -6v87h404v-78l-292 -419v-7l298 6v-86h-423zM216 661l-135 108l30 42l130 -69h7l130 69l30 -42l-135 -108h-57z" />
    <glyph glyph-name="Ohorn" unicode="&#x1a0;" horiz-adv-x="669" 
d="M335 -14c-36.667 0 -71.334 5.33301 -104.001 16s-61.5 29.334 -86.5 56.001s-44.5 63.667 -58.5 111s-21 107.666 -21 180.999c0 74 7 134.333 21 181s33.5 83.167 58.5 109.5s53.833 44.666 86.5 54.999s67.334 15.5 104.001 15.5s71.167 -5.16699 103.5 -15.5
s61 -28.666 86 -54.999s44.5 -62.833 58.5 -109.5s21 -107 21 -181c0 -73.333 -7 -133.666 -21 -180.999s-33.5 -84.333 -58.5 -111s-53.667 -45.334 -86 -56.001s-66.833 -16 -103.5 -16zM335 81c27.333 0 50.834 3 70.501 9s36 18.167 49 36.5s22.667 45.166 29 80.499
s9.5 82.333 9.5 141c0 58 -3 104.833 -9 140.5s-15.333 62.667 -28 81s-29.167 30.666 -49.5 36.999s-44.166 9.5 -71.499 9.5c-28.667 0 -52.834 -3.16699 -72.501 -9.5s-35.834 -18.666 -48.501 -36.999s-22 -45.333 -28 -81s-9 -82.5 -9 -140.5
c0 -58.667 3 -105.667 9 -141s15.5 -62.166 28.5 -80.499s29.5 -30.5 49.5 -36.5s43.667 -9 71 -9zM440.001 693l86.001 0.000976562c10.667 0 19 2.33301 25 7s9 12.667 9 24c0 7.33301 -0.833008 16.666 -2.5 27.999s-3.83398 23.833 -6.50098 37.5s-5.66699 27.5 -9 41.5
h88c4 -13.333 7.5 -27.833 10.5 -43.5s4.5 -30.5 4.5 -44.5c0 -26 -5.66699 -47.667 -17 -65s-26.833 -30.333 -46.5 -39s-41.5 -13 -65.5 -13h-63z" />
    <glyph glyph-name="ohorn" unicode="&#x1a1;" horiz-adv-x="587" 
d="M294 -13c-58 0 -103.833 12.333 -137.5 37s-57.667 59.834 -72 105.501s-21.5 99.834 -21.5 162.501s7.16699 116.834 21.5 162.501s38.333 80.834 72 105.501s79.5 37 137.5 37s103.667 -12.333 137 -37s57 -59.834 71 -105.501s21 -99.834 21 -162.501
s-7 -116.834 -21 -162.501s-37.667 -80.834 -71 -105.501s-79 -37 -137 -37zM294 73c23.333 0 42.8311 2.83301 58.498 8.5s28.334 16.167 38.001 31.5s16.334 37.5 20.001 66.5s5.5 66.5 5.5 112.5s-2 83.5 -6 112.5s-10.667 51.167 -20 66.5s-21.833 25.833 -37.5 31.5
s-35.167 8.5 -58.5 8.5c-24 0 -43.833 -2.83301 -59.5 -8.5s-28.334 -16.167 -38.001 -31.5s-16.5 -37.5 -20.5 -66.5s-6 -66.5 -6 -112.5s2 -83.5 6 -112.5s10.833 -51.167 20.5 -66.5s22.334 -25.833 38.001 -31.5s35.5 -8.5 59.5 -8.5zM357.998 587l86.001 0.000976562
c10.667 0 19 2.33301 25 7s9 12.667 9 24c0 7.33301 -0.833008 16.666 -2.5 27.999s-3.83398 23.833 -6.50098 37.5s-5.66699 27.5 -9 41.5h88c4 -13.333 7.5 -27.833 10.5 -43.5s4.5 -30.5 4.5 -44.5c0 -26 -5.66699 -47.667 -17 -65s-26.833 -30.333 -46.5 -39
s-41.5 -13 -65.5 -13h-63z" />
    <glyph glyph-name="Uhorn" unicode="&#x1af;" horiz-adv-x="673" 
d="M336 -14c-50.667 0 -93.668 9.33203 -129.001 27.999s-62.333 51 -81 97s-28 110.333 -28 193v393h106v-366c0 -56 2 -100.5 6 -133.5s10.833 -58 20.5 -75s23 -28.167 40 -33.5s38.833 -8 65.5 -8c27.333 0 49.666 2.83301 66.999 8.5s30.833 16.667 40.5 33
s16.334 41.333 20.001 75s5.5 78.167 5.5 133.5v366h106v-384c0 -85.333 -9.33301 -151.666 -28 -198.999s-45.667 -80.5 -81 -99.5s-78.666 -28.5 -129.999 -28.5zM506.999 696.999l86.001 0.000976562c10.667 0 19 2.33301 25 7s9 12.667 9 24
c0 7.33301 -0.833008 16.666 -2.5 27.999s-3.83398 23.833 -6.50098 37.5s-5.66699 27.5 -9 41.5h88c4 -13.333 7.5 -27.833 10.5 -43.5s4.5 -30.5 4.5 -44.5c0 -26 -5.66699 -47.667 -17 -65s-26.833 -30.333 -46.5 -39s-41.5 -13 -65.5 -13h-63z" />
    <glyph glyph-name="uhorn" unicode="&#x1b0;" horiz-adv-x="610" 
d="M233 -13c-32 0 -59.501 7.33398 -82.501 22.001s-40.333 37.5 -52 68.5s-17.5 71.167 -17.5 120.5v386h105v-360c0 -34 1 -61 3 -81s5.66699 -34 11 -42c4.66699 -6.66699 11.667 -11.334 21 -14.001s20 -4 32 -4c26.667 0 53.834 5.33301 81.501 16s53.167 22 76.5 34
v451h104v-584h-69l-12 58h-6l-49.5 -27.5c-20.333 -11 -42.833 -21 -67.5 -30s-50.667 -13.5 -78 -13.5zM438.999 583.001l86.001 0.000976562c10.667 0 19 2.33301 25 7s9 12.667 9 24c0 7.33301 -0.833008 16.666 -2.5 27.999s-3.83398 23.833 -6.50098 37.5
s-5.66699 27.5 -9 41.5h88c4 -13.333 7.5 -27.833 10.5 -43.5s4.5 -30.5 4.5 -44.5c0 -26 -5.66699 -47.667 -17 -65s-26.833 -30.333 -46.5 -39s-41.5 -13 -65.5 -13h-63z" />
    <glyph glyph-name="uni01CD" unicode="&#x1cd;" horiz-adv-x="526" 
d="M0 0l190 697h144l190 -697h-108l-54 213l56 -37h-310l54 37l-53 -213h-109zM163 219l-36 48h271l-36 -48l-108 429l59 -46h-101l58 46zM234 747l-135 96l30 45l130 -60h7l131 60l29 -45l-135 -96h-57z" />
    <glyph glyph-name="uni01CE" unicode="&#x1ce;" horiz-adv-x="585" 
d="M214 -13c-30.667 0 -58.1699 7.33301 -82.5029 22s-43.5 36 -57.5 64s-21 61.667 -21 101c0 48 10 85.5 30 112.5s48.167 46.333 84.5 58s78.833 17.5 127.5 17.5h96c0 32 -1 58.5 -3 79.5s-6.66699 36.5 -14 46.5c-5.33301 8 -13.333 13.5 -24 16.5s-23.667 4.5 -39 4.5
c-25.333 0 -50.666 -2.33301 -75.999 -7s-48.5 -10.167 -69.5 -16.5s-37.667 -11.833 -50 -16.5l-18.5 -7l-30 79l19.5 8.5c13 5.66699 30.5 12.167 52.5 19.5s46.667 13.833 74 19.5s56 8.5 86 8.5c48.667 0 87.334 -8.83301 116.001 -26.5s49.334 -42.5 62.001 -74.5
s19 -70 19 -114v-382h-67l-15 62h-6c-4.66699 -3.33301 -13 -9 -25 -17s-26.667 -16.5 -44 -25.5s-36.5 -16.667 -57.5 -23s-43.5 -9.5 -67.5 -9.5zM237.997 76c22 0 43.499 3.5 64.499 10.5s39.5 14.5 55.5 22.5s27 13.667 33 17v147c-6 1.33301 -17.5 2.83301 -34.5 4.5
s-38.833 2.5 -65.5 2.5c-56.667 0 -92 -6 -106 -18c-7.33301 -6 -13.166 -16.333 -17.499 -31s-6.5 -33 -6.5 -55c0 -34.667 6 -60 18 -76s31.667 -24 59 -24zM257.996 661l-135 108l30 42l130 -69h7l130 69l30 -42l-135 -108h-57z" />
    <glyph glyph-name="uni01CF" unicode="&#x1cf;" horiz-adv-x="304" 
d="M98 -1l4 321l-4 377h107l-3 -308l3 -389zM123 747l-135 96l30 45l130 -60h7l131 60l29 -45l-135 -96h-57z" />
    <glyph glyph-name="uni01D0" unicode="&#x1d0;" horiz-adv-x="300" 
d="M120 661l-118 108l30 42l114 -69h7l114 69l30 -42l-119 -108h-58zM98 0v584h104v-584h-104z" />
    <glyph glyph-name="uni01D1" unicode="&#x1d1;" horiz-adv-x="669" 
d="M335 -14c-36.667 0 -71.334 5.33301 -104.001 16s-61.5 29.334 -86.5 56.001s-44.5 63.667 -58.5 111s-21 107.666 -21 180.999c0 74 7 134.333 21 181s33.5 83.167 58.5 109.5s53.833 44.666 86.5 54.999s67.334 15.5 104.001 15.5s71.167 -5.16699 103.5 -15.5
s61 -28.666 86 -54.999s44.5 -62.833 58.5 -109.5s21 -107 21 -181c0 -73.333 -7 -133.666 -21 -180.999s-33.5 -84.333 -58.5 -111s-53.667 -45.334 -86 -56.001s-66.833 -16 -103.5 -16zM335 81c27.333 0 50.834 3 70.501 9s36 18.167 49 36.5s22.667 45.166 29 80.499
s9.5 82.333 9.5 141c0 58 -3 104.833 -9 140.5s-15.333 62.667 -28 81s-29.167 30.666 -49.5 36.999s-44.166 9.5 -71.499 9.5c-28.667 0 -52.834 -3.16699 -72.501 -9.5s-35.834 -18.666 -48.501 -36.999s-22 -45.333 -28 -81s-9 -82.5 -9 -140.5
c0 -58.667 3 -105.667 9 -141s15.5 -62.166 28.5 -80.499s29.5 -30.5 49.5 -36.5s43.667 -9 71 -9zM305.001 747l-135 96l30 45l130 -60h7l131 60l29 -45l-135 -96h-57z" />
    <glyph glyph-name="uni01D2" unicode="&#x1d2;" horiz-adv-x="587" 
d="M294 -13c-58 0 -103.833 12.333 -137.5 37s-57.667 59.834 -72 105.501s-21.5 99.834 -21.5 162.501s7.16699 116.834 21.5 162.501s38.333 80.834 72 105.501s79.5 37 137.5 37s103.667 -12.333 137 -37s57 -59.834 71 -105.501s21 -99.834 21 -162.501
s-7 -116.834 -21 -162.501s-37.667 -80.834 -71 -105.501s-79 -37 -137 -37zM294 73c23.333 0 42.8311 2.83301 58.498 8.5s28.334 16.167 38.001 31.5s16.334 37.5 20.001 66.5s5.5 66.5 5.5 112.5s-2 83.5 -6 112.5s-10.667 51.167 -20 66.5s-21.833 25.833 -37.5 31.5
s-35.167 8.5 -58.5 8.5c-24 0 -43.833 -2.83301 -59.5 -8.5s-28.334 -16.167 -38.001 -31.5s-16.5 -37.5 -20.5 -66.5s-6 -66.5 -6 -112.5s2 -83.5 6 -112.5s10.833 -51.167 20.5 -66.5s22.334 -25.833 38.001 -31.5s35.5 -8.5 59.5 -8.5zM263.998 661l-135 108l30 42
l130 -69h7l130 69l30 -42l-135 -108h-57z" />
    <glyph glyph-name="uni01D3" unicode="&#x1d3;" horiz-adv-x="673" 
d="M336 -14c-50.667 0 -93.668 9.33203 -129.001 27.999s-62.333 51 -81 97s-28 110.333 -28 193v393h106v-366c0 -56 2 -100.5 6 -133.5s10.833 -58 20.5 -75s23 -28.167 40 -33.5s38.833 -8 65.5 -8c27.333 0 49.666 2.83301 66.999 8.5s30.833 16.667 40.5 33
s16.334 41.333 20.001 75s5.5 78.167 5.5 133.5v366h106v-384c0 -85.333 -9.33301 -151.666 -28 -198.999s-45.667 -80.5 -81 -99.5s-78.666 -28.5 -129.999 -28.5zM307.999 746.999l-135 96l30 45l130 -60h7l131 60l29 -45l-135 -96h-57z" />
    <glyph glyph-name="uni01D4" unicode="&#x1d4;" horiz-adv-x="610" 
d="M233 -13c-32 0 -59.501 7.33398 -82.501 22.001s-40.333 37.5 -52 68.5s-17.5 71.167 -17.5 120.5v386h105v-360c0 -34 1 -61 3 -81s5.66699 -34 11 -42c4.66699 -6.66699 11.667 -11.334 21 -14.001s20 -4 32 -4c26.667 0 53.834 5.33301 81.501 16s53.167 22 76.5 34
v451h104v-584h-69l-12 58h-6l-49.5 -27.5c-20.333 -11 -42.833 -21 -67.5 -30s-50.667 -13.5 -78 -13.5zM275.999 661.001l-135 108l30 42l130 -69h7l130 69l30 -42l-135 -108h-57z" />
    <glyph glyph-name="uni01D5" unicode="&#x1d5;" horiz-adv-x="673" 
d="M336 -14c-50.667 0 -93.668 9.33203 -129.001 27.999s-62.333 51 -81 97s-28 110.333 -28 193v393h106v-366c0 -56 2 -100.5 6 -133.5s10.833 -58 20.5 -75s23 -28.167 40 -33.5s38.833 -8 65.5 -8c27.333 0 49.666 2.83301 66.999 8.5s30.833 16.667 40.5 33
s16.334 41.333 20.001 75s5.5 78.167 5.5 133.5v366h106v-384c0 -85.333 -9.33301 -151.666 -28 -198.999s-45.667 -80.5 -81 -99.5s-78.666 -28.5 -129.999 -28.5zM178.999 761.999v90h113v-90h-113zM376.999 761.999v90h113v-90h-113zM163.999 921.999v75h342v-75h-342z
" />
    <glyph glyph-name="uni01D6" unicode="&#x1d6;" horiz-adv-x="610" 
d="M233 -13c-32 0 -59.501 7.33398 -82.501 22.001s-40.333 37.5 -52 68.5s-17.5 71.167 -17.5 120.5v386h105v-360c0 -34 1 -61 3 -81s5.66699 -34 11 -42c4.66699 -6.66699 11.667 -11.334 21 -14.001s20 -4 32 -4c26.667 0 53.834 5.33301 81.501 16s53.167 22 76.5 34
v451h104v-584h-69l-12 58h-6l-49.5 -27.5c-20.333 -11 -42.833 -21 -67.5 -30s-50.667 -13.5 -78 -13.5zM146.999 679.001v90h113v-90h-113zM344.999 679.001v90h113v-90h-113zM133.999 861.001v75h342v-75h-342z" />
    <glyph glyph-name="uni01D7" unicode="&#x1d7;" horiz-adv-x="673" 
d="M336 -14c-50.667 0 -93.668 9.33203 -129.001 27.999s-62.333 51 -81 97s-28 110.333 -28 193v393h106v-366c0 -56 2 -100.5 6 -133.5s10.833 -58 20.5 -75s23 -28.167 40 -33.5s38.833 -8 65.5 -8c27.333 0 49.666 2.83301 66.999 8.5s30.833 16.667 40.5 33
s16.334 41.333 20.001 75s5.5 78.167 5.5 133.5v366h106v-384c0 -85.333 -9.33301 -151.666 -28 -198.999s-45.667 -80.5 -81 -99.5s-78.666 -28.5 -129.999 -28.5zM178.999 761.999v90h113v-90h-113zM376.999 761.999v90h113v-90h-113zM229.999 890.999l-19 61l246 80
l28 -84z" />
    <glyph glyph-name="uni01D8" unicode="&#x1d8;" horiz-adv-x="610" 
d="M233 -13c-32 0 -59.501 7.33398 -82.501 22.001s-40.333 37.5 -52 68.5s-17.5 71.167 -17.5 120.5v386h105v-360c0 -34 1 -61 3 -81s5.66699 -34 11 -42c4.66699 -6.66699 11.667 -11.334 21 -14.001s20 -4 32 -4c26.667 0 53.834 5.33301 81.501 16s53.167 22 76.5 34
v451h104v-584h-69l-12 58h-6l-49.5 -27.5c-20.333 -11 -42.833 -21 -67.5 -30s-50.667 -13.5 -78 -13.5zM146.999 679.001v90h113v-90h-113zM344.999 679.001v90h113v-90h-113zM201.999 830.001l-21 59l217 85l30 -80z" />
    <glyph glyph-name="uni01D9" unicode="&#x1d9;" horiz-adv-x="673" 
d="M336 -14c-50.667 0 -93.668 9.33203 -129.001 27.999s-62.333 51 -81 97s-28 110.333 -28 193v393h106v-366c0 -56 2 -100.5 6 -133.5s10.833 -58 20.5 -75s23 -28.167 40 -33.5s38.833 -8 65.5 -8c27.333 0 49.666 2.83301 66.999 8.5s30.833 16.667 40.5 33
s16.334 41.333 20.001 75s5.5 78.167 5.5 133.5v366h106v-384c0 -85.333 -9.33301 -151.666 -28 -198.999s-45.667 -80.5 -81 -99.5s-78.666 -28.5 -129.999 -28.5zM178.999 761.999v90h113v-90h-113zM376.999 761.999v90h113v-90h-113zM307.999 899.999l-135 96l30 45
l130 -60h7l131 60l29 -45l-135 -96h-57z" />
    <glyph glyph-name="uni01DA" unicode="&#x1da;" horiz-adv-x="610" 
d="M233 -13c-32 0 -59.501 7.33398 -82.501 22.001s-40.333 37.5 -52 68.5s-17.5 71.167 -17.5 120.5v386h105v-360c0 -34 1 -61 3 -81s5.66699 -34 11 -42c4.66699 -6.66699 11.667 -11.334 21 -14.001s20 -4 32 -4c26.667 0 53.834 5.33301 81.501 16s53.167 22 76.5 34
v451h104v-584h-69l-12 58h-6l-49.5 -27.5c-20.333 -11 -42.833 -21 -67.5 -30s-50.667 -13.5 -78 -13.5zM146.999 679.001v90h113v-90h-113zM344.999 679.001v90h113v-90h-113zM275.999 839.001l-135 108l30 42l130 -69h7l130 69l30 -42l-135 -108h-57z" />
    <glyph glyph-name="uni01DB" unicode="&#x1db;" horiz-adv-x="673" 
d="M336 -14c-50.667 0 -93.668 9.33203 -129.001 27.999s-62.333 51 -81 97s-28 110.333 -28 193v393h106v-366c0 -56 2 -100.5 6 -133.5s10.833 -58 20.5 -75s23 -28.167 40 -33.5s38.833 -8 65.5 -8c27.333 0 49.666 2.83301 66.999 8.5s30.833 16.667 40.5 33
s16.334 41.333 20.001 75s5.5 78.167 5.5 133.5v366h106v-384c0 -85.333 -9.33301 -151.666 -28 -198.999s-45.667 -80.5 -81 -99.5s-78.666 -28.5 -129.999 -28.5zM178.999 761.999v90h113v-90h-113zM376.999 761.999v90h113v-90h-113zM456.999 890.999l-257 59l24 82
l250 -80z" />
    <glyph glyph-name="uni01DC" unicode="&#x1dc;" horiz-adv-x="610" 
d="M233 -13c-32 0 -59.501 7.33398 -82.501 22.001s-40.333 37.5 -52 68.5s-17.5 71.167 -17.5 120.5v386h105v-360c0 -34 1 -61 3 -81s5.66699 -34 11 -42c4.66699 -6.66699 11.667 -11.334 21 -14.001s20 -4 32 -4c26.667 0 53.834 5.33301 81.501 16s53.167 22 76.5 34
v451h104v-584h-69l-12 58h-6l-49.5 -27.5c-20.333 -11 -42.833 -21 -67.5 -30s-50.667 -13.5 -78 -13.5zM146.999 679.001v90h113v-90h-113zM344.999 679.001v90h113v-90h-113zM394.999 830.001l-227 64l29 80l218 -84z" />
    <glyph glyph-name="uni01DE" unicode="&#x1de;" horiz-adv-x="526" 
d="M0 0l190 697h144l190 -697h-108l-54 213l56 -37h-310l54 37l-53 -213h-109zM163 219l-36 48h271l-36 -48l-108 429l59 -46h-101l58 46zM105 762v90h113v-90h-113zM303 762v90h113v-90h-113zM92 922v75h342v-75h-342z" />
    <glyph glyph-name="uni01DF" unicode="&#x1df;" horiz-adv-x="585" 
d="M214 -13c-30.667 0 -58.1699 7.33301 -82.5029 22s-43.5 36 -57.5 64s-21 61.667 -21 101c0 48 10 85.5 30 112.5s48.167 46.333 84.5 58s78.833 17.5 127.5 17.5h96c0 32 -1 58.5 -3 79.5s-6.66699 36.5 -14 46.5c-5.33301 8 -13.333 13.5 -24 16.5s-23.667 4.5 -39 4.5
c-25.333 0 -50.666 -2.33301 -75.999 -7s-48.5 -10.167 -69.5 -16.5s-37.667 -11.833 -50 -16.5l-18.5 -7l-30 79l19.5 8.5c13 5.66699 30.5 12.167 52.5 19.5s46.667 13.833 74 19.5s56 8.5 86 8.5c48.667 0 87.334 -8.83301 116.001 -26.5s49.334 -42.5 62.001 -74.5
s19 -70 19 -114v-382h-67l-15 62h-6c-4.66699 -3.33301 -13 -9 -25 -17s-26.667 -16.5 -44 -25.5s-36.5 -16.667 -57.5 -23s-43.5 -9.5 -67.5 -9.5zM237.997 76c22 0 43.499 3.5 64.499 10.5s39.5 14.5 55.5 22.5s27 13.667 33 17v147c-6 1.33301 -17.5 2.83301 -34.5 4.5
s-38.833 2.5 -65.5 2.5c-56.667 0 -92 -6 -106 -18c-7.33301 -6 -13.166 -16.333 -17.499 -31s-6.5 -33 -6.5 -55c0 -34.667 6 -60 18 -76s31.667 -24 59 -24zM129.996 679v90h113v-90h-113zM327.996 679v90h113v-90h-113zM115.996 861v75h342v-75h-342z" />
    <glyph glyph-name="Gcaron" unicode="&#x1e6;" horiz-adv-x="625" 
d="M336 -13c-36 0 -70.335 4.83496 -103.002 14.502s-61.667 27.5 -87 53.5s-45.166 63 -59.499 111s-21.5 109.667 -21.5 185c0 74.667 6.83301 135.5 20.5 182.5s33.167 83.333 58.5 109s55.5 43.334 90.5 53.001s73.833 14.5 116.5 14.5c22 0 44.667 -0.833008 68 -2.5
s45.5 -4.16699 66.5 -7.5s37.5 -6.33301 49.5 -9l-12 -89l-71.5 8.5c-30.333 3.66699 -65.833 5.5 -106.5 5.5c-32.667 0 -58.5 -1.83301 -77.5 -5.5s-33.167 -10.167 -42.5 -19.5c-12 -11.333 -23 -35.833 -33 -73.5s-15 -92.834 -15 -165.501
c0 -55.333 3 -99.833 9 -133.5s13 -58.834 21 -75.501s14.667 -28.334 20 -35.001c7.33301 -7.33301 19.666 -14 36.999 -20s43.333 -9 78 -9c20.667 0 39 1 55 3s29 5 39 9v246l48 -51l-153 9v77h207v-344l-26 -10c-17.333 -6.66699 -41.166 -13.5 -71.499 -20.5
s-65.166 -10.5 -104.499 -10.5zM309.998 747.002l-135 96l30 45l130 -60h7l131 60l29 -45l-135 -96h-57z" />
    <glyph glyph-name="gcaron" unicode="&#x1e7;" horiz-adv-x="534" 
d="M260 -179c-28 0 -54.332 1.5 -78.999 4.5s-46.5 6.5 -65.5 10.5s-34 7.33301 -45 10l-16.5 4l12 88c40.667 -6.66699 81.834 -12.667 123.501 -18s81.834 -8 120.501 -8c32.667 0 54.667 2.5 66 7.5s17 12.833 17 23.5c0 5.33301 -1.66699 10.5 -5 15.5
s-9.5 10.333 -18.5 16s-22.833 12.667 -41.5 21s-43.667 18.5 -75 30.5c-35.333 14 -60.833 24.333 -76.5 31s-25.5 11.167 -29.5 13.5s-6 4.83301 -6 7.5c0 2 1.83301 7.83301 5.5 17.5l13 33l15 36.5l11.5 28c-44 10.667 -79.333 32.667 -106 66s-40 74.666 -40 123.999
c0 54.667 11.333 97.5 34 128.5s52.5 53 89.5 66s77.167 19.5 120.5 19.5c13.333 0 29.666 -0.333008 48.999 -1s39.166 -1.66699 59.499 -3s39.166 -2.66602 56.499 -3.99902s31.5 -2.33301 42.5 -3l16.5 -1v-64l-65 -10l8 -19.5c5.33301 -13 10.5 -29.5 15.5 -49.5
s7.5 -39.667 7.5 -59c0 -38 -8.83301 -72 -26.5 -102s-43.167 -53.667 -76.5 -71s-73.333 -26 -120 -26c-2 -7.33301 -4 -17 -6 -29s-3 -19 -3 -21s2.83301 -4.16699 8.5 -6.5l29 -11.5c13.667 -5.33301 32.5 -13.333 56.5 -24c40 -16 71 -31.667 93 -47
s37.5 -30.5 46.5 -45.5s13.5 -30.5 13.5 -46.5c0 -28 -9.83301 -51.833 -29.5 -71.5s-46.5 -34.667 -80.5 -45s-73.667 -15.5 -119 -15.5zM257.001 268c29.333 0 52.667 3.50098 70 10.501s29.833 19.333 37.5 37s11.5 42.5 11.5 74.5c0 33.333 -2 60.333 -6 81
s-8 32.334 -12 35.001c-1.33301 1.33301 -6.5 2.5 -15.5 3.5s-18.833 1.66699 -29.5 2s-20.334 0.666016 -29.001 0.999023s-14 0.5 -16 0.5c-30.667 0 -55.5 -3.16699 -74.5 -9.5s-32.667 -18.333 -41 -36s-12.5 -44.167 -12.5 -79.5
c0 -46.667 8.83301 -78.334 26.5 -95.001s47.834 -25 90.501 -25zM243.002 661.001l-135 108l30 42l130 -69h7l130 69l30 -42l-135 -108h-57z" />
    <glyph glyph-name="uni0218" unicode="&#x218;" horiz-adv-x="529" 
d="M256 -14c-28.667 0 -56.3311 3.16699 -82.998 9.5s-50.334 13.833 -71.001 22.5s-37 16.167 -49 22.5l-18 9.5l5 13l11.5 29.5l11.5 29l5 12.5l17.5 -8c11.667 -5.33301 27.5 -11.5 47.5 -18.5s42.333 -13.167 67 -18.5s50 -8 76 -8c15.333 0 27.5 1.33301 36.5 4
s15.5 5.33398 19.5 8.00098c11.333 8 20.166 19.167 26.499 33.5s9.5 33.5 9.5 57.5c0 22.667 -5.66699 41.667 -17 57s-26.333 28.333 -45 39s-39 21 -61 31c-25.333 10.667 -49.333 21.667 -72 33s-42.834 24.333 -60.501 39s-31.667 33.334 -42 56.001
s-15.5 50.667 -15.5 84c0 35.333 8.16699 67.166 24.5 95.499s40.666 50.833 72.999 67.5s72.833 25 121.5 25c22.667 0 44.334 -1.33301 65.001 -4s39.5 -5.5 56.5 -8.5s30.333 -5.83301 40 -8.5l14.5 -4l-17 -88l-15.5 2.5l-42 7c-17.667 3 -37 5.33301 -58 7
s-41.833 2.5 -62.5 2.5c-15.333 0 -27.5 -1 -36.5 -3s-16.833 -5 -23.5 -9c-7.33301 -4 -14.333 -12.167 -21 -24.5s-10 -29.5 -10 -51.5c0 -23.333 6.33301 -42.5 19 -57.5s29.334 -27.667 50.001 -38s42.667 -20.5 66 -30.5c20.667 -8.66699 41.5 -18.334 62.5 -29.001
s40.167 -23.667 57.5 -39s31.333 -34.333 42 -57s16 -50.667 16 -84c0 -42 -9.33301 -78.5 -28 -109.5s-44.5 -55.167 -77.5 -72.5s-71.5 -26 -115.5 -26zM208.003 -239l-24 43c17.333 9.33301 28.833 22.166 34.5 38.499s8.5 41.5 8.5 75.5v28h86v-22
c-2 -36.667 -8.16699 -66 -18.5 -88s-23.333 -38.667 -39 -50s-31.5 -19.666 -47.5 -24.999z" />
    <glyph glyph-name="uni0219" unicode="&#x219;" horiz-adv-x="506" 
d="M256 -13c-26.667 0 -52.168 2.66699 -76.501 8s-46.166 11.333 -65.499 18s-34.666 12.5 -45.999 17.5l-17 7.5l26 86l17 -7c11.333 -4.66699 26.333 -10.334 45 -17.001s39.5 -12.5 62.5 -17.5s45.5 -7.5 67.5 -7.5c12.667 0 24.167 1.16699 34.5 3.5
s18.166 5.83301 23.499 10.5c6.66699 6 12.667 14.833 18 26.5s8 25.167 8 40.5c0 24.667 -6.33301 43.5 -19 56.5s-29.167 23.167 -49.5 30.5s-42.166 14.333 -65.499 21c-20 6 -39.833 12.333 -59.5 19s-37.5 16 -53.5 28s-28.833 27.667 -38.5 47
s-14.5 44.666 -14.5 75.999c0 48.667 15.5 88 46.5 118s82.167 45 153.5 45c25.333 0 49.5 -1.66699 72.5 -5s43.5 -7.16602 61.5 -11.499s31.667 -7.83301 41 -10.5l-16 -85l-15.5 3.5c-10.333 2.33301 -23.833 5.16602 -40.5 8.49902s-35.167 6.16602 -55.5 8.49902
s-40.833 3.5 -61.5 3.5c-19.333 0 -34.166 -1.16699 -44.499 -3.5s-18.166 -5.5 -23.499 -9.5c-4.66699 -3.33301 -8.83398 -9.33301 -12.501 -18s-5.5 -19 -5.5 -31c0 -24 7.16699 -42.167 21.5 -54.5s32.666 -22 54.999 -29l69.5 -21.5
c19.333 -6 38.166 -12.5 56.499 -19.5s35 -16.667 50 -29s27 -28.166 36 -47.499s13.5 -43.666 13.5 -72.999c0 -55.333 -17 -100.166 -51 -134.499s-83.333 -51.5 -148 -51.5zM195.999 -239l-24 43c17.333 9.33301 28.833 22.166 34.5 38.499s8.5 41.5 8.5 75.5v28h86v-22
c-2 -36.667 -8.16699 -66 -18.5 -88s-23.333 -38.667 -39 -50s-31.5 -19.666 -47.5 -24.999z" />
    <glyph glyph-name="uni021A" unicode="&#x21a;" horiz-adv-x="487" 
d="M190 0l2 608l-195 -3v92h493v-92l-197 3l3 -608h-106zM183 -239l-24 43c17.333 9.33301 28.833 22.166 34.5 38.499s8.5 41.5 8.5 75.5v28h86v-22c-2 -36.667 -8.16699 -66 -18.5 -88s-23.333 -38.667 -39 -50s-31.5 -19.666 -47.5 -24.999z" />
    <glyph glyph-name="uni021B" unicode="&#x21b;" horiz-adv-x="375" 
d="M255 -14c-31.333 0 -58.168 5 -80.501 15s-39.5 29.333 -51.5 58s-18 70.667 -18 126v286h-67v66l71 14l22 136h79v-136h117v-82h-117v-289c0 -32.667 1.16699 -56.5 3.5 -71.5s7.33301 -24.333 15 -28s19.834 -5.5 36.501 -5.5c10.667 0 20.667 0.333008 30 1
s16.833 1.16699 22.5 1.5l8.5 0.5v-85l-20 -3.5c-13.333 -2.33301 -30.333 -3.5 -51 -3.5zM146.998 -239l-24 43c17.333 9.33301 28.833 22.166 34.5 38.499s8.5 41.5 8.5 75.5v28h86v-22c-2 -36.667 -8.16699 -66 -18.5 -88s-23.333 -38.667 -39 -50
s-31.5 -19.666 -47.5 -24.999z" />
    <glyph glyph-name="uni0237" unicode="&#x237;" horiz-adv-x="319" 
d="M51 -180c-10 0 -20.833 0.667969 -32.5 2.00098s-21.5 2.5 -29.5 3.5l-12 1.5l11 89l10 -1l26 -2.5c10.667 -1 21 -1.5 31 -1.5c16.667 0 29.167 3 37.5 9s14.166 19.167 17.499 39.5s5 52.5 5 96.5v528h104v-526c0 -60 -7.66699 -107.333 -23 -142
s-35.666 -59.334 -60.999 -74.001s-53.333 -22 -84 -22z" />
    <glyph glyph-name="circumflex" unicode="&#x2c6;" horiz-adv-x="327" 
d="M30 652l-30 43l135 107h57l135 -107l-30 -43l-130 69h-7z" />
    <glyph glyph-name="caron" unicode="&#x2c7;" horiz-adv-x="327" 
d="M135 659l-135 108l30 42l130 -69h7l130 69l30 -42l-135 -108h-57z" />
    <glyph glyph-name="breve" unicode="&#x2d8;" horiz-adv-x="325" 
d="M163 653c-27.333 0 -53.168 4.83301 -77.501 14.5s-44.166 25.5 -59.499 47.5s-24 51 -26 87l64 7c3.33301 -30 13.833 -50.667 31.5 -62s40.167 -17 67.5 -17c26.667 0 48.834 5.66699 66.501 17s28.167 32 31.5 62l64 -7c-2 -36 -10.833 -65 -26.5 -87
s-35.334 -37.833 -59.001 -47.5s-49.167 -14.5 -76.5 -14.5z" />
    <glyph glyph-name="dotaccent" unicode="&#x2d9;" horiz-adv-x="120" 
d="M0 677v92h120v-92h-120z" />
    <glyph glyph-name="ring" unicode="&#x2da;" horiz-adv-x="181" 
d="M91 644c-15.333 0 -29.833 2.66699 -43.5 8s-25 14.166 -34 26.499s-13.5 29.833 -13.5 52.5c0 23.333 4.5 41.333 13.5 54s20.333 21.5 34 26.5s28.167 7.5 43.5 7.5c14.667 0 28.834 -2.5 42.501 -7.5s25 -13.833 34 -26.5s13.5 -30.667 13.5 -54
c0 -22.667 -4.5 -40.167 -13.5 -52.5s-20.333 -21.166 -34 -26.499s-27.834 -8 -42.501 -8zM91 693c12.667 0 21.834 2.5 27.501 7.5s8.5 15.167 8.5 30.5c0 16 -2.83301 26.333 -8.5 31s-14.834 7 -27.501 7c-13.333 0 -23 -2.33301 -29 -7s-9 -15 -9 -31
c0 -15.333 3 -25.5 9 -30.5s15.667 -7.5 29 -7.5z" />
    <glyph glyph-name="ogonek" unicode="&#x2db;" horiz-adv-x="169" 
d="M102 -179c-30 0 -54.501 6.16797 -73.501 18.501s-28.5 32.166 -28.5 59.499c0 17.333 5.66699 33.833 17 49.5s25.833 29.667 43.5 42s35.834 22.5 54.501 30.5l54 -21c-28 -10 -51 -22.667 -69 -38s-27 -29.333 -27 -42c0 -10.667 4.16699 -18 12.5 -22
s19.5 -6 33.5 -6c10.667 0 21.667 0.666992 33 2l17 2v-67l-19 -4c-12.667 -2.66699 -28.667 -4 -48 -4z" />
    <glyph glyph-name="tilde" unicode="&#x2dc;" horiz-adv-x="336" 
d="M257 669c-11.333 0 -25.6709 2.50098 -43.0039 7.50098s-34.666 10.667 -51.999 17l-46 17c-13.333 5 -22.666 7.5 -27.999 7.5c-4.66699 0 -9.16699 -3.66699 -13.5 -11s-8 -14.833 -11 -22.5l-4.5 -11.5l-59 7c0.666992 40.667 8.16699 69.167 22.5 85.5
s33.5 24.5 57.5 24.5c12.667 0 27.334 -2.33301 44.001 -7s33.334 -10 50.001 -16l45.5 -16.5c13.667 -5 23.167 -7.5 28.5 -7.5c4.66699 0 9.16699 3.66699 13.5 11s8 14.666 11 21.999l4.5 11l59 -9c0 -40 -6.83301 -68.167 -20.5 -84.5s-33.167 -24.5 -58.5 -24.5z" />
    <glyph glyph-name="hungarumlaut" unicode="&#x2dd;" horiz-adv-x="600" 
d="M38 641l-38 48l152 130l51 -67zM225 641l-37 48l157 130l50 -67z" />
    <glyph glyph-name="gravecomb" unicode="&#x300;" 
d="M227 652l-227 64l29 80l218 -84z" />
    <glyph glyph-name="acutecomb" unicode="&#x301;" 
d="M21 652l-21 59l217 85l30 -80z" />
    <glyph glyph-name="uni0302" unicode="&#x302;" 
d="M30 652l-30 43l135 107h57l135 -107l-30 -43l-130 69h-7z" />
    <glyph glyph-name="tildecomb" unicode="&#x303;" 
d="M257 669c-11.333 0 -25.6709 2.50098 -43.0039 7.50098s-34.666 10.667 -51.999 17l-46 17c-13.333 5 -22.666 7.5 -27.999 7.5c-4.66699 0 -9.16699 -3.66699 -13.5 -11s-8 -14.833 -11 -22.5l-4.5 -11.5l-59 7c0.666992 40.667 8.16699 69.167 22.5 85.5
s33.5 24.5 57.5 24.5c12.667 0 27.334 -2.33301 44.001 -7s33.334 -10 50.001 -16l45.5 -16.5c13.667 -5 23.167 -7.5 28.5 -7.5c4.66699 0 9.16699 3.66699 13.5 11s8 14.666 11 21.999l4.5 11l59 -9c0 -40 -6.83301 -68.167 -20.5 -84.5s-33.167 -24.5 -58.5 -24.5z" />
    <glyph glyph-name="uni0304" unicode="&#x304;" 
d="M0 683v75h342v-75h-342z" />
    <glyph glyph-name="uni0306" unicode="&#x306;" 
d="M163 653c-27.333 0 -53.168 4.83301 -77.501 14.5s-44.166 25.5 -59.499 47.5s-24 51 -26 87l64 7c3.33301 -30 13.833 -50.667 31.5 -62s40.167 -17 67.5 -17c26.667 0 48.834 5.66699 66.501 17s28.167 32 31.5 62l64 -7c-2 -36 -10.833 -65 -26.5 -87
s-35.334 -37.833 -59.001 -47.5s-49.167 -14.5 -76.5 -14.5z" />
    <glyph glyph-name="uni0307" unicode="&#x307;" 
d="M0 677v92h120v-92h-120z" />
    <glyph glyph-name="uni0308" unicode="&#x308;" 
d="M0 679v90h113v-90h-113zM198 679v90h113v-90h-113z" />
    <glyph glyph-name="hookabovecomb" unicode="&#x309;" 
d="M0 788v64.998c5.33301 1.33301 14 2.33301 26 3s23 1 33 1c36.667 0 62.667 -7.33301 78 -22s23 -32.667 23 -54c0 -16 -3 -30.667 -9 -44s-16.5 -26.666 -31.5 -39.999s-35.167 -28 -60.5 -44l-41 36c22 18.667 38 33.334 48 44.001s15 20.667 15 30
c0 16.667 -11 25 -33 25h-48z" />
    <glyph glyph-name="uni030A" unicode="&#x30a;" 
d="M91 644c-15.333 0 -29.833 2.66699 -43.5 8s-25 14.166 -34 26.499s-13.5 29.833 -13.5 52.5c0 23.333 4.5 41.333 13.5 54s20.333 21.5 34 26.5s28.167 7.5 43.5 7.5c14.667 0 28.834 -2.5 42.501 -7.5s25 -13.833 34 -26.5s13.5 -30.667 13.5 -54
c0 -22.667 -4.5 -40.167 -13.5 -52.5s-20.333 -21.166 -34 -26.499s-27.834 -8 -42.501 -8zM91 693c12.667 0 21.834 2.5 27.501 7.5s8.5 15.167 8.5 30.5c0 16 -2.83301 26.333 -8.5 31s-14.834 7 -27.501 7c-13.333 0 -23 -2.33301 -29 -7s-9 -15 -9 -31
c0 -15.333 3 -25.5 9 -30.5s15.667 -7.5 29 -7.5z" />
    <glyph glyph-name="uni030B" unicode="&#x30b;" 
d="M38 641l-38 48l152 130l51 -67zM225 641l-37 48l157 130l50 -67z" />
    <glyph glyph-name="uni030C" unicode="&#x30c;" 
d="M135 659l-135 108l30 42l130 -69h7l130 69l30 -42l-135 -108h-57z" />
    <glyph glyph-name="uni0312" unicode="&#x312;" 
d="M24 773l-24 -43c17.333 -9.33301 28.833 -22.166 34.5 -38.499s8.5 -41.5 8.5 -75.5v-28h86v22c-2 36.667 -8.16699 66 -18.5 88s-23.333 38.667 -39 50s-31.5 19.666 -47.5 24.999z" />
    <glyph glyph-name="uni031B" unicode="&#x31b;" 
d="M-42 572l86.001 0.000976562c10.667 0 19 2.33301 25 7s9 12.667 9 24c0 7.33301 -0.833008 16.666 -2.5 27.999s-3.83398 23.833 -6.50098 37.5s-5.66699 27.5 -9 41.5h88c4 -13.333 7.5 -27.833 10.5 -43.5s4.5 -30.5 4.5 -44.5c0 -26 -5.66699 -47.667 -17 -65
s-26.833 -30.333 -46.5 -39s-41.5 -13 -65.5 -13h-63z" />
    <glyph glyph-name="dotbelowcomb" unicode="&#x323;" 
d="M0 -163v92h119v-92h-119z" />
    <glyph glyph-name="uni0326" unicode="&#x326;" 
d="M24 -239l-24 43c17.333 9.33301 28.833 22.166 34.5 38.499s8.5 41.5 8.5 75.5v28h86v-22c-2 -36.667 -8.16699 -66 -18.5 -88s-23.333 -38.667 -39 -50s-31.5 -19.666 -47.5 -24.999z" />
    <glyph glyph-name="uni0327" unicode="&#x327;" 
d="M77 -179c-19.333 0 -37 1.50195 -53 4.50195l-24 4.5v70l12 -1c8 -0.666992 17.333 -1.5 28 -2.5s19.667 -1.5 27 -1.5c18.667 0 32 1.66699 40 5s12 11.666 12 24.999c0 16.667 -1.66699 33.167 -5 49.5s-6 28.166 -8 35.499l64 9c2 -4.66699 4.5 -12 7.5 -22
s5.83301 -21.333 8.5 -34s4 -25.667 4 -39c0 -31.333 -10.333 -56.333 -31 -75s-48 -28 -82 -28z" />
    <glyph glyph-name="uni0328" unicode="&#x328;" 
d="M102 -179c-30 0 -54.501 6.16797 -73.501 18.501s-28.5 32.166 -28.5 59.499c0 17.333 5.66699 33.833 17 49.5s25.833 29.667 43.5 42s35.834 22.5 54.501 30.5l54 -21c-28 -10 -51 -22.667 -69 -38s-27 -29.333 -27 -42c0 -10.667 4.16699 -18 12.5 -22
s19.5 -6 33.5 -6c10.667 0 21.667 0.666992 33 2l17 2v-67l-19 -4c-12.667 -2.66699 -28.667 -4 -48 -4z" />
    <glyph glyph-name="tonos" unicode="&#x384;" horiz-adv-x="600" 
d="M21 652l-21 59l217 85l30 -80z" />
    <glyph glyph-name="dieresistonos" unicode="&#x385;" horiz-adv-x="532" 
d="M0 679v90h113v-90h-113zM198 679v90h113v-90h-113zM39 830l-21 59l217 85l30 -80z" />
    <glyph glyph-name="uni0401" unicode="&#x401;" horiz-adv-x="525" 
d="M98 0v697h366v-92l-307 4l49 47l-8 -296l-46 39h287v-89h-287l46 41l8 -309l-49 48l307 2v-92h-366zM125 762v90h113v-90h-113zM323 762v90h113v-90h-113z" />
    </font>
</defs>
</svg>
