<?xml version="1.0" encoding="UTF-8"?>
<svg width="90px" height="66px" viewBox="0 0 90 66" version="1.1" xmlns="http://www.w3.org/2000/svg" xmlns:xlink="http://www.w3.org/1999/xlink">
    <!-- Generator: Sketch 55.2 (78181) - https://sketchapp.com -->
    <title>Combined Shape</title>
    <desc>Created with Sketch.</desc>
    <g id="Site" stroke="none" stroke-width="1" fill="none" fill-rule="evenodd" opacity="0.32749721">
        <g id="Об-агентстве" transform="translate(-55.000000, -1077.000000)" fill="#FFFFFF">
            <path d="M100.5,1138 C99.1192882,1138 98.0000001,1136.88071 98.0000001,1135.5 C98.0000001,1134.11929 99.1192882,1133 100.5,1133 C101.880712,1133 103,1134.11929 103,1135.5 C103,1136.88071 101.880712,1138 100.5,1138 Z M109.258865,1125 C111.336201,1129.69166 108.858297,1134 104.17398,1134 C103.224565,1129.42019 106.335945,1125.32791 109.258865,1125 Z M104,1136.21145 C110.342889,1134.91172 113.731456,1139.93667 114,1142.21038 C108.309749,1144.64632 103.999831,1141.10858 104,1136.21145 Z M115.083779,1122 C118.545528,1125.86366 117.001096,1130.91539 112.973084,1132 C111.246892,1128.9004 111.738232,1123.70481 115.083779,1122 Z M114,1133.27358 C119.901193,1130.20057 124.796192,1133.32683 126,1135.93537 C120.112766,1139.99129 115.263091,1137.52074 114,1133.27358 Z M121.590696,1117 C125.336443,1119.32833 126.509497,1124.39944 122.471076,1127 C120.882784,1125.68124 118.301324,1120.41605 121.590696,1117 Z M123.999999,1127.99781 C127.03515,1124.77242 132.545527,1123.7063 135.999999,1127.03115 C132.752788,1132.27977 126.427765,1132.03004 123.999999,1127.99781 Z M125.655496,1109 C130.294102,1110.2195 132.695282,1114.99154 129.627098,1119 C125.745336,1117.24069 123.925973,1111.83036 125.655496,1109 Z M130.999999,1120.38977 C131.999539,1117.70292 137.261865,1113.11505 141.999999,1115.82979 C139.791242,1122.8107 133.918377,1123.14708 130.999999,1120.38977 Z M126.123878,1101.01064 C130.511984,1100.79516 135.675967,1103.8675 133.475815,1109 C127.380939,1107.96887 125.462888,1103.04141 126.123878,1101.01064 Z M135.999999,1109.45969 C136.629215,1104.94311 140.78153,1101.30495 144.999999,1102.11297 C145.002889,1109.41745 138.882318,1111.01105 135.999999,1109.45969 Z M126.999999,1092.50119 C131.350432,1090.80862 135.299005,1093.516 134.982142,1098.91778 C132.520838,1099.44039 127.452823,1097.49136 126.999999,1092.50119 Z M143.512311,1089 C145.132862,1093.37282 142.730189,1099.58609 136.072288,1098.95554 C135.526428,1094.98567 138.078288,1089.52299 143.512311,1089 Z M123,1085.49883 C128.438838,1081.88063 132.634654,1085.60442 133,1088.35324 C129.013002,1089.94901 124.309271,1088.43881 123,1085.49883 Z M139.385154,1077 C141.985752,1081.10376 141.876542,1087.51397 135.831371,1089 C134.428415,1086.34738 134.319204,1079.29401 139.385154,1077 Z M90.7411928,1125 C93.6642258,1125.32791 96.7755376,1129.42019 95.8259652,1134 C91.141752,1134 88.6637255,1129.69166 90.7411928,1125 Z M86.0000004,1142.21047 C86.2683749,1139.93656 89.6569418,1134.91159 96.0000004,1136.21151 C96.0000004,1141.10849 91.6900819,1144.64625 86.0000004,1142.21047 Z M83.9162207,1122 C87.2617684,1123.70481 87.7531077,1128.9004 86.0269161,1132 C81.9989045,1130.91539 80.4544721,1125.86366 83.9162207,1122 Z M74.0000007,1135.93536 C75.2036266,1133.32699 80.0986257,1130.20053 86.0000007,1133.27355 C84.7369093,1137.52073 79.8872343,1139.9913 74.0000007,1135.93536 Z M78.4093044,1117 C81.6986766,1120.41605 79.1172165,1125.68141 77.528924,1127 C73.4905035,1124.39961 74.6635573,1119.3285 78.4093044,1117 Z M64.0000009,1127.03112 C67.4544736,1123.70631 72.9648498,1124.77242 76.0000009,1127.99778 C73.5722355,1132.02996 67.2470346,1132.27987 64.0000009,1127.03112 Z M74.3444957,1109 C76.074041,1111.83054 74.2546538,1117.24087 70.3728412,1119 C67.3047954,1114.99154 69.705828,1110.21968 74.3444957,1109 Z M58.0000011,1115.82978 C62.7381351,1113.11507 68.0004607,1117.70289 69.0000011,1120.38971 C66.0816229,1123.14717 60.2087579,1122.81061 58.0000011,1115.82978 Z M73.8761221,1101.01065 C74.5371119,1103.04142 72.6190613,1107.96905 66.524185,1109 C64.3240334,1103.86751 69.4880158,1100.795 73.8761221,1101.01065 Z M55.0000011,1102.11297 C59.21847,1101.30495 63.370785,1104.94311 64.0000011,1109.45969 C61.1175117,1111.01105 54.9969412,1109.41745 55.0000011,1102.11297 Z M65.0178579,1098.91779 C64.7009951,1093.516 68.6495684,1090.80862 73.0000009,1092.50119 C72.5473395,1097.49117 67.4793253,1099.4404 65.0178579,1098.91779 Z M56.4877071,1089 C61.9217165,1089.52299 64.4735705,1094.98567 63.9277122,1098.95554 C57.2696332,1099.58609 54.8671598,1093.37282 56.4877071,1089 Z M67.0000009,1088.35324 C67.3653461,1085.60442 71.5611625,1081.88063 77.0000009,1085.49883 C75.6907292,1088.43881 70.9869981,1089.94901 67.0000009,1088.35324 Z M60.6148134,1077 C65.6808369,1079.29401 65.571629,1086.34738 64.1685259,1089 C58.1234754,1087.51415 58.0142675,1081.10394 60.6148134,1077 Z" id="Combined-Shape"></path>
        </g>
    </g>
</svg>