<?xml version="1.0" encoding="UTF-8"?>
<svg width="52px" height="52px" viewBox="0 0 52 52" version="1.1" xmlns="http://www.w3.org/2000/svg" xmlns:xlink="http://www.w3.org/1999/xlink">
    <!-- Generator: Sketch 55.2 (78181) - https://sketchapp.com -->
    <title>Combined Shape</title>
    <desc>Created with Sketch.</desc>
    <g id="Site" stroke="none" stroke-width="1" fill="none" fill-rule="evenodd">
        <g id="Главная-7" transform="translate(-857.000000, -3800.000000)" fill="#7E97BB">
            <path d="M860,3800 L906,3800 C907.656854,3800 909,3801.34315 909,3803 L909,3849 C909,3850.65685 907.656854,3852 906,3852 L860,3852 C858.343146,3852 857,3850.65685 857,3849 L857,3803 C857,3801.34315 858.343146,3800 860,3800 Z M893,3838.50903 L893,3813.49097 C893,3811.56302 891.407876,3810 889.44441,3810 L876.55559,3810 C874.591953,3810 873,3811.56319 873,3813.49097 L873,3838.50903 C873,3840.43698 874.592124,3842 876.55559,3842 L889.44441,3842 C891.408047,3842 893,3840.43681 893,3838.50903 Z M883,3840 C881.895431,3840 881,3839.10457 881,3838 C881,3836.89543 881.895431,3836 883,3836 C884.104569,3836 885,3836.89543 885,3838 C885,3839.10457 884.104569,3840 883,3840 Z M888.8172,3814 C889.469368,3814 889.999644,3814.41687 890,3814.92929 L890,3833.07071 C890,3833.58269 889.469368,3834 888.8172,3834 L877.1828,3834 C876.530276,3834 876,3833.58313 876,3833.07071 L876,3814.92929 C876,3814.41731 876.530632,3814 877.1828,3814 L888.8172,3814 Z" id="Combined-Shape"></path>
        </g>
    </g>
</svg>