<?xml version="1.0" encoding="UTF-8"?>
<svg width="52px" height="52px" viewBox="0 0 52 52" version="1.1" xmlns="http://www.w3.org/2000/svg" xmlns:xlink="http://www.w3.org/1999/xlink">
    <!-- Generator: Sketch 55.2 (78181) - https://sketchapp.com -->
    <title>Combined Shape</title>
    <desc>Created with Sketch.</desc>
    <g id="Site" stroke="none" stroke-width="1" fill="none" fill-rule="evenodd">
        <g id="Главная-7" transform="translate(-857.000000, -3964.000000)" fill="#7E97BB">
            <path d="M860,3964 L906,3964 C907.656854,3964 909,3965.34315 909,3967 L909,4013 C909,4014.65685 907.656854,4016 906,4016 L860,4016 C858.343146,4016 857,4014.65685 857,4013 L857,3967 C857,3965.34315 858.343146,3964 860,3964 Z M882.999162,3975 C879.240502,3975.08334 875.771462,3977.07291 873.754723,3980.3019 C871.737985,3983.53089 871.440425,3987.572 872.961773,3991.07082 C875.549339,3996.35399 878.764631,4001.29379 882.535455,4005.77929 C882.650247,4005.91916 882.820091,4006 882.999162,4006 C883.178232,4006 883.348077,4005.91916 883.462869,4005.77929 C887.234463,4001.29402 890.450341,3996.35419 893.038243,3991.07082 C894.559697,3987.57173 894.261953,3983.53029 892.244816,3980.3012 C890.22768,3977.07212 886.758124,3975.08277 882.999162,3975 Z M883.116725,3992.99886 C880.679806,3993.04629 878.456367,3991.61473 877.490912,3989.37667 C876.525456,3987.13862 877.009873,3984.5389 878.716597,3982.79879 C880.423322,3981.05867 883.013135,3980.52401 885.269422,3981.44597 C887.52571,3982.36793 889,3984.56328 888.999778,3987.0007 C889.027835,3990.28014 886.396041,3992.96342 883.116725,3992.99886 Z" id="Combined-Shape"></path>
        </g>
    </g>
</svg>