<?xml version="1.0" encoding="UTF-8"?>
<svg width="44px" height="44px" viewBox="0 0 44 44" version="1.1" xmlns="http://www.w3.org/2000/svg" xmlns:xlink="http://www.w3.org/1999/xlink">
    <!-- Generator: Sketch 55.2 (78181) - https://sketchapp.com -->
    <title>Combined Shape</title>
    <desc>Created with Sketch.</desc>
    <g id="Site" stroke="none" stroke-width="1" fill="none" fill-rule="evenodd">
        <g id="Главная-7" transform="translate(-85.000000, -1591.000000)" fill="#21C0D0">
            <path d="M107,1635 C94.8497355,1635 85,1625.15026 85,1613 C85,1600.84974 94.8497355,1591 107,1591 C119.150264,1591 129,1600.84974 129,1613 C129,1625.15026 119.150264,1635 107,1635 Z M101.805082,1604.17311 C101.803664,1604.74976 102.033381,1605.30303 102.443082,1605.70973 L109.738282,1612.99107 L102.443082,1620.27461 C101.883591,1620.8217 101.661652,1621.62645 101.861853,1622.38214 C102.062055,1623.13782 102.653552,1623.72802 103.410905,1623.92778 C104.168257,1624.12754 104.974782,1623.90609 105.523082,1623.34783 L114.358282,1614.52768 C114.767228,1614.12042 114.997038,1613.56758 114.997038,1612.99107 C114.997038,1612.41456 114.767228,1611.86172 114.358282,1611.45446 L105.523082,1602.6365 C104.900181,1602.01504 103.96344,1601.82914 103.149619,1602.16548 C102.335798,1602.50182 101.805146,1603.29418 101.805082,1604.17311 Z" id="Combined-Shape" transform="translate(107.000000, 1613.000000) scale(-1, 1) translate(-107.000000, -1613.000000) "></path>
        </g>
    </g>
</svg>