<?xml version="1.0" encoding="UTF-8"?>
<svg width="89px" height="89px" viewBox="0 0 89 89" version="1.1" xmlns="http://www.w3.org/2000/svg" xmlns:xlink="http://www.w3.org/1999/xlink">
    <!-- Generator: Sketch 55.2 (78181) - https://sketchapp.com -->
    <title>Combined Shape</title>
    <desc>Created with Sketch.</desc>
    <g id="Site" stroke="none" stroke-width="1" fill="none" fill-rule="evenodd">
        <g id="Главная-7" transform="translate(-58.000000, -36.000000)" fill="#FFFFFF">
            <path d="M92.2702703,38 L80.1081081,38 L80.4748422,36 L92.2702703,38 Z M126.72973,108 L138.891892,108 L138.525158,110 L126.72973,108 Z M144.972973,56 L144.972973,44 L147,44.3618443 L144.972973,56 Z M74.027027,90 L74.027027,102 L72,101.638156 L74.027027,90 Z M131.797297,54 L131.797297,92 L120.13495,92 L120.13495,73.4885714 L111.038319,87.7114286 L109.988708,87.7114286 L100.892077,73.4885714 L100.892077,92 L89.2297297,92 L89.2297297,54 L100.892077,54 L110.513514,69.4714286 L120.13495,54 L131.797297,54 Z M76.0540541,40 L142.945946,40 L142.945946,106 L76.0540541,106 L76.0540541,40 Z M79.0945946,43 L79.0945946,103 L139.905405,103 L139.905405,43 L79.0945946,43 Z M91.0518048,115 L91.0518048,125 L88.5458927,125 L88.5458927,119.614286 L86.1526058,123.628571 L85.899199,123.628571 L83.5199903,119.628571 L83.5199903,125 L81,125 L81,115 L83.5199903,115 L86.0259024,119.271429 L88.5458927,115 L91.0518048,115 Z M99.1568016,122.6 L102.971982,122.6 L102.971982,125 L96.6368113,125 L96.6368113,115 L102.901592,115 L102.901592,117.385714 L99.1568016,117.385714 L99.1568016,118.771429 L102.549638,118.771429 L102.549638,121.128571 L99.1568016,121.128571 L99.1568016,122.6 Z M112.203232,115 C113.564127,115 114.7021,115.478567 115.617185,116.435714 C116.53227,117.392862 116.989805,118.580945 116.989805,120 C116.989805,121.419055 116.53227,122.607138 115.617185,123.564286 C114.7021,124.521433 113.564127,125 112.203232,125 L108.190957,125 L108.190957,115 L112.203232,115 Z M112.203232,122.528571 C112.888372,122.528571 113.4468,122.297621 113.878533,121.835714 C114.310265,121.373807 114.526128,120.761909 114.526128,120 C114.526128,119.238091 114.310265,118.626193 113.878533,118.164286 C113.4468,117.702379 112.888372,117.471429 112.203232,117.471429 L110.781338,117.471429 L110.781338,122.528571 L112.203232,122.528571 Z M122.180623,115 L124.700614,115 L124.700614,125 L122.180623,125 L122.180623,115 Z M136.282915,125 L135.860571,123.557143 L132.58036,123.557143 L132.158015,125 L129.426853,125 L132.678907,115 L135.747945,115 L139,125 L136.282915,125 Z M133.227955,121.357143 L135.212975,121.357143 L134.213426,117.957143 L133.227955,121.357143 Z M62.6588235,50.2184517 C61.6794069,50.2184517 60.8676503,49.9991538 60.2235294,49.5605514 C59.5794085,49.121949 59.129413,48.5293781 58.8735294,47.7828208 L60.8985294,46.5370095 C61.2426488,47.4048824 61.8514662,47.8388123 62.725,47.8388123 C63.448533,47.8388123 63.8102941,47.6195144 63.8102941,47.180912 C63.8102941,46.891621 63.6029432,46.6583254 63.1882353,46.481018 C63.0117638,46.4063623 62.6235324,46.2803826 62.0235294,46.1030753 C61.1764664,45.8417802 60.5058848,45.4755061 60.0117647,45.0042418 C59.5176446,44.5329775 59.2705882,43.8774167 59.2705882,43.0375398 C59.2705882,42.1323391 59.5772028,41.3997907 60.1904412,40.8398727 C60.8036795,40.2799548 61.5691131,40 62.4867647,40 C63.2632392,40 63.9514676,40.1913024 64.5514706,40.573913 C65.1514736,40.9565237 65.6102925,41.5117673 65.9279412,42.2396607 L63.9426471,43.471474 C63.6514691,42.7435807 63.1705916,42.3796394 62.5,42.3796394 C62.2176456,42.3796394 62.0036772,42.4402963 61.8580882,42.5616119 C61.7124993,42.6829274 61.6397059,42.8369026 61.6397059,43.0235419 C61.6397059,43.2381771 61.747793,43.4201477 61.9639706,43.5694592 C62.1801481,43.7187706 62.6014675,43.8914094 63.2279412,44.0873807 C63.6779434,44.2273602 64.0397045,44.3580058 64.3132353,44.4793213 C64.5867661,44.6006369 64.8867631,44.7756086 65.2132353,45.0042418 C65.5397075,45.232875 65.7823521,45.5268275 65.9411765,45.8861082 C66.1000008,46.2453889 66.1794118,46.667654 66.1794118,47.1529162 C66.1794118,48.1141087 65.8573562,48.8653207 65.2132353,49.4065748 C64.5691144,49.9478288 63.7176524,50.2184517 62.6588235,50.2184517 Z M62.9169118,54.2078473 C63.8522106,54.2078473 64.6374968,54.5297953 65.2727941,55.173701 C65.9080914,55.8176066 66.2257353,56.6388073 66.2257353,57.6373277 C66.2257353,58.635848 65.9080914,59.4570487 65.2727941,60.1009544 C64.6374968,60.7448601 63.8522106,61.0668081 62.9169118,61.0668081 L61.6860294,61.0668081 L61.6860294,64.0063627 L59.3169118,64.0063627 L59.3169118,54.2078473 L62.9169118,54.2078473 Z M62.9169118,58.6871686 C63.181619,58.6871686 63.4044109,58.5891844 63.5852941,58.3932131 C63.7661774,58.1972419 63.8566176,57.9452826 63.8566176,57.6373277 C63.8566176,57.3293728 63.7661774,57.0797464 63.5852941,56.8884411 C63.4044109,56.6971358 63.181619,56.6014846 62.9169118,56.6014846 L61.6860294,56.6014846 L61.6860294,58.6871686 L62.9169118,58.6871686 Z M64.4455882,78.0042418 L64.0485294,76.590456 L60.9647059,76.590456 L60.5676471,78.0042418 L58,78.0042418 L61.0573529,68.2057264 L63.9426471,68.2057264 L67,78.0042418 L64.4455882,78.0042418 Z M61.5735294,74.4347826 L63.4397059,74.4347826 L62.5,71.1032874 L61.5735294,74.4347826 Z M62.95,92.2120891 C61.5558754,92.2120891 60.4022104,91.7245012 59.4889706,90.7493107 C58.5757307,89.7741203 58.1191176,88.5586499 58.1191176,87.1028632 C58.1191176,85.6470765 58.5757307,84.4316061 59.4889706,83.4564157 C60.4022104,82.4812252 61.5558754,81.9936373 62.95,81.9936373 C63.7882395,81.9936373 64.5647023,82.2036034 65.2794118,82.6235419 C65.9941212,83.0434804 66.5544097,83.6080558 66.9602941,84.3172853 L64.9088235,85.5630965 C64.7323521,85.2178138 64.4698547,84.9448578 64.1213235,84.7442206 C63.7727924,84.5435833 63.3823551,84.4432662 62.95,84.4432662 C62.2088198,84.4432662 61.6110317,84.6882266 61.1566176,85.1781548 C60.7022036,85.668083 60.475,86.3096461 60.475,87.1028632 C60.475,87.8960803 60.7022036,88.5376434 61.1566176,89.0275716 C61.6110317,89.5174998 62.2088198,89.7624602 62.95,89.7624602 C63.3823551,89.7624602 63.7727924,89.6621431 64.1213235,89.4615058 C64.4698547,89.2608686 64.7323521,88.9832467 64.9088235,88.628632 L66.9602941,89.8884411 C66.5544097,90.6070025 65.9963271,91.173911 65.2860294,91.5891835 C64.5757317,92.0044559 63.7970631,92.2120891 62.95,92.2120891 Z M62.0632353,103.648356 L65.65,103.648356 L65.65,106 L59.6941176,106 L59.6941176,96.2014846 L65.5838235,96.2014846 L65.5838235,98.5391304 L62.0632353,98.5391304 L62.0632353,99.8969247 L65.2529412,99.8969247 L65.2529412,102.206575 L62.0632353,102.206575 L62.0632353,103.648356 Z" id="Combined-Shape"></path>
        </g>
    </g>
</svg>