<?xml version="1.0" encoding="UTF-8"?>
<svg width="1474px" height="994px" viewBox="0 0 1474 994" version="1.1" xmlns="http://www.w3.org/2000/svg" xmlns:xlink="http://www.w3.org/1999/xlink">
    <!-- Generator: Sketch 55.2 (78181) - https://sketchapp.com -->
    <title>Group 12</title>
    <desc>Created with Sketch.</desc>
    <g id="Site" stroke="none" stroke-width="1" fill="none" fill-rule="evenodd">
        <g id="Group-12" transform="translate(0.144485, 0.514466)" fill="#52BEFF" fill-rule="nonzero">
            <path d="M115.64274,896.436622 C-101.999085,733.496356 -3.41772603,422.444818 335.57611,201.751292 C674.479937,-18.8836367 1125.45908,-65.8045793 1342.94687,97.0203696 C1560.5887,259.960635 1462.00734,571.012173 1123.0135,791.705699 C784.109677,1012.34063 333.130535,1059.26157 115.64274,896.436622 Z M116.242054,895.636108 C333.342601,1058.17114 783.881375,1011.29601 1122.46791,790.867648 C1460.96444,570.497882 1559.29408,260.240598 1342.34756,97.8208832 C1125.24701,-64.7141474 674.708239,-17.8390218 336.121702,202.589343 C-2.37482642,422.95911 -100.704463,733.216393 116.242054,895.636108 Z" id="Shape"></path>
            <path d="M346.383033,850.254828 C176.295491,728.654949 272.124149,471.595333 560.109965,276.140401 C848.008008,80.7450419 1219.06159,20.7542962 1388.97714,142.231213 C1559.06468,263.831091 1463.23602,520.890708 1175.25021,716.34564 C887.352164,911.740999 516.298581,971.731745 346.383033,850.254828 Z M346.964615,849.441341 C516.471493,970.626088 887.099051,910.704221 1174.68863,715.518212 C1462.19044,520.391774 1557.73044,264.106486 1388.39556,143.0447 C1218.88868,21.8599526 848.26112,81.78182 560.671537,276.967829 C273.169728,472.094266 177.62973,728.379555 346.964615,849.441341 Z" id="Shape"></path>
            <path d="M600.388523,737.152976 C475.99462,644.023929 532.273409,466.317984 725.836639,340.303445 C919.309852,214.34751 1176.80187,187.585947 1301.04179,280.599708 C1425.43569,373.728754 1369.1569,551.4347 1175.59367,677.449239 C982.120457,803.405174 724.628438,830.166736 600.388523,737.152976 Z M600.987838,736.352462 C724.840551,829.07634 981.892172,802.360549 1175.04808,676.611188 C1368.11397,550.920431 1424.14119,374.008813 1300.44247,281.400221 C1176.58976,188.676344 919.538138,215.392135 726.382231,341.141496 C533.316343,466.832253 477.289115,643.743871 600.987838,736.352462 Z" id="Shape"></path>
        </g>
    </g>
</svg>