<?xml version="1.0" encoding="UTF-8"?>
<svg width="44px" height="44px" viewBox="0 0 44 44" version="1.1" xmlns="http://www.w3.org/2000/svg" xmlns:xlink="http://www.w3.org/1999/xlink">
    <!-- Generator: Sketch 55.2 (78181) - https://sketchapp.com -->
    <title>Combined Shape</title>
    <desc>Created with Sketch.</desc>
    <g id="Site" stroke="none" stroke-width="1" fill="none" fill-rule="evenodd">
        <g id="Главная-7" transform="translate(-1151.000000, -1591.000000)" fill="#21C0D0">
            <path d="M1173,1635 C1160.84974,1635 1151,1625.15026 1151,1613 C1151,1600.84974 1160.84974,1591 1173,1591 C1185.15026,1591 1195,1600.84974 1195,1613 C1195,1625.15026 1185.15026,1635 1173,1635 Z M1167.80508,1604.17311 C1167.80366,1604.74976 1168.03338,1605.30303 1168.44308,1605.70973 L1175.73828,1612.99107 L1168.44308,1620.27461 C1167.88359,1620.8217 1167.66165,1621.62645 1167.86185,1622.38214 C1168.06205,1623.13782 1168.65355,1623.72802 1169.4109,1623.92778 C1170.16826,1624.12754 1170.97478,1623.90609 1171.52308,1623.34783 L1180.35828,1614.52768 C1180.76723,1614.12042 1180.99704,1613.56758 1180.99704,1612.99107 C1180.99704,1612.41456 1180.76723,1611.86172 1180.35828,1611.45446 L1171.52308,1602.6365 C1170.90018,1602.01504 1169.96344,1601.82914 1169.14962,1602.16548 C1168.3358,1602.50182 1167.80515,1603.29418 1167.80508,1604.17311 Z" id="Combined-Shape"></path>
        </g>
    </g>
</svg>