<?xml version="1.0" encoding="UTF-8"?>
<svg width="81px" height="52px" viewBox="0 0 81 52" version="1.1" xmlns="http://www.w3.org/2000/svg" xmlns:xlink="http://www.w3.org/1999/xlink">
    <!-- Generator: Sketch 55.2 (78181) - https://sketchapp.com -->
    <title>eye</title>
    <desc>Created with Sketch.</desc>
    <g id="Site" stroke="none" stroke-width="1" fill="none" fill-rule="evenodd">
        <g id="Главная-7" transform="translate(-453.000000, -2135.000000)" fill-rule="nonzero">
            <g id="eye" transform="translate(453.000000, 2135.000000)">
                <path d="M80.5499523,24.6149091 C80.368019,24.3645212 76.0150664,18.4103636 68.9728228,12.3884485 C60.9710787,5.54635152 51.0841888,0 40.4999407,0 C29.9125284,0 20.025164,5.54950303 12.0272168,12.3884485 C4.98465676,18.4103636 0.631862356,24.3646788 0.449929028,24.6152242 C-0.149976343,25.4418667 -0.149976343,26.5584485 0.449929028,27.3850909 C0.631862356,27.6356364 4.98465676,33.5897939 12.0272168,39.6118667 C20.0291191,46.4539636 29.9158507,52 40.4999407,52 C51.0871947,52 60.9747173,46.450497 68.9728228,39.6115515 C76.0152246,33.5896364 80.368019,27.6353212 80.5499523,27.3847758 C81.1500159,26.5581333 81.1500159,25.4415515 80.5499523,24.6149091 Z M65.6543589,36.2077576 C59.0845092,41.783103 50.1620242,47.2727273 40.4999407,47.2727273 C30.4268461,47.2727273 21.1808362,41.1929818 15.1980773,36.0925697 C10.5130569,32.098497 7.03275142,28.0555758 5.3747851,26.0007879 C6.97310893,24.0230545 10.2648365,20.200897 14.7127109,16.3355636 C21.336666,10.5794788 30.5239826,4.72727273 40.4999407,4.72727273 C50.5730353,4.72727273 59.8190452,10.8070182 65.801804,15.9074303 C70.4863499,19.9011879 73.9664971,23.9439515 75.6250963,25.9992121 C73.9519425,28.0696 70.4227523,32.1612121 65.6543589,36.2077576 Z" id="Shape" fill="#7E97BB"></path>
                <path d="M40,9 C30.6262,9 23,16.6262 23,26 C23,35.3738 30.6262,43 40,43 C49.3738,43 57,35.3738 57,26 C57,16.6262 49.3739619,9 40,9 Z M40,38 C33.3832,38 28,32.6168 28,26 C28,19.3832 33.3832,14 40,14 C46.6168,14 52,19.3832 52,26 C52,32.6168 46.61696,38 40,38 Z" id="Shape" fill="#21C0D0"></path>
                <path d="M40,19 C36.1402,19 33,22.1402 33,26 C33,29.8598 36.1402,33 40,33 C43.8598,33 47,29.8598 47,26 C47,22.1402 43.8599556,19 40,19 Z M40,28.3333333 C38.7134,28.3333333 37.6666667,27.2866 37.6666667,26 C37.6666667,24.7134 38.7134,23.6666667 40,23.6666667 C41.2866,23.6666667 42.3333333,24.7134 42.3333333,26 C42.3333333,27.2866 41.2866,28.3333333 40,28.3333333 Z" id="Shape" fill="#7E97BB"></path>
            </g>
        </g>
    </g>
</svg>