<?xml version="1.0" encoding="UTF-8"?>
<svg width="50px" height="72px" viewBox="0 0 50 72" version="1.1" xmlns="http://www.w3.org/2000/svg" xmlns:xlink="http://www.w3.org/1999/xlink">
    <!-- Generator: Sketch 55.2 (78181) - https://sketchapp.com -->
    <title>Group 15</title>
    <desc>Created with Sketch.</desc>
    <g id="Site" stroke="none" stroke-width="1" fill="none" fill-rule="evenodd">
        <g id="Главная-7" transform="translate(-1055.000000, -2125.000000)" fill-rule="nonzero">
            <g id="Group-15" transform="translate(1055.000000, 2125.000000)">
                <path d="M24.9962213,0.000162690414 C11.0821474,-0.0498766481 -0.0245013569,11.4497255 4.05935646e-05,25.4448573 C0.0149420373,33.9387426 4.17358131,41.8974095 11.3868615,46.6508128 C13.3552813,47.9480776 14.5780265,50.1173575 14.5780265,52.3122311 L14.5780265,57.231853 C14.5780265,59.9823357 16.3200634,62.3273967 18.7452766,63.1982868 L18.7452766,65.6708946 C18.7452766,69.160783 21.5495075,72 24.9962213,72 C28.443074,72 31.247166,69.1606424 31.247166,65.670754 L31.247166,63.1981462 C33.6723792,62.3272561 35.4144161,59.982195 35.4144161,57.2317124 L35.4144161,52.1652781 C35.4144161,50.0467638 36.5963291,47.9604526 38.4987785,46.7207034 C45.70067,42.0273469 50,34.0736019 50,25.4445761 C50,11.4540849 38.8119646,0.0501076641 24.9962213,0.000162690414 Z M27.0799158,65.6708946 C27.0799158,66.8341439 26.1452185,67.7806901 24.9962213,67.7806901 C23.8472241,67.7806901 22.9125268,66.8342845 22.9125268,65.6708946 L22.9125268,63.561099 L27.0799158,63.561099 L27.0799158,65.6708946 Z M31.2473049,57.231853 C31.2473049,58.3952429 30.3126075,59.3416486 29.1636104,59.3416486 L20.8289712,59.3416486 C19.679974,59.3416486 18.7452766,58.3952429 18.7452766,57.231853 L18.7452766,55.1220575 L31.2473049,55.1220575 L31.2473049,57.231853 Z M36.2435607,43.1727368 C33.5301608,44.9409545 31.72257,47.8236246 31.3289694,50.902607 L27.0800547,50.902607 L27.0800547,45.3065793 L30.6370433,41.7050346 C31.4507717,40.8811133 31.4507717,39.5453172 30.6370433,38.7213959 C29.8234539,37.8974745 28.5040446,37.8974745 27.6903163,38.7213959 L24.9962213,41.4490973 L22.3022653,38.7212553 C21.4886758,37.8973339 20.1692665,37.8973339 19.3555382,38.7212553 C18.5418098,39.5451766 18.5418098,40.8809727 19.3555382,41.704894 L22.9125268,45.3064386 L22.9125268,50.902607 L18.6458349,50.902607 C18.2134853,47.8075933 16.3857561,44.9104389 13.6598565,43.1142369 C7.57404632,39.1038956 4.09719445,32.3505249 4.17010918,25.1636075 C4.28607831,13.7261616 13.3316708,4.22090192 24.8992795,4.22090192 C36.5152202,4.22090192 45.8328887,13.8080053 45.8328887,25.4448573 C45.8328887,32.6324778 42.2481231,39.2595674 36.2435607,43.1727368 Z" id="Shape" fill="#7E97BB"></path>
                <path d="M29.8318288,20.8874975 L24.6469681,20.8874975 L27.4436803,15.150275 C27.9716369,14.0672718 27.529291,12.7574715 26.455909,12.2247824 C25.3823827,11.6922391 24.0843629,12.1382587 23.5564062,13.2214076 L19.2246207,22.1084434 C18.5172136,23.559391 19.5669191,25.2579655 21.1681133,25.2579655 L26.3274208,25.2579655 L23.5629028,30.8367067 C23.0278721,31.9162141 23.4617003,33.228782 24.5314731,33.7687541 C25.6015345,34.3087263 26.9025861,33.8707181 27.4374724,32.7915021 L31.7694023,24.0501291 C32.4874927,22.6007838 31.4416852,20.8874975 29.8318288,20.8874975 Z" id="Path" fill="#21C0D0"></path>
            </g>
        </g>
    </g>
</svg>