<?xml version="1.0" encoding="UTF-8"?>
<svg width="71px" height="71px" viewBox="0 0 71 71" version="1.1" xmlns="http://www.w3.org/2000/svg" xmlns:xlink="http://www.w3.org/1999/xlink">
    <!-- Generator: Sketch 55.2 (78181) - https://sketchapp.com -->
    <title>Group 7</title>
    <desc>Created with Sketch.</desc>
    <g id="Site" stroke="none" stroke-width="1" fill="none" fill-rule="evenodd">
        <g id="Главная-7" transform="translate(-165.000000, -2125.000000)">
            <g id="Group-7" transform="translate(165.000000, 2125.000000)">
                <path d="M64.7579629,25.0499903 L57.3083711,25.0499903 C55.9502188,21.2274776 53.3795195,17.9729649 50.0590215,15.7505127 L50.0590215,6.22793177 C50.0591602,2.79377388 47.259791,-2.27373675e-13 43.8190645,-2.27373675e-13 L6.2400957,-2.27373675e-13 C2.79923047,-2.27373675e-13 4.33431069e-13,2.79377388 4.33431069e-13,6.22793177 L4.33431069e-13,31.277922 C4.33431069e-13,34.7119415 2.79923047,37.5058538 6.2400957,37.5058538 L8.32017383,37.5058538 L8.32017383,43.7337856 C8.32017383,45.5702359 10.5462734,46.5023704 11.8588027,45.2138519 L19.7104043,37.5059922 L20.9388984,37.5059922 L20.9388984,56.3280507 C20.9388984,59.7620702 23.7381289,62.5559825 27.1789941,62.5559825 L51.2776699,62.5559825 L58.9883809,70.2516628 C60.2903711,71.5516686 62.5390742,70.6391871 62.5390742,68.7837758 L62.5390742,62.5558441 L64.7578242,62.5558441 C68.1985508,62.5558441 70.9979199,59.7620702 70.9979199,56.3279123 L70.9979199,31.277922 C70.9979199,27.8439025 68.1986895,25.0499903 64.7579629,25.0499903 Z M54.2191777,31.277922 C54.2191777,39.2906803 47.6874551,45.8096706 39.6590469,45.8096706 C31.6306387,45.8096706 25.098916,39.2906803 25.098916,31.277922 C25.098916,23.2651637 31.6306387,16.7461735 39.6590469,16.7461735 C47.6874551,16.7461735 54.2191777,23.2650253 54.2191777,31.277922 Z M21.0551055,33.353807 L18.8588203,33.353807 C18.3131465,33.353807 17.7892441,33.5677758 17.4001309,33.9497641 L12.4800527,38.7798402 L12.4800527,35.4298304 C12.4800527,34.2833119 11.5487324,33.353807 10.3999746,33.353807 L6.2400957,33.353807 C5.09314063,33.353807 4.16001758,32.4225029 4.16001758,31.2777836 L4.16001758,6.22793177 C4.16001758,5.08321248 5.09314063,4.15190838 6.2400957,4.15190838 L43.8192031,4.15190838 C44.9661582,4.15190838 45.8992813,5.08321248 45.8992813,6.22793177 L45.8992813,13.6630019 C43.9465039,12.9718246 41.8463184,12.5942651 39.6591855,12.5942651 C29.3368672,12.5942651 20.9390371,20.9757251 20.9390371,31.277922 C20.9388984,31.9796179 20.979252,32.6720409 21.0551055,33.353807 Z M66.838041,56.3279123 C66.838041,57.4726316 65.904918,58.4039357 64.7579629,58.4039357 L60.4592734,58.4039357 C59.3105156,58.4039357 58.3791953,59.3334405 58.3791953,60.4799591 L58.3791953,63.7719786 L53.6098535,59.0120721 C53.2197695,58.6227485 52.6907363,58.4039357 52.1390996,58.4039357 L27.1788555,58.4039357 C26.0319004,58.4039357 25.0987773,57.4726316 25.0987773,56.3279123 L25.0987773,43.0069006 C28.5334023,47.2457251 33.7839355,49.9615789 39.6589082,49.9615789 C49.9812266,49.9615789 58.3790566,41.5801189 58.3790566,31.277922 C58.3790566,30.5762261 58.3387031,29.8838031 58.2628496,29.2018986 L64.7578242,29.2018986 C65.9047793,29.2018986 66.838041,30.1332027 66.838041,31.277922 L66.838041,56.3279123 L66.838041,56.3279123 Z" id="Shape" fill="#7E97BB" fill-rule="nonzero"></path>
                <path d="M39.9988906,21 C41.1034601,21 41.9988906,21.8954305 41.9988906,23 L41.9988906,34.3624161 C41.9988906,35.4669856 41.1034601,36.3624161 39.9988906,36.3624161 C38.8943211,36.3624161 37.9988906,35.4669856 37.9988906,34.3624161 L37.9988906,23 C37.9988906,21.8954305 38.8943211,21 39.9988906,21 Z M39.9988906,42 C38.8943211,42 37.9988906,41.0534879 37.9988906,39.885906 C37.9988906,38.7183242 38.8943211,37.7718121 39.9988906,37.7718121 C41.1034601,37.7718121 41.9988906,38.7183242 41.9988906,39.885906 C41.9988906,41.0534879 41.1034601,42 39.9988906,42 Z" id="Combined-Shape" fill="#21C0D0"></path>
            </g>
        </g>
    </g>
</svg>