<?xml version="1.0" encoding="UTF-8"?>
<svg width="72px" height="71px" viewBox="0 0 72 71" version="1.1" xmlns="http://www.w3.org/2000/svg" xmlns:xlink="http://www.w3.org/1999/xlink">
    <!-- Generator: Sketch 55.2 (78181) - https://sketchapp.com -->
    <title>Group 14</title>
    <desc>Created with Sketch.</desc>
    <g id="Site" stroke="none" stroke-width="1" fill="none" fill-rule="evenodd">
        <g id="Главная-7" transform="translate(-751.000000, -2125.000000)" fill-rule="nonzero">
            <g id="Group-14" transform="translate(751.000000, 2125.000000)">
                <path d="M65.671875,0 L6.328125,0 C2.8625625,0 0.0388125,2.76137305 0,6.16978906 C0,6.18337891 0,6.19696875 0,6.21055859 L0,43.6816406 L0,47.8417969 C0,51.3126152 2.874375,54.0820313 6.328125,54.0820313 L24.8716406,54.0820313 L21.6902813,66.8398438 L14.90625,66.8398438 C13.7413125,66.8398438 12.796875,67.7711641 12.796875,68.9199219 C12.796875,70.0686797 13.7413125,71 14.90625,71 C16.7122969,71 55.5650156,71 57.09375,71 C58.2586875,71 59.203125,70.0686797 59.203125,68.9199219 C59.203125,67.7711641 58.2586875,66.8398438 57.09375,66.8398438 L50.3097188,66.8398438 L47.1283594,54.0820313 L65.671875,54.0820313 C69.1080469,54.0820313 72,51.3350801 72,47.8417969 L72,43.6816406 L72,6.24023438 C72,2.79936914 69.1612031,0 65.671875,0 Z M26.0346094,66.8398438 L29.2159688,54.0820313 L42.7838906,54.0820313 L45.9653906,66.8398438 L26.0346094,66.8398438 Z M67.78125,47.8417969 C67.78125,48.988752 66.8349844,49.921875 65.671875,49.921875 C65.016,49.921875 6.66182813,49.921875 6.328125,49.921875 C5.16501563,49.921875 4.21875,48.988752 4.21875,47.8417969 L4.21875,45.7617188 L67.78125,45.7617188 L67.78125,47.8417969 Z M67.78125,41.6015625 L4.21875,41.6015625 L4.21875,6.24023438 C4.21875,5.0932793 5.16501563,4.16015625 6.328125,4.16015625 L65.671875,4.16015625 C66.8349844,4.16015625 67.78125,5.0932793 67.78125,6.24023438 L67.78125,41.6015625 Z" id="Shape" fill="#7E97BB"></path>
                <path d="M57.6862245,8 C54.2048087,8 51.372449,10.7877286 51.372449,14.2142857 C51.372449,15.1682476 51.5925893,16.0724952 51.9846046,16.881181 L43.440523,25.1836048 C42.6134184,24.7914143 41.686977,24.5714286 40.7091837,24.5714286 C39.7355995,24.5714286 38.8130867,24.7897571 37.9887883,25.1787714 L33.7784821,21.0348095 C34.1735842,20.2235 34.3954082,19.3153857 34.3954082,18.3571429 C34.3954082,14.9305857 31.5630485,12.1428571 28.0816327,12.1428571 C24.6002168,12.1428571 21.7678571,14.9305857 21.7678571,18.3571429 C21.7678571,19.308619 21.986875,20.210381 22.376926,21.0172714 L18.0517092,25.1866429 C17.2230612,24.792519 16.2940944,24.5714286 15.3137755,24.5714286 C11.8323597,24.5714286 9,27.3591571 9,30.7857143 C9,34.2122714 11.8323597,37 15.3137755,37 C18.7951913,37 21.627551,34.2122714 21.627551,30.7857143 C21.627551,29.8342381 21.4085332,28.9324762 21.0184821,28.1255857 L25.343699,23.9562143 C26.1723469,24.3503381 27.1013138,24.5714286 28.0816327,24.5714286 C29.0552168,24.5714286 29.9777296,24.3531 30.8020281,23.9640857 L35.0124745,28.1081857 C34.6172321,28.9194952 34.3954082,29.8274714 34.3954082,30.7857143 C34.3954082,34.2122714 37.2277679,37 40.7091837,37 C44.1905995,37 47.0229592,34.2122714 47.0229592,30.7857143 C47.0229592,29.8317524 46.8028189,28.9275048 46.4108036,28.118819 L54.9548852,19.8163952 C55.7819898,20.2085857 56.7084311,20.4285714 57.6862245,20.4285714 C61.1676403,20.4285714 64,17.6408429 64,14.2142857 C64,10.7877286 61.1676403,8 57.6862245,8 Z M15.3137755,32.8571429 C14.1533036,32.8571429 13.2091837,31.9279 13.2091837,30.7857143 C13.2091837,29.6435286 14.1533036,28.7142857 15.3137755,28.7142857 C16.4742474,28.7142857 17.4183673,29.6435286 17.4183673,30.7857143 C17.4183673,31.9279 16.4742474,32.8571429 15.3137755,32.8571429 Z M28.0816327,20.4285714 C26.9211607,20.4285714 25.9770408,19.4993286 25.9770408,18.3571429 C25.9770408,17.2149571 26.9211607,16.2857143 28.0816327,16.2857143 C29.2421046,16.2857143 30.1862245,17.2149571 30.1862245,18.3571429 C30.1862245,19.4993286 29.2421046,20.4285714 28.0816327,20.4285714 Z M40.7091837,32.8571429 C39.5487117,32.8571429 38.6045918,31.9279 38.6045918,30.7857143 C38.6045918,29.6435286 39.5487117,28.7142857 40.7091837,28.7142857 C41.8696556,28.7142857 42.8137755,29.6435286 42.8137755,30.7857143 C42.8137755,31.9279 41.8696556,32.8571429 40.7091837,32.8571429 Z M57.6862245,16.2857143 C56.5257526,16.2857143 55.5816327,15.3564714 55.5816327,14.2142857 C55.5816327,13.0721 56.5257526,12.1428571 57.6862245,12.1428571 C58.8466964,12.1428571 59.7908163,13.0721 59.7908163,14.2142857 C59.7908163,15.3564714 58.8466964,16.2857143 57.6862245,16.2857143 Z" id="Shape" fill="#21C0D0"></path>
            </g>
        </g>
    </g>
</svg>